<?xml version="1.0" standalone="no"?>
<!DOCTYPE svg PUBLIC "-//W3C//DTD SVG 1.1//EN" "http://www.w3.org/Graphics/SVG/1.1/DTD/svg11.dtd" >
<svg>
<metadata>
Created by FontForge 20090914 at Tue Jul 26 12:40:35 2016
 By www-data
Copyright 1996, 1998 DoubleAlex Font Studio. All rights reserved.
</metadata>
<defs>
<font id="RotondaC-Bold" horiz-adv-x="1175" >
  <font-face 
    font-family="RotondaC"
    font-weight="700"
    font-stretch="normal"
    units-per-em="2048"
    panose-1="0 0 8 0 0 0 0 0 0 0"
    ascent="1597"
    descent="-451"
    x-height="1090"
    cap-height="1458"
    bbox="-145 -451 2218 1915"
    underline-thickness="102"
    underline-position="-102"
    unicode-range="U+0020-U+25FC"
  />
<missing-glyph horiz-adv-x="748" 
d="M68 0v1365h544v-1365h-544zM136 68h408v1229h-408v-1229z" />
    <glyph glyph-name=".notdef" horiz-adv-x="748" 
d="M68 0v1365h544v-1365h-544zM136 68h408v1229h-408v-1229z" />
    <glyph glyph-name="space" unicode=" " horiz-adv-x="548" 
 />
    <glyph glyph-name="exclam" unicode="!" horiz-adv-x="684" 
d="M182 135c0 44 15.667 81.667 47 113s69 47 113 47s81.667 -15.667 113 -47s47 -69 47 -113s-15.667 -81.667 -47 -113s-69 -47 -113 -47s-81.667 15.667 -113 47s-47 69 -47 113zM195 555v788c0 42 13.833 75.833 41.5 101.5s62.834 38.5 105.501 38.5
c42 0 77 -13 105 -39s42 -59.667 42 -101v-788c0 -41.333 -14 -74.833 -42 -100.5s-63 -38.5 -105 -38.5c-42.667 0 -77.834 12.667 -105.501 38s-41.5 59 -41.5 101z" />
    <glyph glyph-name="quotedbl" unicode="&#x22;" horiz-adv-x="909" 
d="M145 1012v348c0 37.333 11 67.166 33 89.499s52 33.5 90 33.5s68 -11.167 90 -33.5s33 -52.166 33 -89.499v-348c0 -37.333 -11 -67.166 -33 -89.499s-52 -33.5 -90 -33.5s-68 11.167 -90 33.5s-33 52.166 -33 89.499zM518 1012v348c0 37.333 11 67.166 33 89.499
s52 33.5 90 33.5s68 -11.167 90 -33.5s33 -52.166 33 -89.499v-348c0 -37.333 -11 -67.166 -33 -89.499s-52 -33.5 -90 -33.5s-68 11.167 -90 33.5s-33 52.166 -33 89.499z" />
    <glyph glyph-name="numbersign" unicode="#" horiz-adv-x="1228" 
d="M0 514c0 26.667 8.33301 49.667 25 69s41 29 73 29h205l33 234h-176c-32 0 -56.5 9.66699 -73.5 29s-25.5 42.333 -25.5 69s8.5 49.667 25.5 69s41.5 29 73.5 29h205l45 330c4.66699 36 15 61.333 31 76s39.667 22 71 22c25.333 0 47.333 -7.5 66 -22.5
s28 -34.5 28 -58.5c0 -11.333 -1.33301 -28 -4 -50l-41 -297h197l45 330c4.66699 36 15 61.333 31 76s39.667 22 71 22c25.333 0 47.333 -7.5 66 -22.5s28 -34.5 28 -58.5c0 -11.333 -1.33301 -28 -4 -50l-41 -297h176c32 0 56.5 -9.66699 73.5 -29s25.5 -42.333 25.5 -69
s-8.5 -49.667 -25.5 -69s-41.5 -29 -73.5 -29h-204l-33 -234h176c32 0 56.333 -9.66699 73 -29s25 -42.333 25 -69s-8.33301 -49.667 -25 -69s-41 -29 -73 -29h-205l-45 -330c-4.66699 -36 -15 -61.333 -31 -76s-39.667 -22 -71 -22c-25.333 0 -47.333 7.66699 -66 23
s-28 35 -28 59c0 10.667 1.33301 27 4 49l41 297h-197l-45 -330c-4.66699 -36 -15 -61.333 -31 -76s-39.667 -22 -71 -22c-25.333 0 -47.5 7.66699 -66.5 23s-28.5 35 -28.5 59c0 10.667 1.33301 27 4 49l41 297h-176c-32 0 -56.333 9.66699 -73 29s-25 42.333 -25 69z
M502 612h194l33 234h-194z" />
    <glyph glyph-name="dollar" unicode="$" horiz-adv-x="1099" 
d="M39 205c0 41.333 12.502 75.8311 37.502 103.498s58.167 41.5 99.5 41.5c29.333 0 78.333 -12 147 -36s122.667 -38 162 -42v342l-31 9c-28.667 8 -50.334 14.333 -65.001 19s-35.5 11.667 -62.5 21s-48.167 17.666 -63.5 24.999s-34.333 17.5 -57 30.5
s-40.5 25.833 -53.5 38.5s-27.333 28.334 -43 47.001s-27.5 38.167 -35.5 58.5s-14.833 43.833 -20.5 70.5s-8.5 55 -8.5 85c0 84.667 19.833 160.834 59.5 228.501s92.5 121 158.5 160s140 63.167 222 72.5v4v59c0 17.333 0.333008 30.333 1 39s2.66699 18.167 6 28.5
s9 17.666 17 21.999s18.667 6.5 32 6.5s23.833 -2.16699 31.5 -6.5s13.167 -11.666 16.5 -21.999s5.33301 -19.666 6 -27.999s1 -21.5 1 -39.5v-63c26.667 -0.666992 54.834 -3.33398 84.501 -8.00098s61.167 -12.167 94.5 -22.5s63 -22.833 89 -37.5s47.5 -33.5 64.5 -56.5
s25.5 -48.5 25.5 -76.5c0 -41.333 -12.667 -77 -38 -107s-58.333 -45 -99 -45c-24.667 0 -60.167 8.5 -106.5 25.5s-84.5 27.167 -114.5 30.5v-273h1l1 -1h1h1h1l1 -1h1h1l1 -1c112.667 -32 195 -62.333 247 -91c135.333 -75.333 205 -191.333 209 -348v-16
c0 -132 -44.333 -240.5 -133 -325.5s-199.334 -132.833 -332.001 -143.5v-7v-59c0 -12.667 -0.166992 -22.167 -0.5 -28.5s-1.33301 -14.666 -3 -24.999s-4.33398 -18 -8.00098 -23s-9.16699 -9.5 -16.5 -13.5s-16.333 -6 -27 -6c-17.333 0 -30.333 5.33301 -39 16
s-13.667 21.5 -15 32.5s-2 26.833 -2 47.5v64c-47.333 1.33301 -94.333 5.66602 -141 12.999s-94.167 18.833 -142.5 34.5s-87.5 38.834 -117.5 69.501s-45 66.667 -45 108zM377.002 1055c0 -25.333 9.16797 -46.5 27.501 -63.5s45.166 -32.167 80.499 -45.5v234
c-32 -8.66699 -58 -23.667 -78 -45s-30 -48 -30 -80zM596.003 280.998c42 10 74.667 29.8311 98 59.498s35 64.834 35 105.501c0 58.667 -44.333 103.334 -133 134.001v-299z" />
    <glyph glyph-name="percent" unicode="%" horiz-adv-x="1478" 
d="M63 1151c0 90.667 30.333 168.667 91 234s135.667 98 225 98s164.166 -32.667 224.499 -98s90.5 -143.333 90.5 -234s-30.167 -168.334 -90.5 -233.001s-135.166 -97 -224.499 -97c-90 0 -165.167 32.333 -225.5 97s-90.5 142.334 -90.5 233.001zM272 1151
c0 -34 9.66699 -62.667 29 -86s45.333 -35 78 -35s58.5 11.5 77.5 34.5s28.5 51.833 28.5 86.5s-9.5 63.834 -28.5 87.501s-44.833 35.5 -77.5 35.5s-58.667 -11.833 -78 -35.5s-29 -52.834 -29 -87.501zM285 76c0 24 6.66699 49.333 20 76l678 1278
c13.333 25.333 26.5 42.5 39.5 51.5s31.167 13.5 54.5 13.5c32 0 60.167 -11.333 84.5 -34s36.5 -49.667 36.5 -81c0 -20 -5.33301 -40.333 -16 -61l-688 -1288c-21.333 -30 -36.333 -48 -45 -54c-12 -9.33301 -28 -14 -48 -14c-27.333 0 -53.5 11.5 -78.5 34.5
s-37.5 49.167 -37.5 78.5zM784 305c0 90.667 30.333 168.667 91 234s135.667 98 225 98s164.166 -32.667 224.499 -98s90.5 -143.333 90.5 -234s-30.167 -168.334 -90.5 -233.001s-135.166 -97 -224.499 -97c-90 0 -165.167 32.333 -225.5 97s-90.5 142.334 -90.5 233.001z
M993 305c0 -34 9.66699 -62.667 29 -86s45.333 -35 78 -35s58.5 11.5 77.5 34.5s28.5 51.833 28.5 86.5s-9.5 63.834 -28.5 87.501s-44.833 35.5 -77.5 35.5s-58.667 -11.833 -78 -35.5s-29 -52.834 -29 -87.501z" />
    <glyph glyph-name="ampersand" unicode="&#x26;" horiz-adv-x="1441" 
d="M49 418c0 95.333 28.499 180.497 85.499 255.497s131.5 137.833 223.5 188.5c-44 44 -77.5 87.667 -100.5 131s-34.5 92 -34.5 146c0 45.333 8.16699 87 24.5 125s38.333 70.333 66 97s60 49.334 97 68.001s76 32.334 117 41.001s82.833 13 125.5 13
c47.333 0 95 -6.83301 143 -20.5s92.833 -33.167 134.5 -58.5s75.5 -59.166 101.5 -101.499s39 -89.5 39 -141.5c0 -76 -25 -145.167 -75 -207.5s-111.667 -112.5 -185 -150.5l215 -238l80 92c30 34 55.833 58.333 77.5 73s47.834 22 78.501 22s57 -12 79 -36s33 -55 33 -93
c0 -50.667 -37.333 -115.667 -112 -195l-52 -55l140 -158c16.667 -18.667 28.334 -34.834 35.001 -48.501s10 -31.5 10 -53.5c0 -35.333 -14.333 -67.166 -43 -95.499s-62.334 -42.5 -101.001 -42.5c-42 0 -78 16 -108 48l-142 147c-72.667 -64 -144.5 -112.5 -215.5 -145.5
s-149.167 -49.5 -234.5 -49.5c-92.667 0 -176.5 16.667 -251.5 50s-135.5 84 -181.5 152s-69 148.333 -69 241zM343.999 445.997c0 -63.333 19.5 -112.502 58.5 -147.502s90.5 -52.5 154.5 -52.5c52 0 97.667 9.66699 137 29s80.333 49.333 123 90l-297 329
c-54.667 -35.333 -97.667 -72.166 -129 -110.499s-47 -84.166 -47 -137.499zM529.999 1147c0 -29.333 7.66699 -55.667 23 -79s44 -55.666 86 -96.999c99.333 50.667 149 103.667 149 159c0 41.333 -14.167 71.5 -42.5 90.5s-59.166 28.5 -92.499 28.5
c-28.667 0 -56.334 -9.83301 -83.001 -29.5s-40 -43.834 -40 -72.501z" />
    <glyph glyph-name="quotesingle" unicode="'" horiz-adv-x="491" 
d="M123 1012v348c0 37.333 11 67.166 33 89.499s52 33.5 90 33.5s68 -11.167 90 -33.5s33 -52.166 33 -89.499v-348c0 -37.333 -11 -67.166 -33 -89.499s-52 -33.5 -90 -33.5s-68 11.167 -90 33.5s-33 52.166 -33 89.499z" />
    <glyph glyph-name="parenleft" unicode="(" horiz-adv-x="493" 
d="M80 584c0 74 7 167 21 279s37.5 227.833 70.5 347.5s70.833 201.5 113.5 245.5c16 18 38.333 27 67 27c35.333 0 66 -11.167 92 -33.5s39 -50.833 39 -85.5c0 -8 -2.5 -20.833 -7.5 -38.5s-11.167 -37.167 -18.5 -58.5l-13 -38c-70.667 -210.667 -106 -425.667 -106 -645
c0 -226 31.333 -428.333 94 -607c34 -92 51 -145.667 51 -161c0 -38.667 -12.167 -70.167 -36.5 -94.5s-55.833 -36.5 -94.5 -36.5c-40.667 0 -76 25.667 -106 77c-50 86.667 -90.167 214.167 -120.5 382.5s-45.5 314.833 -45.5 439.5z" />
    <glyph glyph-name="parenright" unicode=")" horiz-adv-x="493" 
d="M10 -197c0 8 2.5 20.832 7.5 38.499s11.167 37.334 18.5 59.001l13 38.5c71.333 212.667 107 427.667 107 645c0 223.333 -31.667 425.333 -95 606c-34 92 -51 146 -51 162c0 38.667 12 70.167 36 94.5s55.667 36.5 95 36.5c41.333 0 77 -26 107 -78
c50 -86.667 90.167 -214 120.5 -382s45.5 -314.333 45.5 -439c0 -74 -7 -167 -21 -279s-37.5 -228 -70.5 -348s-70.833 -202 -113.5 -246c-15.333 -17.333 -38 -26 -68 -26c-35.333 0 -66 11 -92 33s-39 50.333 -39 85z" />
    <glyph glyph-name="asterisk" unicode="*" horiz-adv-x="796" 
d="M59 961c0 18 5.99414 33.999 17.9941 47.999s24.833 24.333 38.5 31s32.334 14.667 56.001 24s40.167 16.333 49.5 21c-10 5.33301 -26.667 12.833 -50 22.5s-41.833 17.834 -55.5 24.501s-26.5 17.167 -38.5 31.5s-18 30.5 -18 48.5c0 31.333 9.66699 59 29 83
s44 36 74 36c10.667 0 22.334 -2.83301 35.001 -8.5s23.334 -11.5 32.001 -17.5l39.5 -28.5l40.5 -29.5c-1.33301 10.667 -4.33301 31.834 -9 63.501s-7 53.5 -7 65.5c0 32 9.83301 55.667 29.5 71s44.5 23 74.5 23s55 -7.66699 75 -23s30 -39 30 -71
c0 -12 -2.5 -33.667 -7.5 -65s-8.16699 -52.666 -9.5 -63.999l38.5 29.5c17.667 13.667 30.834 23.334 39.501 29.001s19.334 11.334 32.001 17.001s24.667 8.5 36 8.5c29.333 0 54.333 -12.167 75 -36.5s31 -51.833 31 -82.5c0 -18 -6 -34.167 -18 -48.5
s-24.833 -24.833 -38.5 -31.5s-32.5 -14.834 -56.5 -24.501s-41 -17.167 -51 -22.5c9.33301 -4.66699 22.833 -10.334 40.5 -17.001s32.667 -12.667 45 -18s25 -12 38 -20s23 -17.833 30 -29.5s10.5 -24.834 10.5 -39.501c0 -30.667 -10.333 -58.5 -31 -83.5
s-45.667 -37.5 -75 -37.5c-11.333 0 -23.333 2.83301 -36 8.5s-23.5 11.667 -32.5 18s-21.833 16.166 -38.5 29.499s-29.667 23.333 -39 30c1.33301 -11.333 4.5 -32.666 9.5 -63.999s7.5 -53 7.5 -65c0 -32 -10 -55.833 -30 -71.5s-45 -23.5 -75 -23.5
s-54.833 7.83301 -74.5 23.5s-29.5 39.5 -29.5 71.5c0 12.667 2.33301 34.667 7 66s7.66699 52.333 9 63l-40.5 -30l-39.5 -29c-9.33301 -6.66699 -20.166 -12.834 -32.499 -18.501s-23.833 -8.5 -34.5 -8.5c-30 0 -54.667 12.333 -74 37s-29 52.667 -29 84z" />
    <glyph glyph-name="plus" unicode="+" horiz-adv-x="1228" 
d="M72 518c0 37.333 11 67.166 33 89.499s52 33.5 90 33.5h297v297c0 37.333 10.833 67.166 32.5 89.499s51.5 33.5 89.5 33.5s68 -11.167 90 -33.5s33 -52.166 33 -89.499v-297h297c38 0 68 -11.167 90 -33.5s33 -52.166 33 -89.499s-11 -67.166 -33 -89.499
s-52 -33.5 -90 -33.5h-297v-297c0 -37.333 -11 -67.166 -33 -89.499s-52 -33.5 -90 -33.5s-67.833 11.167 -89.5 33.5s-32.5 52.166 -32.5 89.499v297h-297c-38 0 -68 11.167 -90 33.5s-33 52.166 -33 89.499z" />
    <glyph glyph-name="comma" unicode="," horiz-adv-x="548" 
d="M-20 -139c0 24 8 51.333 24 82l170 307c12.667 21.333 30.834 38.166 54.501 50.499s45.167 18.5 64.5 18.5c37.333 0 70.166 -13.333 98.499 -40s42.5 -58.334 42.5 -95.001c0 -24 -8.66699 -51.333 -26 -82l-172 -307c-12.667 -21.333 -30.667 -38.166 -54 -50.499
s-44.333 -18.5 -63 -18.5c-37.333 0 -69.833 13.333 -97.5 40s-41.5 58.334 -41.5 95.001z" />
    <glyph glyph-name="hyphen" unicode="-" horiz-adv-x="796" 
d="M63 592c0 38.667 10.333 70.167 31 94.5s49.334 36.5 86.001 36.5h436c36.667 0 65.334 -12.167 86.001 -36.5s31 -55.833 31 -94.5c0 -36.667 -10.333 -67 -31 -91s-49.334 -36 -86.001 -36h-436c-36.667 0 -65.334 12 -86.001 36s-31 54.333 -31 91z" />
    <glyph glyph-name="period" unicode="." horiz-adv-x="548" 
d="M115 135c0 44 15.5 81.667 46.5 113s68.5 47 112.5 47s81.667 -15.667 113 -47s47 -69 47 -113s-15.667 -81.667 -47 -113s-69 -47 -113 -47s-81.5 15.667 -112.5 47s-46.5 69 -46.5 113z" />
    <glyph glyph-name="slash" unicode="/" horiz-adv-x="833" 
d="M16 88c0 7.33301 6.33203 26.333 18.999 57l547 1262c20 50.667 58 76 114 76c34 0 62.667 -11 86 -33s35 -48.667 35 -80c0 -9.33301 -6 -28.333 -18 -57l-545 -1262c-11.333 -24.667 -25.666 -43.5 -42.999 -56.5s-41.333 -19.5 -72 -19.5c-34 0 -63 11 -87 33
s-36 48.667 -36 80z" />
    <glyph glyph-name="zero" unicode="0" 
d="M45 729c0 70.667 5.33301 139.667 16 207s29.334 134.666 56.001 201.999s60.167 126 100.5 176s92.333 90.667 156 122s135.167 47 214.5 47s150.833 -15.667 214.5 -47s115.5 -72 155.5 -122s73.333 -108.667 100 -176s45.334 -134.666 56.001 -201.999
s16 -136.333 16 -207s-5.33301 -139.667 -16 -207s-29.334 -134.666 -56.001 -201.999s-60 -126 -100 -176s-91.833 -90.667 -155.5 -122s-135.167 -47 -214.5 -47s-150.833 15.667 -214.5 47s-115.667 72 -156 122s-73.833 108.667 -100.5 176
s-45.334 134.666 -56.001 201.999s-16 136.333 -16 207zM365 729c0 -25.333 0.5 -49.5 1.5 -72.5s3.16699 -51.167 6.5 -84.5s8 -63.666 14 -90.999s14.667 -55.666 26 -84.999s24.5 -54 39.5 -74s34.167 -36.333 57.5 -49s49.333 -19 78 -19s54.667 6.33301 78 19
s42.5 29 57.5 49s28.167 44.667 39.5 74s20 57.666 26 84.999s10.667 57.666 14 90.999s5.5 61.5 6.5 84.5s1.5 47.167 1.5 72.5c0 316.667 -74.333 475 -223 475s-223 -158.333 -223 -475z" />
    <glyph glyph-name="one" unicode="1" horiz-adv-x="757" 
d="M51 1317c0 38 12.666 70.999 37.999 98.999s59 42 101 42h291c42.667 0 76.167 -13.5 100.5 -40.5s36.5 -61.833 36.5 -104.5v-1166c0 -50 -14.167 -89 -42.5 -117s-65.166 -42 -110.499 -42s-82.333 14 -111 42s-43 67 -43 117v1029h-121
c-46 0 -80.667 13.833 -104 41.5s-35 60.834 -35 99.501z" />
    <glyph glyph-name="two" unicode="2" 
d="M92 135c0 30.667 15.667 65.6641 47 104.997l163.5 187.5l193 223c56.333 67.667 107.5 134.834 153.5 201.501c48 68.667 72 132 72 190c0 42.667 -14.333 79.667 -43 111s-63.667 47 -105 47c-32 0 -59.167 -6.16699 -81.5 -18.5s-39.333 -28.166 -51 -47.499
s-21.667 -40.833 -30 -64.5s-16 -47.334 -23 -71.001s-15.333 -45.167 -25 -64.5s-23.5 -35.166 -41.5 -47.499s-40.333 -18.5 -67 -18.5c-46.667 0 -83.334 14.5 -110.001 43.5s-40 64.5 -40 106.5c0 62.667 13.333 123 40 181s62 107.5 106 148.5s95.5 73.833 154.5 98.5
s119.5 37 181.5 37c84 0 160.333 -17.167 229 -51.5s123.334 -84.166 164.001 -149.499s61 -140.333 61 -225c0 -45.333 -8.33301 -93 -25 -143s-37.5 -96.167 -62.5 -138.5s-56.167 -88.166 -93.5 -137.499s-72.166 -92.333 -104.499 -129l-110 -125.5
c-41 -47 -72.833 -84.833 -95.5 -113.5h375c47.333 0 85.666 -11.333 114.999 -34s44 -56.334 44 -101.001s-14 -78.334 -42 -101.001s-63 -34 -105 -34h-684c-48 0 -86.667 11.333 -116 34s-44 56.334 -44 101.001z" />
    <glyph glyph-name="three" unicode="3" 
d="M66 360c0 38.667 16.5039 71.332 49.5039 97.999s68.833 40 107.5 40c21.333 0 40.5 -6 57.5 -18s30.5 -26.833 40.5 -44.5s22.167 -36.834 36.5 -57.501s29 -39.834 44 -57.501s36.333 -32.5 64 -44.5s59.5 -18 95.5 -18c53.333 0 98.833 18.333 136.5 55
s56.5 82 56.5 136c0 38.667 -6.33301 70.167 -19 94.5s-29.334 41.5 -50.001 51.5s-43.334 17.5 -68.001 22.5s-49.334 9.33301 -74.001 13s-47.334 9.16699 -68.001 16.5s-37.334 20.833 -50.001 40.5s-19 45.834 -19 78.501c0 39.333 10 69.5 30 90.5
s44.167 35.167 72.5 42.5l85 22.5c28.333 7.66699 52.5 22.834 72.5 45.501s30 54.667 30 96c0 40 -13.167 72.833 -39.5 98.5s-62.166 38.5 -107.499 38.5c-30.667 0 -57.667 -5 -81 -15s-41.5 -22.333 -54.5 -37s-26 -30.834 -39 -48.501l-34.5 -48.5
c-10 -14.667 -23.5 -27 -40.5 -37s-36.167 -15 -57.5 -15c-40 0 -72.167 15.167 -96.5 45.5s-36.5 65.833 -36.5 106.5c0 52.667 21.167 104.667 63.5 156s98.333 93.5 168 126.5s141.167 49.5 214.5 49.5c56.667 0 109.334 -7.83301 158.001 -23.5
s89.667 -36.334 123 -62.001s62 -55 86 -88s41.5 -66.667 52.5 -101s16.5 -67.833 16.5 -100.5c0 -137.333 -56 -241.666 -168 -312.999c75.333 -34.667 135.833 -84.667 181.5 -150s68.5 -137.666 68.5 -216.999c0 -124 -50 -230.5 -150 -319.5s-222 -133.5 -366 -133.5
c-58 0 -113.5 8.16699 -166.5 24.5s-98.833 37.833 -137.5 64.5s-72.334 56.834 -101.001 90.501s-50.167 68.167 -64.5 103.5s-21.5 69.333 -21.5 102z" />
    <glyph glyph-name="four" unicode="4" 
d="M33 442c0 28.667 9.33203 58.666 27.999 89.999l459 832c22.667 42 50.167 72.333 82.5 91s74.5 28 126.5 28c66 0 121.833 -22 167.5 -66s68.5 -109.333 68.5 -196v-629h34c40.667 0 74.834 -12.5 102.501 -37.5s41.5 -57.5 41.5 -97.5s-13.833 -72.5 -41.5 -97.5
s-61.834 -37.5 -102.501 -37.5h-34v-175c0 -54.667 -11.667 -94.834 -35 -120.501s-61 -38.5 -113 -38.5c-51.333 0 -88.666 12.833 -111.999 38.5s-35 65.834 -35 120.501v175h-494c-46 0 -81.333 12.333 -106 37s-37 52.334 -37 83.001zM388.999 591.999h281v571h-4z" />
    <glyph glyph-name="five" unicode="5" 
d="M66 250c0 38 13.6699 70.665 41.0029 97.998s60 41 98 41c18 0 39.667 -6.83301 65 -20.5s49.5 -28.667 72.5 -45s51 -31.333 84 -45s64.833 -20.5 95.5 -20.5c45.333 0 85 13.667 119 41s58.833 60.833 74.5 100.5s23.5 81.834 23.5 126.501
c0 62.667 -17.167 112.834 -51.5 150.501s-82.5 56.5 -144.5 56.5c-40.667 0 -82.834 -11.167 -126.501 -33.5s-82.167 -33.5 -115.5 -33.5c-36.667 0 -66 10.667 -88 32s-33 42.666 -33 63.999l6 69l52 433c8.66699 77.333 24.5 129 47.5 155s60.167 39 111.5 39h494
c46 0 82.333 -12 109 -36s40 -55 40 -93c0 -26.667 -3.83301 -50 -11.5 -70s-16.834 -35 -27.501 -45s-23.334 -18.167 -38.001 -24.5s-26.834 -10.166 -36.501 -11.499s-19.5 -2 -29.5 -2h-385l-31 -218c68.667 14 120 21 154 21c122 0 223.167 -42.167 303.5 -126.5
s120.5 -187.5 120.5 -309.5c0 -174.667 -47 -313 -141 -415s-228 -153 -402 -153c-38.667 0 -82.667 6.16699 -132 18.5s-98.166 29.333 -146.499 51s-89 50.667 -122 87s-49.5 75.833 -49.5 118.5z" />
    <glyph glyph-name="six" unicode="6" 
d="M74 483c0 73.333 17.168 156 51.501 248s78.166 180.333 131.499 265s109.166 163.667 167.499 237s114.833 135.333 169.5 186c14 14 35.667 30.333 65 49c16.667 10 37.334 15 62.001 15c30 0 61.667 -16.167 95 -48.5s50 -66.166 50 -101.499
c0 -20.667 -14.333 -48.667 -43 -84c-18.667 -23.333 -63.834 -74.5 -135.501 -153.5s-120.5 -136.833 -146.5 -173.5l4 -4c36.667 16 79.667 24 129 24c80 0 153 -21.333 219 -64s117.333 -99.167 154 -169.5s55 -145.5 55 -225.5c0 -66 -12.667 -129.833 -38 -191.5
s-60.166 -115.834 -104.499 -162.501s-98.833 -84 -163.5 -112s-134 -42 -208 -42c-76.667 0 -147.5 13.667 -212.5 41s-119.333 64.333 -163 111s-77.667 100.667 -102 162s-36.5 126 -36.5 194zM393.001 483c0 -60 17.668 -110.503 53.001 -151.503
s82.666 -61.5 141.999 -61.5c57.333 0 104 20.333 140 61s54 91.334 54 152.001c0 58.667 -17 108.834 -51 150.501s-81.667 62.5 -143 62.5c-58 0 -105 -20.167 -141 -60.5s-54 -91.166 -54 -152.499z" />
    <glyph glyph-name="seven" unicode="7" horiz-adv-x="1101" 
d="M31 1317c0 40.667 11.999 74.333 35.999 101s62.333 40 115 40h742c46.667 0 82.834 -16.167 108.501 -48.5s38.5 -65.166 38.5 -98.499c0 -26 -15.667 -71 -47 -135l-508 -1033c-31.333 -63.333 -57 -105 -77 -125s-51.667 -30 -95 -30c-52 0 -93.333 15.667 -124 47
s-46 64 -46 98c0 19.333 7 43.333 21 72l512 971h-525c-51.333 0 -89.333 13.667 -114 41s-37 60.666 -37 99.999z" />
    <glyph glyph-name="eight" unicode="8" 
d="M82 442c0 79.333 19.667 149.168 59 209.501s92.666 108.833 159.999 145.5c-104 76 -156 173.667 -156 293c0 117.333 42.5 212.166 127.5 284.499s190.167 108.5 315.5 108.5c80 0 153.5 -15.667 220.5 -47s121 -77.333 162 -138s61.5 -130 61.5 -208
c0 -58.667 -14 -114.334 -42 -167.001s-66.667 -94.667 -116 -126c70 -35.333 124.167 -83.666 162.5 -144.999s57.5 -131.333 57.5 -210c0 -92 -23.167 -174 -69.5 -246s-107.666 -126.833 -183.999 -164.5s-160.5 -56.5 -252.5 -56.5c-143.333 0 -263.5 44 -360.5 132
s-145.5 199.667 -145.5 335zM401 463.002c0 -56 16.334 -104.167 49.001 -144.5s78.667 -60.5 138 -60.5c56 0 101 20.333 135 61s51 88.667 51 144c0 64 -16.833 114.167 -50.5 150.5s-78.834 54.5 -135.501 54.5c-58 0 -103.667 -19.333 -137 -58s-50 -87.667 -50 -147z
M440.001 1057c0 -46.667 13.167 -84.334 39.5 -113.001s62.5 -43 108.5 -43s82.333 14.333 109 43s40 66.334 40 113.001c0 45.333 -13.167 82.5 -39.5 111.5s-62.833 43.5 -109.5 43.5s-83 -14.5 -109 -43.5s-39 -66.167 -39 -111.5z" />
    <glyph glyph-name="nine" unicode="9" 
d="M74 975c0 66 12.666 129.834 37.999 191.501s60.166 115.834 104.499 162.501s98.833 84 163.5 112s134 42 208 42c76.667 0 147.5 -13.667 212.5 -41s119.333 -64.333 163 -111s77.667 -100.667 102 -162s36.5 -126 36.5 -194c0 -73.333 -17.167 -156 -51.5 -248
s-78.166 -180.333 -131.499 -265s-109.166 -163.667 -167.499 -237s-114.833 -135.333 -169.5 -186c-12.667 -12.667 -34.667 -29 -66 -49c-16.667 -10 -37 -15 -61 -15c-30 0 -61.833 16.167 -95.5 48.5s-50.5 66.166 -50.5 101.499c0 20.667 14.333 48.667 43 84
c18.667 23.333 64 74.666 136 153.999s121 137.333 147 174l-4 4c-38.667 -16.667 -81.667 -25 -129 -25c-80 0 -153 21.333 -219 64s-117.333 99.167 -154 169.5s-55 145.5 -55 225.5zM392.999 975.001c0 -58.667 17.167 -108.831 51.5 -150.498
s82.166 -62.5 143.499 -62.5c58 0 104.833 20.167 140.5 60.5s53.5 91.166 53.5 152.499c0 60 -17.5 110.5 -52.5 151.5s-82.167 61.5 -141.5 61.5c-57.333 0 -104.166 -20.333 -140.499 -61s-54.5 -91.334 -54.5 -152.001z" />
    <glyph glyph-name="colon" unicode=":" horiz-adv-x="548" 
d="M115 135c0 44 15.5 81.667 46.5 113s68.5 47 112.5 47s81.667 -15.667 113 -47s47 -69 47 -113s-15.667 -81.667 -47 -113s-69 -47 -113 -47s-81.5 15.667 -112.5 47s-46.5 69 -46.5 113zM115 793c0 44 15.5 81.5 46.5 112.5s68.5 46.5 112.5 46.5
s81.667 -15.5 113 -46.5s47 -68.5 47 -112.5s-15.667 -81.667 -47 -113s-69 -47 -113 -47s-81.5 15.667 -112.5 47s-46.5 69 -46.5 113z" />
    <glyph glyph-name="semicolon" unicode=";" horiz-adv-x="548" 
d="M-20 -139c0 24 8 51.333 24 82l170 307c12.667 21.333 30.834 38.166 54.501 50.499s45.167 18.5 64.5 18.5c37.333 0 70.166 -13.333 98.499 -40s42.5 -58.334 42.5 -95.001c0 -24 -8.66699 -51.333 -26 -82l-172 -307c-12.667 -21.333 -30.667 -38.166 -54 -50.499
s-44.333 -18.5 -63 -18.5c-37.333 0 -69.833 13.333 -97.5 40s-41.5 58.334 -41.5 95.001zM115 793c0 44 15.5 81.5 46.5 112.5s68.5 46.5 112.5 46.5s81.667 -15.5 113 -46.5s47 -68.5 47 -112.5s-15.667 -81.667 -47 -113s-69 -47 -113 -47s-81.5 15.667 -112.5 47
s-46.5 69 -46.5 113z" />
    <glyph glyph-name="less" unicode="&#x3c;" horiz-adv-x="1228" 
d="M72 518c0 54.667 25 93.6689 75 117.002l809 371c44 20 78.333 30 103 30c27.333 0 50.5 -11.333 69.5 -34s28.5 -54.334 28.5 -95.001c0 -48 -24.667 -82.667 -74 -104l-682 -285l682 -285c49.333 -21.333 74 -56 74 -104c0 -40.667 -9.5 -72.334 -28.5 -95.001
s-42.167 -34 -69.5 -34c-26.667 0 -61 9.66699 -103 29l-809 372c-50 23.333 -75 62.333 -75 117z" />
    <glyph glyph-name="equal" unicode="=" horiz-adv-x="1228" 
d="M72 289c0 37.333 11 67.166 33 89.499s52 33.5 90 33.5h839c38 0 68 -11.167 90 -33.5s33 -52.166 33 -89.499s-11 -67.166 -33 -89.499s-52 -33.5 -90 -33.5h-839c-38 0 -68 11.167 -90 33.5s-33 52.166 -33 89.499zM72 748c0 37.333 11 67 33 89s52 33 90 33h839
c38 0 68 -11 90 -33s33 -51.667 33 -89s-11 -67.166 -33 -89.499s-52 -33.5 -90 -33.5h-839c-38 0 -68 11.167 -90 33.5s-33 52.166 -33 89.499z" />
    <glyph glyph-name="greater" unicode="&#x3e;" horiz-adv-x="1228" 
d="M72 129c0 48 24.333 82.665 73 103.998l682 285l-682 285c-48.667 21.333 -73 56 -73 104c0 40.667 9.5 72.334 28.5 95.001s42.167 34 69.5 34c24 0 58 -10 102 -30l809 -371c50.667 -23.333 76 -62.333 76 -117s-25.333 -93.667 -76 -117l-809 -372
c-42 -19.333 -76 -29 -102 -29c-27.333 0 -50.5 11.333 -69.5 34s-28.5 54.334 -28.5 95.001z" />
    <glyph glyph-name="question" unicode="?" horiz-adv-x="985" 
d="M6 1145c0 51.333 15.0039 99.001 45.0039 143.001s68 79.833 114 107.5s95 49.167 147 64.5s101.667 23 149 23c88.667 0 169.834 -17.167 243.501 -51.5s133 -85.333 178 -153s67.5 -145.834 67.5 -234.501c0 -109.333 -31.5 -198.5 -94.5 -267.5
s-149.5 -117.5 -259.5 -145.5v-74c0 -41.333 -13.833 -75.166 -41.5 -101.499s-62.834 -39.5 -105.501 -39.5c-45.333 0 -81.333 13 -108 39s-40 60 -40 102v205c0 10 1.33301 19.167 4 27.5s7.66699 15.833 15 22.5s13.666 12.167 18.999 16.5
s14.666 8.66602 27.999 12.999l29.5 9.5c6.33301 2 18.166 5.16699 35.499 9.5s29 7.5 35 9.5c24.667 6.66699 45.167 13.5 61.5 20.5s33.166 17 50.499 30s30.333 29.667 39 50s13 44.833 13 73.5c0 44 -17.167 81 -51.5 111s-73.833 45 -118.5 45c-32 0 -61 -7 -87 -21
s-48.167 -30.833 -66.5 -50.5s-35.833 -39.5 -52.5 -59.5s-35.5 -37 -56.5 -51s-43.5 -21 -67.5 -21c-37.333 0 -67.5 13.5 -90.5 40.5s-34.5 62.833 -34.5 107.5zM289.004 135.001c0 44 15.667 81.667 47 113s69 47 113 47s81.5 -15.667 112.5 -47s46.5 -69 46.5 -113
s-15.5 -81.667 -46.5 -113s-68.5 -47 -112.5 -47s-81.667 15.667 -113 47s-47 69 -47 113z" />
    <glyph glyph-name="at" unicode="@" horiz-adv-x="1638" 
d="M66 729c0 102 19.8311 199.5 59.498 292.5s93.167 173.167 160.5 240.5s147.5 121 240.5 161s190.5 60 292.5 60c76 0 151.167 -10.5 225.5 -31.5s143 -51.5 206 -91.5s118.667 -86.5 167 -139.5s86.333 -113.667 114 -182s41.5 -139.5 41.5 -213.5
c0 -54.667 -8 -106 -24 -154s-36.833 -89.167 -62.5 -123.5s-55.334 -65.5 -89.001 -93.5s-67.5 -51 -101.5 -69s-67.667 -33 -101 -45s-62.333 -20.5 -87 -25.5s-45 -7.5 -61 -7.5c-48.667 0 -84.5 9.33301 -107.5 28s-34.5 43 -34.5 73h-4
c-26.667 -31.333 -59 -56 -97 -74s-77.333 -27 -118 -27c-84 0 -155.5 36.667 -214.5 110s-88.5 155.666 -88.5 246.999c0 78.667 16 152.334 48 221.001s78.833 125 140.5 169s131.834 66 210.501 66c107.333 0 187.333 -41 240 -123h4v25c0 65.333 38.333 98 115 98
c26.667 0 49 -5 67 -15s27 -24 27 -42c0 -17.333 -2.66699 -39.333 -8 -66l-82 -372c-5.33301 -21.333 -8 -44 -8 -68c0 -28.667 15.667 -43 47 -43c16.667 0 35.834 6.16699 57.501 18.5s43.834 30.166 66.501 53.499s41.834 56 57.501 98s23.5 89 23.5 141
c0 94 -27 177.667 -81 251s-124 128.666 -210 165.999s-179 56 -279 56c-103.333 0 -198.666 -25.333 -285.999 -76s-156.333 -119.667 -207 -207s-76 -182.666 -76 -285.999s25.333 -198.666 76 -285.999s119.667 -156.333 207 -207s182.666 -76 285.999 -76
c164 0 306 32 426 96c8 4 29 19.667 63 47s58.667 41 74 41c20.667 0 38.5 -5.66699 53.5 -17s22.5 -31 22.5 -59c0 -18 -4.16699 -34.667 -12.5 -50s-22.5 -35.333 -42.5 -60c-134.667 -122 -329.334 -183 -584.001 -183c-102 0 -199.5 20 -292.5 60
s-173.167 93.667 -240.5 161s-120.833 147.5 -160.5 240.5s-59.5 190.5 -59.5 292.5zM591.998 692c0 -47.333 12.5 -88.501 37.5 -123.501s60.167 -52.5 105.5 -52.5c58.667 0 107.5 22 146.5 66s58.5 95.667 58.5 155c0 48 -14.167 89 -42.5 123s-66.166 51 -113.499 51
c-52.667 0 -97.834 -23.167 -135.501 -69.5s-56.5 -96.166 -56.5 -149.499z" />
    <glyph glyph-name="A" unicode="A" horiz-adv-x="1290" 
d="M4 131c0 22 4.66699 44.665 14 67.998l412 1114c18.667 49.333 47.334 90 86.001 122s83 48 133 48c52.667 0 97.667 -15.5 135 -46.5s65.333 -72.167 84 -123.5l402 -1114c10.667 -29.333 16 -54.666 16 -75.999c0 -39.333 -13.833 -71.666 -41.5 -96.999
s-60.834 -38 -99.501 -38c-76.667 0 -126.667 35.333 -150 106l-61 193h-569l-62 -191c-22.667 -72 -71.667 -108 -147 -108c-41.333 0 -77 13.667 -107 41s-45 61.333 -45 102zM453 568.998h389l-191 594h-4z" />
    <glyph glyph-name="B" unicode="B" 
d="M92 156v1149c0 48 15 85.5 45 112.5s69 40.5 117 40.5h393c108.667 0 200 -33.333 274 -100s111 -153.334 111 -260.001c0 -142 -63.333 -242.333 -190 -301v-4c88 -12.667 161.833 -52 221.5 -118s89.5 -143 89.5 -231c0 -141.333 -43 -250.666 -129 -327.999
s-201.333 -116 -346 -116h-422c-48 0 -87.333 14.167 -118 42.5s-46 66.166 -46 113.499zM399 270.001h242c57.333 0 103.833 15.833 139.5 47.5s53.5 75.5 53.5 131.5c0 49.333 -18.833 88.5 -56.5 117.5s-91.5 43.5 -161.5 43.5h-217v-340zM399 881.001h160
c50.667 0 91 14.167 121 42.5s45 67.833 45 118.5c0 46 -15.833 81.833 -47.5 107.5s-71.167 38.5 -118.5 38.5h-160v-307z" />
    <glyph glyph-name="C" unicode="C" horiz-adv-x="1251" 
d="M35 729c0 141.333 29.332 269.17 87.999 383.503s141.834 204.666 249.501 270.999s229.834 99.5 366.501 99.5c42.667 0 87.167 -3.83301 133.5 -11.5s93.666 -19.5 141.999 -35.5s88 -40 119 -72s46.5 -69 46.5 -111c0 -38 -11.833 -70.333 -35.5 -97
s-54.167 -40 -91.5 -40c-22 0 -47.333 6 -76 18s-63.167 24 -103.5 36s-85.166 18 -134.499 18c-62 0 -117.667 -12.5 -167 -37.5s-89.666 -58.833 -120.999 -101.5s-55.333 -91.834 -72 -147.501s-25 -115.167 -25 -178.5c0 -62 8.33301 -120 25 -174
s40.834 -101.833 72.501 -143.5s72.167 -74.667 121.5 -99s104.666 -36.5 165.999 -36.5c49.333 0 95.166 7.16699 137.499 21.5s78.833 28.666 109.5 42.999s57 21.5 79 21.5c41.333 0 74.166 -15.833 98.499 -47.5s36.5 -62.167 36.5 -91.5
c0 -37.333 -11.333 -70.833 -34 -100.5s-50.667 -53 -84 -70s-71.833 -31.167 -115.5 -42.5s-84 -19 -121 -23s-72.5 -6 -106.5 -6c-136 0 -257.833 33.333 -365.5 100s-191 157.167 -250 271.5s-88.5 241.833 -88.5 382.5z" />
    <glyph glyph-name="D" unicode="D" horiz-adv-x="1366" 
d="M92 154l-0.000976562 1146c0 46.667 14.833 84.667 44.5 114s67.5 44 113.5 44h340c226.667 0 403.5 -67.333 530.5 -202s190.5 -317 190.5 -547c0 -214.667 -64 -386.5 -192 -515.5s-297.667 -193.5 -509 -193.5h-356c-41.333 0 -78.666 12.5 -111.999 37.5
s-50 63.833 -50 116.5zM398.999 283l206.998 -0.000976562c64 0 121 11.333 171 34s90.333 54 121 94s53.834 86.333 69.501 139s23.5 110.334 23.5 173.001c0 66.667 -8 127.167 -24 181.5s-40 102 -72 143s-74.167 72.667 -126.5 95s-113.166 33.5 -182.499 33.5h-187
v-893z" />
    <glyph glyph-name="E" unicode="E" horiz-adv-x="948" 
d="M92 154l0.00195312 1126c0 53.333 13.5 96.333 40.5 129s66.833 49 119.5 49h508c46 0 81.667 -13.833 107 -41.5s38 -60.834 38 -99.501c0 -38 -12.833 -71 -38.5 -99s-61.167 -42 -106.5 -42h-361v-299h336c47.333 0 84.166 -14 110.499 -42s39.5 -61.333 39.5 -100
c0 -38 -13.333 -71 -40 -99s-63.334 -42 -110.001 -42h-336v-311h379c46 0 81.833 -14 107.5 -42s38.5 -61.333 38.5 -100c0 -38 -13 -71 -39 -99s-61.667 -42 -107 -42h-528c-45.333 -0 -83 14.333 -113 43s-45 65.667 -45 111z" />
    <glyph glyph-name="F" unicode="F" horiz-adv-x="909" 
d="M92 147l-0.000976562 1151c0 44 14.5 81.667 43.5 113s67.833 47 116.5 47h524c42.667 0 76.167 -13.833 100.5 -41.5s36.5 -60.834 36.5 -99.501c0 -38 -12 -71 -36 -99s-57.667 -42 -101 -42h-377v-299h318c46 0 82 -13.833 108 -41.5s39 -60.5 39 -98.5
c0 -38.667 -13 -72.167 -39 -100.5s-62 -42.5 -108 -42.5h-318v-447c0 -50 -14.167 -89 -42.5 -117s-65.166 -42 -110.499 -42s-82.333 14 -111 42s-43 67 -43 117z" />
    <glyph glyph-name="G" unicode="G" horiz-adv-x="1441" 
d="M35 729c0 141.333 29.3311 269.168 87.998 383.501s141.834 204.666 249.501 270.999s229.834 99.5 366.501 99.5c100 0 193.833 -14.167 281.5 -42.5s156.667 -64.666 207 -108.999s75.5 -90.166 75.5 -137.499c0 -43.333 -12 -78 -36 -104s-54.333 -39 -91 -39
c-25.333 0 -49.333 5.16699 -72 15.5s-44.5 22.833 -65.5 37.5s-44 29.167 -69 43.5s-57.333 26.666 -97 36.999s-84.167 15.5 -133.5 15.5c-62 0 -117.833 -12.833 -167.5 -38.5s-90.167 -60.5 -121.5 -104.5s-55.166 -94 -71.499 -150s-24.5 -115.333 -24.5 -178
c0 -86 13.667 -163.833 41 -233.5s70.666 -126.667 129.999 -171s130.666 -66.5 213.999 -66.5c42.667 0 83.834 6.16699 123.501 18.5s76.667 30.833 111 55.5s61.833 58.5 82.5 101.5s31 92.5 31 148.5h-208c-42 0 -76.5 13.333 -103.5 40s-40.5 61 -40.5 103
s13.833 75.667 41.5 101s61.834 38 102.501 38h348c63.333 0 109.166 -16 137.499 -48s42.5 -81.333 42.5 -148c0 -131.333 -26.833 -249.333 -80.5 -354s-131.5 -187.334 -233.5 -248.001s-220 -91 -354 -91c-136 0 -257.833 33.333 -365.5 100s-191 157.167 -250 271.5
s-88.5 241.833 -88.5 382.5z" />
    <glyph glyph-name="H" unicode="H" horiz-adv-x="1441" 
d="M92 147v1164c0 50 14.333 89 43 117s65.667 42 111 42s82.166 -14 110.499 -42s42.5 -67 42.5 -117v-434h643v434c0 50 14.333 89 43 117s65.667 42 111 42s82.333 -14 111 -42s43 -67 43 -117v-1164c0 -50 -14.333 -89 -43 -117s-65.667 -42 -111 -42
s-82.333 14 -111 42s-43 67 -43 117v447h-643v-447c0 -50 -14.167 -89 -42.5 -117s-65.166 -42 -110.499 -42s-82.333 14 -111 42s-43 67 -43 117z" />
    <glyph glyph-name="I" unicode="I" horiz-adv-x="491" 
d="M92 147v1164c0 50 14.333 89 43 117s65.667 42 111 42s82.166 -14 110.499 -42s42.5 -67 42.5 -117v-1164c0 -50 -14.167 -89 -42.5 -117s-65.166 -42 -110.499 -42s-82.333 14 -111 42s-43 67 -43 117z" />
    <glyph glyph-name="J" unicode="J" horiz-adv-x="833" 
d="M-29 209c0 30 11.167 58.334 33.5 85.001s49.5 40 81.5 40c26.667 0 66.5 -12.667 119.5 -38s95.167 -38 126.5 -38c22 0 40.667 4.16699 56 12.5s26.666 17.666 33.999 27.999s13 24.833 17 43.5s6.16699 33.167 6.5 43.5s0.5 25.166 0.5 44.499v881
c0 50 14.333 89 43 117s65.667 42 111 42s82.333 -14 111 -42s43 -67 43 -117v-901c0 -66 -8.16699 -125 -24.5 -177s-37.833 -93.833 -64.5 -125.5s-58.167 -57.667 -94.5 -78s-72.5 -34.5 -108.5 -42.5s-74 -12 -114 -12c-30 0 -61.167 2.33301 -93.5 7
s-65.666 12.834 -99.999 24.501s-64.833 26 -91.5 43s-48.667 39.333 -66 67s-26 58.5 -26 92.5z" />
    <glyph glyph-name="K" unicode="K" horiz-adv-x="1251" 
d="M92 135l-0.00292969 1184c0 42.667 14.333 78.5 43 107.5s65.667 43.5 111 43.5c44.667 0 81.334 -13.667 110.001 -41s43 -64 43 -110v-442l504 536c34.667 38 74.334 57 119.001 57c40.667 0 76.167 -13.833 106.5 -41.5s45.5 -62.834 45.5 -105.501
c0 -25.333 -7.66699 -49.833 -23 -73.5s-41.333 -53.834 -78 -90.501l-387 -381l473 -493c28.667 -29.333 50.167 -55.833 64.5 -79.5s21.5 -49.167 21.5 -76.5c0 -45.333 -15.333 -80.166 -46 -104.499s-68.667 -36.5 -114 -36.5c-27.333 0 -52 7.33301 -74 22
s-49 39.334 -81 74.001l-531 573v-522c0 -40.667 -14.167 -75.334 -42.5 -104.001s-65.166 -43 -110.499 -43c-44.667 0 -81.5 13.5 -110.5 40.5s-43.5 62.5 -43.5 106.5z" />
    <glyph glyph-name="L" unicode="L" horiz-adv-x="872" 
d="M92 168l0.00195312 1143c0 50 14.333 89 43 117s65.667 42 111 42s82.166 -14 110.499 -42s42.5 -67 42.5 -117v-1028h365c49.333 0 86.666 -15 111.999 -45c24 -28 35.667 -59.667 35 -95v-8c-1.33301 -36 -15.5 -67.5 -42.5 -94.5s-61.833 -40.5 -104.5 -40.5h-512
c-49.333 0 -88.333 15.167 -117 45.5s-43 71.166 -43 122.499z" />
    <glyph glyph-name="M" unicode="M" horiz-adv-x="1781" 
d="M49 135c0 15.333 0.666016 27 1.99902 35l191 1143c6.66699 40 28.834 76.167 66.501 108.5s82.167 48.5 133.5 48.5c48.667 0 92 -14.667 130 -44s63 -63.666 75 -102.999l242 -811h4l242 811c12 39.333 36.833 73.666 74.5 102.999s80.834 44 129.501 44
c51.333 0 96 -16.167 134 -48.5s60.333 -68.5 67 -108.5l191 -1143c1.33301 -8 2 -19.667 2 -35c0 -44 -14.167 -79.5 -42.5 -106.5s-63.5 -40.5 -105.5 -40.5c-50.667 0 -88.167 11.5 -112.5 34.5s-40.166 59.167 -47.499 108.5l-120 834h-5l-245 -859
c-22.667 -78.667 -77.334 -118 -164.001 -118s-141.334 39.333 -164.001 118l-246 859h-4l-121 -834c-7.33301 -49.333 -23 -85.5 -47 -108.5s-61.333 -34.5 -112 -34.5c-42 0 -77.167 13.5 -105.5 40.5s-42.5 62.5 -42.5 106.5z" />
    <glyph glyph-name="N" unicode="N" horiz-adv-x="1402" 
d="M80 147l0.00195312 1164c0 50 14.167 89 42.5 117s65.166 42 110.499 42c20 0 43.167 -6.66699 69.5 -20s46.166 -29 59.499 -47l650 -866h4v774c0 50 14.167 89 42.5 117s65.166 42 110.499 42s82.333 -14 111 -42s43 -67 43 -117v-1164c0 -50 -14.333 -89 -43 -117
s-65.667 -42 -111 -42c-20 0 -43 6.66699 -69 20s-46 29 -60 47l-649 856h-4v-764c0 -50 -14.333 -89 -43 -117s-65.667 -42 -111 -42s-82.166 14 -110.499 42s-42.5 67 -42.5 117z" />
    <glyph glyph-name="O" unicode="O" horiz-adv-x="1478" 
d="M35 729c0 141.333 29.3311 269.167 87.998 383.5s141.834 204.666 249.501 270.999s229.834 99.5 366.501 99.5c134.667 0 256 -33.833 364 -101.5s191.833 -158.834 251.5 -273.501s89.5 -241 89.5 -379c0 -105.333 -17.167 -204.166 -51.5 -296.499
s-82 -172.166 -143 -239.499s-135.667 -120.5 -224 -159.5s-183.833 -58.5 -286.5 -58.5c-136 0 -257.833 33.333 -365.5 100s-191 157.167 -250 271.5s-88.5 241.833 -88.5 382.5zM353.998 729.001c0 -86 13.6689 -163.833 41.002 -233.5s70.666 -126.667 129.999 -171
s130.666 -66.5 213.999 -66.5s154.666 22.167 213.999 66.5s102.666 101.333 129.999 171s41 147.5 41 233.5c0 62.667 -8.16699 122 -24.5 178s-40.166 106 -71.499 150s-71.833 78.833 -121.5 104.5s-105.5 38.5 -167.5 38.5s-117.833 -12.833 -167.5 -38.5
s-90.167 -60.5 -121.5 -104.5s-55.166 -94 -71.499 -150s-24.5 -115.333 -24.5 -178z" />
    <glyph glyph-name="P" unicode="P" horiz-adv-x="1138" 
d="M92 147l-0.00195312 1151c0 48.667 14.167 87.5 42.5 116.5s67.5 43.5 117.5 43.5h362c152 0 277.5 -45.167 376.5 -135.5s148.5 -208.166 148.5 -353.499c0 -72.667 -13.5 -139.834 -40.5 -201.501s-63.667 -113 -110 -154s-100.666 -73 -162.999 -96
s-128.5 -34.5 -198.5 -34.5h-228v-336c0 -50 -14.167 -89 -42.5 -117s-65.166 -42 -110.499 -42s-82.333 14 -111 42s-43 67 -43 117zM398.998 754h209c63.333 0 114.333 20.5 153 61.5s58 92.833 58 155.5s-19.333 114.5 -58 155.5s-89.667 61.5 -153 61.5h-209v-434z" />
    <glyph glyph-name="Q" unicode="Q" horiz-adv-x="1478" 
d="M35 729c0 141.333 29.332 269.169 87.999 383.502s141.834 204.666 249.501 270.999s229.834 99.5 366.501 99.5c134.667 0 256 -33.833 364 -101.5s191.833 -158.834 251.5 -273.501s89.5 -241 89.5 -379c0 -184.667 -45.667 -342.334 -137 -473.001l116 -100
c24 -21.333 42 -41 54 -59s18 -40 18 -66c0 -35.333 -14.5 -65.666 -43.5 -90.999s-61.5 -38 -97.5 -38c-40.667 0 -86.334 21.667 -137.001 65l-117 99c-106.667 -60.667 -227 -91 -361 -91c-136 0 -257.833 33.333 -365.5 100s-191 157.167 -250 271.5
s-88.5 241.833 -88.5 382.5zM353.999 729.003c0 -86 13.667 -163.832 41 -233.499s70.666 -126.667 129.999 -171s130.666 -66.5 213.999 -66.5c39.333 0 83 4.66699 131 14l-73 72c-26 22.667 -39 50 -39 82c0 41.333 12.833 76.166 38.5 104.499s59.167 42.5 100.5 42.5
c30 0 56 -8.66699 78 -26l100 -80c32.667 72.667 49 160 49 262c0 62 -8.16699 121 -24.5 177s-40.166 106 -71.499 150s-71.833 79 -121.5 105s-105.5 39 -167.5 39s-117.833 -12.833 -167.5 -38.5s-90.167 -60.5 -121.5 -104.5s-55.166 -94 -71.499 -150
s-24.5 -115.333 -24.5 -178z" />
    <glyph glyph-name="R" unicode="R" horiz-adv-x="1138" 
d="M92 147l-0.00292969 1151c0 49.333 13.667 88.333 41 117s66.333 43 117 43h360c162.667 0 288.334 -38 377.001 -114s133 -192.333 133 -349c0 -107.333 -35.333 -194.333 -106 -261s-161.667 -108.667 -273 -126l349 -372c26.667 -28.667 40 -59 40 -91
c0 -41.333 -14.667 -77.833 -44 -109.5s-65.666 -47.5 -108.999 -47.5c-49.333 0 -89 17.667 -119 53l-455 551h-4v-445c0 -50 -14.167 -89 -42.5 -117s-65.166 -42 -110.499 -42s-82.333 14 -111 42s-43 67 -43 117zM398.997 813h211c57.333 0 103.5 16.167 138.5 48.5
s52.5 76.833 52.5 133.5c0 57.333 -17.333 101.833 -52 133.5s-81 47.5 -139 47.5h-211v-363z" />
    <glyph glyph-name="S" unicode="S" horiz-adv-x="1099" 
d="M39 205c0 41.333 12.5 75.833 37.5 103.5s58.167 41.5 99.5 41.5c28.667 0 81.334 -13.333 158.001 -40s138.667 -40 186 -40c65.333 0 116.5 16.333 153.5 49s55.5 75 55.5 127c0 25.333 -7.83301 47.666 -23.5 66.999s-36.667 35.333 -63 48
s-56.666 24.334 -90.999 35.001l-108 32c-37.667 10.667 -75.334 22.5 -113.001 35.5s-73.667 29.5 -108 49.5s-64.666 43 -90.999 69s-47.333 59.167 -63 99.5s-23.5 85.833 -23.5 136.5c0 92.667 23.5 174.834 70.5 246.501s108.833 126 185.5 163s160.667 55.5 252 55.5
c26 0 54.833 -1.83301 86.5 -5.5s66.5 -10.5 104.5 -20.5s72.167 -22.333 102.5 -37s55.833 -34.334 76.5 -59.001s31 -52.334 31 -83.001c0 -41.333 -12.667 -77 -38 -107s-58.333 -45 -99 -45c-24.667 0 -65.167 10.333 -121.5 31s-106.5 31 -150.5 31
c-46.667 0 -86.334 -11.833 -119.001 -35.5s-49 -56.167 -49 -97.5c0 -22 7.83301 -41.5 23.5 -58.5s36.667 -31.167 63 -42.5s56.666 -22 90.999 -32l108 -32.5c37.667 -11.667 75.334 -24.667 113.001 -39s73.667 -32.833 108 -55.5s64.666 -48.834 90.999 -78.501
s47.333 -67.167 63 -112.5s23.5 -96.333 23.5 -153c0 -94.667 -24.167 -178.667 -72.5 -252s-112 -129 -191 -167s-165.833 -57 -260.5 -57c-29.333 0 -60 1.33301 -92 4s-67.667 6.83398 -107 12.501s-76 14.334 -110 26.001s-65.5 25.667 -94.5 42s-52 37 -69 62
s-25.5 52.833 -25.5 83.5z" />
    <glyph glyph-name="T" unicode="T" horiz-adv-x="983" 
d="M-25 1317c0 38 12.832 71 38.499 99s59.5 42 101.5 42h753c42 0 75.833 -14 101.5 -42s38.5 -61 38.5 -99c0 -38.667 -11.833 -71.834 -35.5 -99.501s-58.5 -41.5 -104.5 -41.5h-223v-1029c0 -50 -14.167 -89 -42.5 -117s-65.166 -42 -110.499 -42s-82.333 14 -111 42
s-43 67 -43 117v1029h-223c-46 0 -80.833 13.833 -104.5 41.5s-35.5 60.834 -35.5 99.501z" />
    <glyph glyph-name="U" unicode="U" horiz-adv-x="1402" 
d="M80 580l0.00292969 730.999c0 50 14.167 89 42.5 117s65.166 42 110.499 42s82.333 -14 111 -42s43 -67 43 -117v-715c0 -96.667 28.667 -177.167 86 -241.5s133.666 -96.5 228.999 -96.5c90.667 0 165.667 33.167 225 99.5s89 145.833 89 238.5v715
c0 50 14.167 89 42.5 117s65.166 42 110.499 42s82.333 -14 111 -42s43 -67 43 -117v-731c0 -112 -28.167 -214.667 -84.5 -308s-132 -166.166 -227 -218.499s-198.167 -78.5 -309.5 -78.5c-112.667 0 -216.5 26 -311.5 78s-170.5 124.5 -226.5 217.5s-84 196.167 -84 309.5
z" />
    <glyph glyph-name="V" unicode="V" horiz-adv-x="1212" 
d="M-8 1323c0 42 15.833 77 47.5 105s68.5 42 110.5 42c60 0 106.333 -33.333 139 -100l317 -852l318 852c32.667 66.667 79 100 139 100c42 0 78.833 -14 110.5 -42s47.5 -63 47.5 -105c0 -23.333 -5 -48.666 -15 -75.999l-448 -1141c-16 -38.667 -35 -68 -57 -88
s-53.667 -30 -95 -30s-72.833 10 -94.5 30s-40.5 49.333 -56.5 88l-449 1141c-9.33301 25.333 -14 50.666 -14 75.999z" />
    <glyph glyph-name="W" unicode="W" horiz-adv-x="1859" 
d="M16 1335c0 35.333 13.6689 66.666 41.002 93.999s62.333 41 105 41c90 0 144.667 -49 164 -147l174 -870h4l266 897c11.333 37.333 31.333 66.666 60 87.999s62 32 100 32s71.333 -10.667 100 -32s48.667 -50.666 60 -87.999l266 -897h4l174 870
c19.333 98 74 147 164 147c42.667 0 77.5 -13.667 104.5 -41s40.5 -58.666 40.5 -93.999c0 -22 -2.66699 -45 -8 -69l-260 -1119c-10.667 -46 -33.5 -84 -68.5 -114s-79.833 -45 -134.5 -45c-48.667 0 -91.5 14 -128.5 42s-61.833 63.667 -74.5 107l-237 791h-4l-238 -791
c-12.667 -43.333 -37.5 -79 -74.5 -107s-79.833 -42 -128.5 -42c-54.667 0 -99.334 15 -134.001 45s-57.334 68 -68.001 114l-260 1119c-6 26.667 -9 49.667 -9 69z" />
    <glyph glyph-name="X" unicode="X" horiz-adv-x="1253" 
d="M8 131c0 36.667 11.667 71.667 35 105l406 544l-332 451c-22 30 -33 60 -33 90c0 44 14.833 79.833 44.5 107.5s66.834 41.5 111.501 41.5c24.667 0 49.167 -7.16699 73.5 -21.5s44.166 -32.166 59.499 -53.499l254 -361l254 361
c15.333 21.333 35.166 39.166 59.499 53.499s48.833 21.5 73.5 21.5c44.667 0 81.667 -13.667 111 -41s44 -63.333 44 -108c0 -31.333 -10.667 -61.333 -32 -90l-332 -451l405 -544c23.333 -33.333 35 -68.333 35 -105c0 -42.667 -14.5 -77.167 -43.5 -103.5
s-66.167 -39.5 -111.5 -39.5c-52.667 0 -95 22.333 -127 67l-336 467l-336 -467c-32 -44.667 -74.333 -67 -127 -67c-45.333 0 -82.666 13.167 -111.999 39.5s-44 60.833 -44 103.5z" />
    <glyph glyph-name="Y" unicode="Y" horiz-adv-x="1097" 
d="M-20 1321c0 41.333 13.8301 76.5 41.4971 105.5s62.834 43.5 105.501 43.5c56.667 0 99 -20.333 127 -61l295 -428l295 428c28 40.667 70.333 61 127 61c42.667 0 77.834 -14.5 105.501 -43.5s41.5 -64.167 41.5 -105.5c0 -33.333 -9.33301 -64 -28 -92l-388 -545v-547
c0 -42 -12.667 -77.333 -38 -106s-63.666 -43 -114.999 -43s-89.833 14.333 -115.5 43s-38.5 64 -38.5 106v547l-387 545c-18.667 28 -28 58.667 -28 92z" />
    <glyph glyph-name="Z" unicode="Z" horiz-adv-x="1214" 
d="M45 147c0 42 13.668 81.6689 41.001 119.002l659 922h-538c-42 0 -76.5 11.667 -103.5 35s-40.5 55.333 -40.5 96c0 38.667 14.167 71.5 42.5 98.5s62.166 40.5 101.499 40.5h749c55.333 0 97.833 -14.5 127.5 -43.5s44.5 -63.5 44.5 -103.5
c0 -48.667 -15 -92.334 -45 -131.001l-655 -910h594c44 0 79.5 -11.833 106.5 -35.5s40.5 -56.834 40.5 -99.501c0 -38 -15 -70 -45 -96s-64 -39 -102 -39h-805c-53.333 0 -95.333 13.5 -126 40.5s-46 62.5 -46 106.5z" />
    <glyph glyph-name="bracketleft" unicode="[" horiz-adv-x="569" 
d="M90 -168v1503c0 44.667 13.667 80.5 41 107.5s63.666 40.5 108.999 40.5h204c32 0 58.167 -9.66699 78.5 -29s30.5 -48.666 30.5 -87.999s-10.167 -68.666 -30.5 -87.999s-46.5 -29 -78.5 -29h-96v-1331h96c32 0 58.167 -9.66699 78.5 -29s30.5 -48.666 30.5 -87.999
s-10.167 -68.5 -30.5 -87.5s-46.5 -28.5 -78.5 -28.5h-204c-45.333 0 -81.666 13.333 -108.999 40s-41 62.334 -41 107.001z" />
    <glyph glyph-name="backslash" unicode="\" horiz-adv-x="833" 
d="M16 1370c0 31.333 11.667 58 35 80s52 33 86 33c56.667 0 95 -25.333 115 -76l547 -1262c12 -28.667 18 -47.667 18 -57c0 -31.333 -12 -58 -36 -80s-53 -33 -87 -33c-30.667 0 -54.5 6.5 -71.5 19.5s-30.5 31.833 -40.5 56.5l-549 1262
c-11.333 27.333 -17 46.333 -17 57z" />
    <glyph glyph-name="bracketright" unicode="]" horiz-adv-x="569" 
d="M16 -199c0 39.333 10.167 68.6699 30.5 88.0029s46.5 29 78.5 29h96v1331h-96c-32 0 -58.167 9.66699 -78.5 29s-30.5 48.666 -30.5 87.999s10.167 68.666 30.5 87.999s46.5 29 78.5 29h205c45.333 0 81.5 -13.5 108.5 -40.5s40.5 -62.833 40.5 -107.5v-1503
c0 -44.667 -13.5 -80.334 -40.5 -107.001s-63.167 -40 -108.5 -40h-205c-32 0 -58.167 9.5 -78.5 28.5s-30.5 48.167 -30.5 87.5z" />
    <glyph glyph-name="asciicircum" unicode="^" horiz-adv-x="1228" 
d="M150 727c0 21.333 8.66699 48.666 26 81.999l330 600c22.667 40.667 58.667 61 108 61c50 0 86.333 -20.333 109 -61l330 -600c17.333 -33.333 26 -60.666 26 -81.999c0 -26.667 -9.83301 -47 -29.5 -61s-44.5 -21 -74.5 -21c-48.667 0 -83.667 15 -105 45l-256 473
l-256 -473c-21.333 -30 -56 -45 -104 -45c-30 0 -54.833 7 -74.5 21s-29.5 34.333 -29.5 61z" />
    <glyph glyph-name="underscore" unicode="_" horiz-adv-x="1024" 
d="M-59 -205c0 16 5.5 28.5 16.5 37.5s25.167 13.5 42.5 13.5h1024c17.333 0 31.5 -4.5 42.5 -13.5s16.5 -21.5 16.5 -37.5s-5.5 -28.5 -16.5 -37.5s-25.167 -13.5 -42.5 -13.5h-1024c-17.333 0 -31.5 4.5 -42.5 13.5s-16.5 21.5 -16.5 37.5z" />
    <glyph glyph-name="grave" unicode="`" horiz-adv-x="454" 
d="M-25 1456c0 29.333 11.168 57.832 33.501 85.499s48.166 41.5 77.499 41.5c17.333 0 43.333 -6.66699 78 -20l242 -99l16 -8c17.333 -8.66699 31.166 -20.667 41.499 -36s15.5 -30.666 15.5 -45.999c0 -37.333 -10.667 -71.5 -32 -102.5s-46.666 -46.5 -75.999 -46.5
h-11.5h-8.5h-6c-2.66699 0 -4.66699 0.333008 -6 1s-3 1.16699 -5 1.5s-4.33301 1 -7 2s-5.5 2.16699 -8.5 3.5l-12.5 5.5c-5.33301 2.33301 -11 4.5 -17 6.5l-230 90c-56 22.667 -84 63 -84 121z" />
    <glyph glyph-name="a" unicode="a" horiz-adv-x="1087" 
d="M47 328c0 255.333 224.002 383 672.002 383v80c0 51.333 -43 77 -129 77c-38.667 0 -73.667 -5.16699 -105 -15.5s-55 -21.833 -71 -34.5s-33.333 -24.167 -52 -34.5s-36.334 -15.5 -53.001 -15.5c-42.667 0 -74.834 12.5 -96.501 37.5s-32.5 54.167 -32.5 87.5
c0 38 22.167 74.333 66.5 109s98 62 161 82s123.833 30 182.5 30c136 0 240.667 -28.333 314 -85s110 -138.334 110 -245.001v-639c0 -44 -13.5 -81.167 -40.5 -111.5s-61.5 -45.5 -103.5 -45.5c-36 0 -65.5 7.33301 -88.5 22s-39.833 43.334 -50.5 86.001
c-24 -38 -62.667 -67.667 -116 -89s-106.666 -32 -159.999 -32c-122.667 0 -221.334 30.667 -296.001 92s-112 148.333 -112 261zM330.002 328c0 -25.333 9.00098 -46.332 27.001 -62.999s39.667 -28.167 65 -34.5s54 -9.5 86 -9.5c148.667 0 223 73.667 223 221v47
c-108.667 0 -174.334 -1 -197.001 -3c-106 -8.66699 -170.333 -41.334 -193 -98.001c-7.33301 -18 -11 -38 -11 -60z" />
    <glyph glyph-name="b" unicode="b" 
d="M84 152l0.00195312 1261c0 48.667 13.667 88.167 41 118.5s62.666 45.5 105.999 45.5s78.833 -15.167 106.5 -45.5s41.5 -69.833 41.5 -118.5v-401c78 68 171.333 102 280 102c76 0 145 -16.833 207 -50.5s112.167 -78.5 150.5 -134.5s67.666 -118.167 87.999 -186.5
s30.5 -139.166 30.5 -212.499c0 -70 -11.667 -138.167 -35 -204.5s-55.5 -125.5 -96.5 -177.5s-92.333 -93.833 -154 -125.5s-128.5 -47.5 -200.5 -47.5c-52.667 0 -104.334 11.833 -155.001 35.5s-89 57.167 -115 100.5c-18.667 -82 -68 -123 -148 -123
c-43.333 0 -78.666 15.167 -105.999 45.5s-41 69.833 -41 118.5zM379.002 552.999c0 -50.667 7.66699 -98.501 23 -143.501s41 -83.5 77 -115.5s79.667 -48 131 -48c48.667 0 91 15.5 127 46.5s62.167 68.5 78.5 112.5s24.5 90 24.5 138
c0 48.667 -8.16699 95.334 -24.5 140.001s-42.5 82.667 -78.5 114s-78.333 47 -127 47c-38 0 -72.167 -8.33301 -102.5 -25s-54.5 -39 -72.5 -67s-31.833 -59 -41.5 -93s-14.5 -69.333 -14.5 -106z" />
    <glyph glyph-name="c" unicode="c" horiz-adv-x="948" 
d="M41 543c0 74 13.1631 145.666 39.4961 214.999s62.166 130.166 107.499 182.499s101.166 94.333 167.499 126s137.5 47.5 213.5 47.5c33.333 0 69 -3.16699 107 -9.5s76.833 -16.166 116.5 -29.499s72.5 -32.833 98.5 -58.5s39 -55.167 39 -88.5
c0 -34 -10.667 -66.167 -32 -96.5s-48.333 -45.5 -81 -45.5c-23.333 0 -59.666 9.66699 -108.999 29s-90.666 29 -123.999 29c-53.333 0 -99.333 -14.833 -138 -44.5s-66.667 -66.667 -84 -111s-26 -92.833 -26 -145.5c0 -50 9.33301 -97.167 28 -141.5
s47.334 -81.333 86.001 -111s83.334 -44.5 134.001 -44.5c28 0 69.333 10.167 124 30.5s86.334 30.5 95.001 30.5c34.667 0 64.5 -12.667 89.5 -38s37.5 -55.666 37.5 -90.999s-13.5 -67 -40.5 -95s-60.667 -49.333 -101 -64s-79.5 -25.667 -117.5 -33s-72 -11 -102 -11
c-102.667 0 -194.667 26 -276 78s-143.666 121 -186.999 207s-65 180.333 -65 283z" />
    <glyph glyph-name="d" unicode="d" 
d="M41 530c0 73.333 10.168 144.167 30.501 212.5s49.5 130.5 87.5 186.5s88 100.833 150 134.5s131 50.5 207 50.5c109.333 0 203 -34 281 -102v401c0 48.667 13.667 88.167 41 118.5s62.666 45.5 105.999 45.5s78.833 -15.167 106.5 -45.5s41.5 -69.833 41.5 -118.5v-1261
c0 -48.667 -13.833 -88.167 -41.5 -118.5s-63.167 -45.5 -106.5 -45.5c-79.333 0 -128.333 41 -147 123c-26 -42.667 -64.333 -76 -115 -100s-102.667 -36 -156 -36c-72 0 -138.833 15.833 -200.5 47.5s-113 73.5 -154 125.5s-73 111.167 -96 177.5s-34.5 134.5 -34.5 204.5
zM336.001 543.001c0 -48 7.99902 -93.998 23.999 -137.998s42 -81.5 78 -112.5s78.333 -46.5 127 -46.5c38.667 0 73.334 9.16699 104.001 27.5s55 42.5 73 72.5s31.667 62.667 41 98s14 71.666 14 108.999c0 50 -8 96.333 -24 139s-42.167 78.667 -78.5 108
s-79.5 44 -129.5 44c-48.667 0 -91 -15.667 -127 -47s-62 -69.333 -78 -114s-24 -91.334 -24 -140.001z" />
    <glyph glyph-name="e" unicode="e" horiz-adv-x="1099" 
d="M20 543c0 100 22.165 193.332 66.498 279.999s107.333 156.834 189 210.501s172.834 80.5 273.501 80.5c76.667 0 148.834 -16.333 216.501 -49s124 -75 169 -127s80.333 -109.5 106 -172.5s38.5 -125.5 38.5 -187.5c0 -44.667 -10.333 -77.834 -31 -99.501
s-53.334 -32.5 -98.001 -32.5h-628c9.33301 -69.333 39.833 -122.166 91.5 -158.499s113.834 -54.5 186.501 -54.5c34 0 69 6.16699 105 18.5s66 26 90 41s49 28.667 75 41s47.333 18.5 64 18.5c31.333 0 59.333 -13.167 84 -39.5s37 -55.5 37 -87.5
c0 -40.667 -24.833 -80.667 -74.5 -120s-112 -70.833 -187 -94.5s-148.5 -35.5 -220.5 -35.5c-164 0 -297.167 53.5 -399.5 160.5s-153.5 242.833 -153.5 407.5zM314.998 642.999h468.999c-8 66.667 -32.5 120.834 -73.5 162.501s-94.833 62.5 -161.5 62.5
c-64 0 -117.167 -21.333 -159.5 -64s-67.166 -96.334 -74.499 -161.001z" />
    <glyph glyph-name="f" unicode="f" horiz-adv-x="606" 
d="M-43 961c0 36.667 12.1641 67.333 36.4971 92s55.166 37 92.499 37h66v151c0 106 28.333 188.5 85 247.5s131.334 88.5 224.001 88.5c38 0 71.5 -3.83301 100.5 -11.5s53.667 -21.834 74 -42.501s30.5 -47 30.5 -79c0 -42.667 -9.83301 -74.167 -29.5 -94.5
s-50.167 -30.5 -91.5 -30.5c-16.667 0 -29.167 -0.666992 -37.5 -2s-18.166 -5.16602 -29.499 -11.499s-19.5 -17.333 -24.5 -33s-7.5 -36.5 -7.5 -62.5v-120h93c99.333 0 149 -43 149 -129c0 -44 -13.5 -76.667 -40.5 -98s-63.167 -32 -108.5 -32h-93v-679
c0 -48.667 -13.667 -88.167 -41 -118.5s-62.666 -45.5 -105.999 -45.5s-78.666 15.167 -105.999 45.5s-41 69.833 -41 118.5v679h-66c-40 0 -71.5 11.667 -94.5 35s-34.5 55 -34.5 95z" />
    <glyph glyph-name="g" unicode="g" 
d="M41 541c0 100 19.3359 193.166 58.0029 279.499s95.667 156.833 171 211.5s160.666 82 255.999 82c53.333 0 105.333 -11.833 156 -35.5s89 -56.834 115 -99.501c18.667 82 67.667 123 147 123c43.333 0 78.833 -15.167 106.5 -45.5s41.5 -69.833 41.5 -118.5v-852
c0 -115.333 -24.167 -213.333 -72.5 -294s-114.666 -140.5 -198.999 -179.5s-183.166 -58.5 -296.499 -58.5c-26.667 0 -58.334 2.33301 -95.001 7s-76.834 12.834 -120.501 24.501s-83.834 25.5 -120.501 41.5s-67.334 37 -92.001 63s-37 54.333 -37 85
c0 28 12.833 56.5 38.5 85.5s52.5 43.5 80.5 43.5c24.667 0 56.167 -7.66699 94.5 -23s81.5 -30.666 129.5 -45.999s96.333 -23 145 -23c74 0 134.167 20.5 180.5 61.5s69.5 98.167 69.5 171.5v70h-4c-63.333 -93.333 -162.333 -140 -297 -140
c-74.667 0 -141.667 15.667 -201 47s-107 73.5 -143 126.5s-63.5 113 -82.5 180s-28.5 137.833 -28.5 212.5zM336.003 546.999c0 -84.667 19.834 -155.999 59.501 -213.999s96.167 -87 169.5 -87c50 0 93.167 14.667 129.5 44s62.5 65.333 78.5 108s24 89 24 139
c0 37.333 -4.66699 73.666 -14 108.999s-23 68 -41 98s-42.333 54.167 -73 72.5s-65.334 27.5 -104.001 27.5c-48.667 0 -91 -15.5 -127 -46.5s-62 -68.5 -78 -112.5s-24 -90 -24 -138z" />
    <glyph glyph-name="h" unicode="h" horiz-adv-x="1138" 
d="M84 152l-0.000976562 1261c0 48.667 13.667 88.167 41 118.5s62.666 45.5 105.999 45.5s78.833 -15.167 106.5 -45.5s41.5 -69.833 41.5 -118.5v-401h4c28 35.333 66.667 61.166 116 77.499s100 24.5 152 24.5c118.667 0 215.667 -35.667 291 -107s113 -168 113 -290
v-565c0 -48.667 -13.833 -88.167 -41.5 -118.5s-63.167 -45.5 -106.5 -45.5s-78.666 15.167 -105.999 45.5s-41 69.833 -41 118.5v514c0 65.333 -18.167 115.333 -54.5 150s-82.5 52 -138.5 52c-58.667 0 -104.667 -18.833 -138 -56.5s-50 -86.167 -50 -145.5v-514
c0 -48.667 -13.833 -88.167 -41.5 -118.5s-63.167 -45.5 -106.5 -45.5s-78.666 15.167 -105.999 45.5s-41 69.833 -41 118.5z" />
    <glyph glyph-name="i" unicode="i" horiz-adv-x="454" 
d="M61 1382c0 42 16.667 79.501 50 112.501s72 49.5 116 49.5s82.667 -16.333 116 -49s50 -70.334 50 -113.001c0 -46 -16.167 -85.833 -48.5 -119.5s-71.5 -50.5 -117.5 -50.5c-44 0 -82.667 17 -116 51s-50 73.667 -50 119zM80 152.001v786
c0 48.667 13.667 88.167 41 118.5s62.666 45.5 105.999 45.5s78.833 -15.167 106.5 -45.5s41.5 -69.833 41.5 -118.5v-786c0 -48.667 -13.833 -88.167 -41.5 -118.5s-63.167 -45.5 -106.5 -45.5s-78.666 15.167 -105.999 45.5s-41 69.833 -41 118.5z" />
    <glyph glyph-name="j" unicode="j" horiz-adv-x="454" 
d="M61 1382c0 42 16.667 79.501 50 112.501s72 49.5 116 49.5s82.667 -16.333 116 -49s50 -70.334 50 -113.001c0 -46 -16.167 -85.833 -48.5 -119.5s-71.5 -50.5 -117.5 -50.5c-44 0 -82.667 17 -116 51s-50 73.667 -50 119zM80 -282.999v1221
c0 48.667 13.667 88.167 41 118.5s62.666 45.5 105.999 45.5s78.833 -15.167 106.5 -45.5s41.5 -69.833 41.5 -118.5v-1221c0 -48.667 -13.833 -88 -41.5 -118s-63.167 -45 -106.5 -45s-78.666 15 -105.999 45s-41 69.333 -41 118z" />
    <glyph glyph-name="k" unicode="k" horiz-adv-x="1024" 
d="M84 152l-0.000976562 1261c0 48.667 13.667 88.167 41 118.5s62.666 45.5 105.999 45.5s78.833 -15.167 106.5 -45.5s41.5 -69.833 41.5 -118.5v-688l323 313c44.667 42.667 89.334 64 134.001 64c36 0 65.833 -13.5 89.5 -40.5s35.5 -57.833 35.5 -92.5
c0 -42.667 -19.333 -81.667 -58 -117l-262 -234l346 -405c24.667 -28 37 -60.667 37 -98c0 -39.333 -13.5 -72.5 -40.5 -99.5s-59.833 -40.5 -98.5 -40.5c-44.667 0 -92 30.333 -142 91l-360 444h-4v-358c0 -48.667 -13.833 -88.167 -41.5 -118.5
s-63.167 -45.5 -106.5 -45.5s-78.666 15.167 -105.999 45.5s-41 69.833 -41 118.5z" />
    <glyph glyph-name="l" unicode="l" horiz-adv-x="454" 
d="M80 152v1261c0 48.667 13.667 88.167 41 118.5s62.666 45.5 105.999 45.5s78.833 -15.167 106.5 -45.5s41.5 -69.833 41.5 -118.5v-1261c0 -48.667 -13.833 -88.167 -41.5 -118.5s-63.167 -45.5 -106.5 -45.5s-78.666 15.167 -105.999 45.5s-41 69.833 -41 118.5z" />
    <glyph glyph-name="m" unicode="m" horiz-adv-x="1744" 
d="M84 152l-0.00195312 785.999c0 48.667 13.667 88.167 41 118.5s62.666 45.5 105.999 45.5c38 0 68.833 -9.66699 92.5 -29s38.167 -46.666 43.5 -81.999c76 82 167.333 123 274 123c124 0 225.667 -49.667 305 -149c40 45.333 88.833 81.5 146.5 108.5
s112.5 40.5 164.5 40.5c122.667 0 220.667 -34.5 294 -103.5s110 -166.833 110 -293.5v-565c0 -48.667 -13.833 -88.167 -41.5 -118.5s-63.167 -45.5 -106.5 -45.5s-78.666 15.167 -105.999 45.5s-41 69.833 -41 118.5v514c0 60 -15.5 108.667 -46.5 146
s-72.833 56 -125.5 56c-54 0 -96.5 -18.5 -127.5 -55.5s-46.5 -85.833 -46.5 -146.5v-514c0 -48.667 -13.833 -88.167 -41.5 -118.5s-63.167 -45.5 -106.5 -45.5s-78.666 15.167 -105.999 45.5s-41 69.833 -41 118.5v514c0 60 -15.5 108.667 -46.5 146s-72.833 56 -125.5 56
c-58 0 -101.5 -18.167 -130.5 -54.5s-43.5 -85.5 -43.5 -147.5v-514c0 -48.667 -13.833 -88.167 -41.5 -118.5s-63.167 -45.5 -106.5 -45.5s-78.666 15.167 -105.999 45.5s-41 69.833 -41 118.5z" />
    <glyph glyph-name="n" unicode="n" horiz-adv-x="1138" 
d="M84 152l-0.000976562 786c0 48.667 13.667 88.167 41 118.5s62.666 45.5 105.999 45.5c38 0 68.833 -9.66699 92.5 -29s38.167 -46 43.5 -80c57.333 80.667 152 121 284 121c118.667 0 215.667 -35.667 291 -107s113 -168 113 -290v-565
c0 -48.667 -13.833 -88.167 -41.5 -118.5s-63.167 -45.5 -106.5 -45.5s-78.666 15.167 -105.999 45.5s-41 69.833 -41 118.5v514c0 65.333 -18.167 115.333 -54.5 150s-82.5 52 -138.5 52c-58.667 0 -104.667 -18.833 -138 -56.5s-50 -86.167 -50 -145.5v-514
c0 -48.667 -13.833 -88.167 -41.5 -118.5s-63.167 -45.5 -106.5 -45.5s-78.666 15.167 -105.999 45.5s-41 69.833 -41 118.5z" />
    <glyph glyph-name="o" unicode="o" horiz-adv-x="1138" 
d="M41 543c0 74 13.167 145.669 39.5 215.002s62.166 130.166 107.499 182.499s101.166 94.333 167.499 126s137.5 47.5 213.5 47.5c100.667 0 191.834 -26.833 273.501 -80.5s144.667 -123.834 189 -210.501s66.5 -180 66.5 -280c0 -76.667 -12.833 -149.5 -38.5 -218.5
s-61.167 -129.333 -106.5 -181s-101.333 -92.667 -168 -123s-138.667 -45.5 -216 -45.5c-102.667 0 -194.667 26 -276 78s-143.666 121 -186.999 207s-65 180.333 -65 283zM336 543.002c0 -49.333 7.99902 -95.833 23.999 -139.5s42.167 -80.834 78.5 -111.501
s79.833 -46 130.5 -46s94.334 15.333 131.001 46s63 67.834 79 111.501s24 90.167 24 139.5c0 50 -7.83301 97 -23.5 141s-41.834 81.667 -78.501 113s-80.667 47 -132 47s-95.166 -15.667 -131.499 -47s-62.333 -69 -78 -113s-23.5 -91 -23.5 -141z" />
    <glyph glyph-name="p" unicode="p" 
d="M84 -283l0.000976562 1221c0 48.667 13.667 88.167 41 118.5s62.666 45.5 105.999 45.5c80 0 129.333 -41 148 -123c26.667 43.333 65.5 76.666 116.5 99.999s105.5 35 163.5 35c76 0 145 -16.833 207 -50.5s112.167 -78.5 150.5 -134.5s67.666 -118.167 87.999 -186.5
s30.5 -139.166 30.5 -212.499c0 -70 -11.667 -138.167 -35 -204.5s-55.5 -125.5 -96.5 -177.5s-92.333 -93.833 -154 -125.5s-128.5 -47.5 -200.5 -47.5c-101.333 0 -191.333 34.333 -270 103v-361c0 -48.667 -13.833 -88 -41.5 -118s-63.167 -45 -106.5 -45
s-78.666 15 -105.999 45s-41 69.333 -41 118zM379.001 553c0 -50.667 7.66699 -98.501 23 -143.501s41 -83.5 77 -115.5s79.667 -48 131 -48c48.667 0 91 15.5 127 46.5s62.167 68.5 78.5 112.5s24.5 90 24.5 138c0 48.667 -8.16699 95.334 -24.5 140.001
s-42.5 82.667 -78.5 114s-78.333 47 -127 47c-38 0 -72.167 -8.33301 -102.5 -25s-54.5 -39 -72.5 -67s-31.833 -59 -41.5 -93s-14.5 -69.333 -14.5 -106z" />
    <glyph glyph-name="q" unicode="q" 
d="M41 530c0 73.333 10.166 144.166 30.499 212.499s49.5 130.5 87.5 186.5s88 100.833 150 134.5s131 50.5 207 50.5c58 0 112.667 -11.667 164 -35s90.333 -56.666 117 -99.999c18.667 82 67.667 123 147 123c43.333 0 78.833 -15.167 106.5 -45.5
s41.5 -69.833 41.5 -118.5v-1221c0 -48.667 -13.833 -88 -41.5 -118s-63.167 -45 -106.5 -45s-78.666 15 -105.999 45s-41 69.333 -41 118v361c-38 -33.333 -80.833 -58.833 -128.5 -76.5s-95.167 -26.5 -142.5 -26.5c-72 0 -138.833 15.833 -200.5 47.5
s-113 73.5 -154 125.5s-73 111.167 -96 177.5s-34.5 134.5 -34.5 204.5zM335.999 543c0 -48 7.99902 -93.998 23.999 -137.998s42 -81.5 78 -112.5s78.333 -46.5 127 -46.5c38.667 0 73.334 9.16699 104.001 27.5s55 42.5 73 72.5s31.667 62.667 41 98s14 71.666 14 108.999
c0 50 -8 96.333 -24 139s-42.167 78.667 -78.5 108s-79.5 44 -129.5 44c-48.667 0 -91 -15.667 -127 -47s-62 -69.333 -78 -114s-24 -91.334 -24 -140.001z" />
    <glyph glyph-name="r" unicode="r" horiz-adv-x="681" 
d="M80 152l-0.000976562 802.002c0 46 15.167 82.167 45.5 108.5s65.5 39.5 105.5 39.5c96 0 144 -41 144 -123h4c28 42 58.333 73 91 93s71.334 30 116.001 30c39.333 0 73 -13.833 101 -41.5s42 -66.5 42 -116.5c0 -18.667 -3 -34.5 -9 -47.5s-15.5 -24 -28.5 -33
s-25.5 -16.167 -37.5 -21.5s-28.667 -12 -50 -20s-38.333 -15 -51 -21l-53.5 -25.5c-10.333 -5 -25.5 -14 -45.5 -27s-34.333 -25.333 -43 -37s-16.834 -26.834 -24.501 -45.501s-11.5 -39.334 -11.5 -62.001v-452c0 -48.667 -13.833 -88.167 -41.5 -118.5
s-63.167 -45.5 -106.5 -45.5s-78.666 15.167 -105.999 45.5s-41 69.833 -41 118.5z" />
    <glyph glyph-name="s" unicode="s" horiz-adv-x="872" 
d="M20 203c0 27.333 11.8311 55.998 35.498 85.998s54.167 45 91.5 45c25.333 0 51 -5.33301 77 -16s48.333 -22.167 67 -34.5s42.5 -23.833 71.5 -34.5s59.167 -16 90.5 -16c43.333 0 73.5 6.83301 90.5 20.5s25.5 34.834 25.5 63.501c0 18 -9.33301 34.5 -28 49.5
s-43.167 28.5 -73.5 40.5l-100 38c-36.333 13.333 -72.666 29.166 -108.999 47.499s-69.666 39.333 -99.999 63s-54.833 53.834 -73.5 90.501s-28 78 -28 124c0 102 37.333 184.833 112 248.5s170.667 95.5 288 95.5c38 0 77.667 -4.5 119 -13.5s81 -21.833 119 -38.5
s69.167 -39 93.5 -67s36.5 -59.333 36.5 -94s-11.5 -65.167 -34.5 -91.5s-51.5 -39.5 -85.5 -39.5c-14.667 0 -37.5 7.16699 -68.5 21.5s-64.667 28.666 -101 42.999s-68.166 21.5 -95.499 21.5c-28.667 0 -52.5 -7 -71.5 -21s-28.5 -34.333 -28.5 -61
c0 -18 9.33301 -34.667 28 -50s43.167 -29 73.5 -41l100 -38c36.333 -13.333 72.666 -29.166 108.999 -47.499s69.666 -39.166 99.999 -62.499s54.833 -53.333 73.5 -90s28 -77.667 28 -123c0 -100 -38.667 -182.833 -116 -248.5s-178.666 -98.5 -303.999 -98.5
c-57.333 0 -117.333 9.5 -180 28.5s-117 46.5 -163 82.5s-69 75 -69 117z" />
    <glyph glyph-name="t" unicode="t" horiz-adv-x="606" 
d="M-39 961c0 36.667 12.168 67.333 36.501 92s55.166 37 92.499 37h66v176c0 48.667 13.667 88.167 41 118.5s62.666 45.5 105.999 45.5s78.833 -15.167 106.5 -45.5s41.5 -69.833 41.5 -118.5v-176h84c41.333 0 75.166 -10.5 101.499 -31.5s39.5 -53.5 39.5 -97.5
c0 -43.333 -13.167 -75.833 -39.5 -97.5s-60.166 -32.5 -101.499 -32.5h-84v-679c0 -48.667 -13.833 -88.167 -41.5 -118.5s-63.167 -45.5 -106.5 -45.5s-78.666 15.167 -105.999 45.5s-41 69.833 -41 118.5v679h-66c-40 0 -71.5 11.667 -94.5 35s-34.5 55 -34.5 95z" />
    <glyph glyph-name="u" unicode="u" horiz-adv-x="1138" 
d="M84 373v565c0 48.667 13.667 88.167 41 118.5s62.666 45.5 105.999 45.5s78.833 -15.167 106.5 -45.5s41.5 -69.833 41.5 -118.5v-514c0 -65.333 18 -115.5 54 -150.5s82 -52.5 138 -52.5c58.667 0 104.834 19 138.501 57s50.5 86.667 50.5 146v514
c0 48.667 13.667 88.167 41 118.5s62.666 45.5 105.999 45.5s78.833 -15.167 106.5 -45.5s41.5 -69.833 41.5 -118.5v-786c0 -48.667 -13.833 -88.167 -41.5 -118.5s-63.167 -45.5 -106.5 -45.5c-38 0 -68.667 9.5 -92 28.5s-37.666 45.5 -42.999 79.5
c-57.333 -80.667 -152.333 -121 -285 -121c-118 0 -214.667 35.667 -290 107s-113 168.333 -113 291z" />
    <glyph glyph-name="v" unicode="v" horiz-adv-x="946" 
d="M-2 958c0 44.667 15.0029 79.834 45.0029 105.501s66.333 38.5 109 38.5c65.333 0 109 -35 131 -105l188 -581h4l189 581c22 70 65.667 105 131 105c42.667 0 78.834 -12.833 108.501 -38.5s44.5 -60.834 44.5 -105.501c0 -25.333 -6 -54 -18 -86l-297 -761
c-16.667 -42.667 -35.834 -73.834 -57.501 -93.501s-55.834 -29.5 -102.501 -29.5s-80.834 9.83301 -102.501 29.5s-40.834 50.834 -57.501 93.501l-297 761c-12 32 -18 60.667 -18 86z" />
    <glyph glyph-name="w" unicode="w" horiz-adv-x="1593" 
d="M14 983c0 33.333 13.999 61.499 41.999 84.499s63.333 34.5 106 34.5c34.667 0 63.834 -10.667 87.501 -32s40.834 -49.666 51.501 -84.999l170 -563h4l172 551c13.333 42.667 31.5 74.834 54.5 96.501s54.833 32.5 95.5 32.5s72.334 -10.667 95.001 -32
s40.667 -53.666 54 -96.999l172 -551h4l170 563c10.667 35.333 28 63.666 52 84.999s53.333 32 88 32c44 0 79.5 -13 106.5 -39s40.5 -61 40.5 -105c0 -18.667 -9.66699 -55.334 -29 -110.001l-252 -711c-36 -99.333 -95.333 -149 -178 -149
c-84.667 0 -141.334 45.667 -170.001 137l-151 475h-4l-152 -475c-28.667 -91.333 -85.334 -137 -170.001 -137c-82.667 0 -142 49.667 -178 149l-250 707c-20.667 60.667 -31 107 -31 139z" />
    <glyph glyph-name="x" unicode="x" horiz-adv-x="1024" 
d="M0 131c0 36.667 13.6689 70 41.002 100l299 340l-250 281c-30 34.667 -45 70 -45 106c0 38 15.667 71.5 47 100.5s66.333 43.5 105 43.5c39.333 0 75.333 -19.333 108 -58l207 -258l207 258c32.667 38.667 68.667 58 108 58c38.667 0 73.667 -14.5 105 -43.5
s47 -62.5 47 -100.5c0 -36 -15 -71.333 -45 -106l-250 -281l299 -340c27.333 -30 41 -63.333 41 -100c0 -42.667 -13.333 -77.167 -40 -103.5s-61.667 -39.5 -105 -39.5c-30 0 -53.333 5.16699 -70 15.5s-34.334 26.833 -53.001 49.5l-244 299l-244 -299
c-18.667 -22.667 -36.334 -39.167 -53.001 -49.5s-40 -15.5 -70 -15.5c-43.333 0 -78.333 13.167 -105 39.5s-40 60.833 -40 103.5z" />
    <glyph glyph-name="y" unicode="y" horiz-adv-x="985" 
d="M-4 975c0 35.333 15 65.332 45 89.999s61.333 37 94 37c72 0 121.333 -35 148 -105l202 -555l217 555c26.667 70 76 105 148 105c32.667 0 64 -12.333 94 -37s45 -54.667 45 -90c0 -29.333 -4.66699 -54.666 -14 -75.999l-494 -1229c-32 -77.333 -78.333 -116 -139 -116
c-47.333 0 -84.833 12.667 -112.5 38s-41.5 55 -41.5 89c0 23.333 6.33301 52 19 86l129 319l-326 813c-9.33301 26.667 -14 52 -14 76z" />
    <glyph glyph-name="z" unicode="z" horiz-adv-x="985" 
d="M23 100c0 25.333 8.66797 52 26.001 80l463 651h-342c-38 0 -69.667 11.667 -95 35s-38 55 -38 95s12.667 71.5 38 94.5s57 34.5 95 34.5h670c12 0 24.5 -1.83301 37.5 -5.5s26 -13.167 39 -28.5s19.5 -35 19.5 -59c0 -18.667 -2.16699 -34 -6.5 -46s-12.5 -26 -24.5 -42
l-465 -651h389c38.667 0 70.667 -11.5 96 -34.5s38 -54.5 38 -94.5s-12.667 -71.5 -38 -94.5s-57.333 -34.5 -96 -34.5h-686c-34.667 0 -63.334 8.5 -86.001 25.5s-34 41.833 -34 74.5z" />
    <glyph glyph-name="braceleft" unicode="{" horiz-adv-x="681" 
d="M-20 584c0 26.667 8.33398 49.6709 25.001 69.0039s41 29 73 29c31.333 0 55.5 8.66699 72.5 26s25.5 53.666 25.5 108.999v397c0 179.333 91 269 273 269h126c27.333 0 49.666 -8 66.999 -24s26 -38.667 26 -68s-8.66699 -52.166 -26 -68.499
s-39.666 -24.5 -66.999 -24.5h-51c-60 0 -90 -39.333 -90 -118v-387c0 -35.333 -5.66699 -66 -17 -92s-24.333 -45.833 -39 -59.5s-33.667 -24.834 -57 -33.501s-42 -14 -56 -16s-31.333 -4 -52 -6v-4c20.667 -2 38 -4 52 -6s32.667 -7.33301 56 -16
s42.333 -19.834 57 -33.501s27.667 -33.5 39 -59.5s17 -56.667 17 -92v-387c0 -79.333 30 -119 90 -119h51c27.333 0 49.666 -8 66.999 -24s26 -38.667 26 -68s-8.66699 -52 -26 -68s-39.666 -24 -66.999 -24h-126c-90.667 0 -158.834 21.833 -204.501 65.5
s-68.5 111.167 -68.5 202.5v397c0 55.333 -8.5 91.666 -25.5 108.999s-41.167 26 -72.5 26c-32 0 -56.333 9.66699 -73 29s-25 42.666 -25 69.999z" />
    <glyph glyph-name="bar" unicode="|" horiz-adv-x="454" 
d="M104 98v1356c0 37.333 11 67.166 33 89.499s52 33.5 90 33.5s68 -11.167 90 -33.5s33 -52.166 33 -89.499v-1356c0 -37.333 -11 -67.166 -33 -89.499s-52 -33.5 -90 -33.5s-68 11.167 -90 33.5s-33 52.166 -33 89.499z" />
    <glyph glyph-name="braceright" unicode="}" horiz-adv-x="681" 
d="M14 -223c0 29.333 8.50098 51.9961 25.501 67.9961s39.167 24 66.5 24h52c60 0 90 39.667 90 119v387c0 35.333 5.66699 66 17 92s24.333 45.833 39 59.5s33.667 24.834 57 33.501s42 14 56 16s31.333 4 52 6v4c-20.667 2 -38 4 -52 6s-32.667 7.33301 -56 16
s-42.333 19.834 -57 33.501s-27.667 33.5 -39 59.5s-17 56.667 -17 92v387c0 78.667 -30 118 -90 118h-52c-27.333 0 -49.5 8.16699 -66.5 24.5s-25.5 39.166 -25.5 68.499s8.5 52 25.5 68s39.167 24 66.5 24h127c182 0 273 -89.667 273 -269v-397
c0 -55.333 8.5 -91.666 25.5 -108.999s41.167 -26 72.5 -26c32 0 56.333 -9.66699 73 -29s25 -42.333 25 -69c0 -27.333 -8.33301 -50.666 -25 -69.999s-41 -29 -73 -29c-31.333 0 -55.5 -8.66699 -72.5 -26s-25.5 -53.666 -25.5 -108.999v-397
c0 -91.333 -22.833 -158.833 -68.5 -202.5s-113.834 -65.5 -204.501 -65.5h-127c-27.333 0 -49.5 8 -66.5 24s-25.5 38.667 -25.5 68z" />
    <glyph glyph-name="asciitilde" unicode="~" horiz-adv-x="1228" 
d="M84 440c0 68.667 28.5 131 85.5 187s132.167 84 225.5 84c43.333 0 93.833 -11.667 151.5 -35s112.167 -46.666 163.5 -69.999s91 -35 119 -35c25.333 0 49 6.5 71 19.5s39.667 27.333 53 43s29.333 30 48 43s37.334 19.5 56.001 19.5c30.667 0 53 -9.66699 67 -29
s21 -43 21 -71c0 -68.667 -28.5 -130.834 -85.5 -186.501s-132.167 -83.5 -225.5 -83.5c-43.333 0 -93.833 11.667 -151.5 35s-112.334 46.5 -164.001 69.5s-91.5 34.5 -119.5 34.5c-20.667 0 -40 -4.33301 -58 -13s-33.5 -19.167 -46.5 -31.5l-37.5 -36.5
c-12 -12 -25.167 -22.333 -39.5 -31s-29.5 -13 -45.5 -13c-30.667 0 -53 9.66699 -67 29s-21 43 -21 71z" />
    <glyph glyph-name="uni00A0" unicode="&#xa0;" horiz-adv-x="548" 
 />
    <glyph glyph-name="sterling" unicode="&#xa3;" horiz-adv-x="1251" 
d="M33 727c0 43.333 13.5049 77.666 40.5049 102.999s62.5 38 106.5 38h43c-13.333 25.333 -25.5 60.666 -36.5 105.999s-16.5 82.333 -16.5 111c0 78.667 23.667 148.667 71 210s110 108 188 140s163.667 48 257 48c94.667 0 181.5 -15.333 260.5 -46
s141.667 -73.167 188 -127.5s69.5 -114.833 69.5 -181.5c0 -46.667 -15 -84.167 -45 -112.5s-68.333 -42.5 -115 -42.5c-25.333 0 -48 7.33301 -68 22s-37.833 32.5 -53.5 53.5s-32.334 42.167 -50.001 63.5s-41.334 39.333 -71.001 54s-64.167 22 -103.5 22
c-54 0 -100.167 -14.167 -138.5 -42.5s-57.5 -66.833 -57.5 -115.5c0 -42 8.66699 -78 26 -108l31 -54h311c44 0 79.667 -12.667 107 -38s41 -59.666 41 -102.999s-13.667 -77.666 -41 -102.999s-63 -38 -107 -38h-264c0 -107.333 -34.667 -208.333 -104 -303h569
c44 0 79.667 -12.833 107 -38.5s41 -60.167 41 -103.5s-13.667 -77.666 -41 -102.999s-63 -38 -107 -38h-803c-50 0 -89 14.333 -117 43s-42 67.667 -42 117c0 14.667 6.16699 31.667 18.5 51s27.166 40.333 44.499 63s34.666 47.834 51.999 75.501
s32.166 62.167 44.499 103.5s18.5 85.666 18.5 132.999h-107c-44 0 -79.5 12.667 -106.5 38s-40.5 59.666 -40.5 102.999z" />
    <glyph glyph-name="copyright" unicode="&#xa9;" horiz-adv-x="1638" 
d="M66 729c0 102 19.833 199.5 59.5 292.5s93.167 173.167 160.5 240.5s147.5 121 240.5 161s190.5 60 292.5 60s199.5 -20 292.5 -60s173.167 -93.667 240.5 -161s121 -147.5 161 -240.5s60 -190.5 60 -292.5s-20 -199.5 -60 -292.5s-93.667 -173.167 -161 -240.5
s-147.5 -121 -240.5 -161s-190.5 -60 -292.5 -60s-199.5 20 -292.5 60s-173.167 93.667 -240.5 161s-120.833 147.5 -160.5 240.5s-59.5 190.5 -59.5 292.5zM250 729c0 -103.333 25.333 -198.666 76 -285.999s119.667 -156.333 207 -207s182.666 -76 285.999 -76
c77.333 0 151.166 15 221.499 45s131 70.333 182 121s91.5 111.167 121.5 181.5s45 144.166 45 221.499s-15 151.166 -45 221.499s-70.5 130.833 -121.5 181.5s-111.667 91 -182 121s-144.166 45 -221.499 45c-103.333 0 -198.666 -25.333 -285.999 -76
s-156.333 -119.667 -207 -207s-76 -182.666 -76 -285.999zM418 729c0 122.667 36.9971 223.67 110.997 303.003s172.667 119 296 119c50.667 0 99 -8.5 145 -25.5s83.833 -38 113.5 -63s53.167 -51.333 70.5 -79s26 -53.167 26 -76.5c0 -38 -5.33301 -64.333 -16 -79
s-32.667 -25 -66 -31c-10.667 0 -20.167 0.666992 -28.5 2s-16 4.16602 -23 8.49902l-16.5 10.5c-4 2.66699 -8.66699 8 -14 16s-8.66602 13.167 -9.99902 15.5s-4.5 9 -9.5 20s-8.16699 17.5 -9.5 19.5c-9.33301 14.667 -18.166 26.667 -26.499 36
s-24.5 18.666 -48.5 27.999s-53 14 -87 14c-60.667 0 -106.834 -21.167 -138.501 -63.5s-47.5 -100.5 -47.5 -174.5s15.833 -132 47.5 -174s77.834 -63 138.501 -63c34 0 63 4.66699 87 14s40.333 18.5 49 27.5s17.334 20.833 26.001 35.5
c1.33301 2.66699 4.33301 9.16699 9 19.5s8 17 10 20l10.5 16.5c5 8 9.5 13.333 13.5 16l16.5 10.5c7 4.33301 14.667 7.16602 23 8.49902s17.833 2 28.5 2c33.333 -6 55.333 -16.5 66 -31.5s16 -41.5 16 -79.5c0 -23.333 -8.66699 -48.833 -26 -76.5s-40.833 -54 -70.5 -79
s-67.5 -46 -113.5 -63s-94.333 -25.5 -145 -25.5c-123.333 0 -222 39.667 -296 119s-111 180.333 -111 303z" />
    <glyph glyph-name="guillemotleft" unicode="&#xab;" horiz-adv-x="1024" 
d="M76 584c0 28.667 16.333 66.668 49 114.001l199 281c20 23.333 49.333 35 88 35c35.333 0 63.833 -11.167 85.5 -33.5s32.5 -48.833 32.5 -79.5c0 -27.333 -7.33301 -53.333 -22 -78l-162 -248l162 -243c14.667 -22 22 -45.333 22 -70
c0 -36.667 -11.333 -67.334 -34 -92.001s-52 -37 -88 -37c-44.667 0 -79 17 -103 51l-211 326c-12 17.333 -18 42 -18 74zM494 584.001c0 28.667 16.334 66.668 49.001 114.001l198 281c20 23.333 49.333 35 88 35c35.333 0 64 -11.167 86 -33.5s33 -48.833 33 -79.5
c0 -27.333 -7.33301 -53.333 -22 -78l-162 -248l162 -243c14.667 -22 22 -45.333 22 -70c0 -36.667 -11.333 -67.334 -34 -92.001s-52.334 -37 -89.001 -37c-44 0 -78 17 -102 51l-211 326c-12 17.333 -18 42 -18 74z" />
    <glyph glyph-name="uni00AD" unicode="&#xad;" horiz-adv-x="796" 
d="M63 592c0 38.667 10.333 70.167 31 94.5s49.334 36.5 86.001 36.5h436c36.667 0 65.334 -12.167 86.001 -36.5s31 -55.833 31 -94.5c0 -36.667 -10.333 -67 -31 -91s-49.334 -36 -86.001 -36h-436c-36.667 0 -65.334 12 -86.001 36s-31 54.333 -31 91z" />
    <glyph glyph-name="registered" unicode="&#xae;" horiz-adv-x="1638" 
d="M66 729c0 102 19.833 199.5 59.5 292.5s93.167 173.167 160.5 240.5s147.5 121 240.5 161s190.5 60 292.5 60s199.5 -20 292.5 -60s173.167 -93.667 240.5 -161s121 -147.5 161 -240.5s60 -190.5 60 -292.5s-20 -199.5 -60 -292.5s-93.667 -173.167 -161 -240.5
s-147.5 -121 -240.5 -161s-190.5 -60 -292.5 -60s-199.5 20 -292.5 60s-173.167 93.667 -240.5 161s-120.833 147.5 -160.5 240.5s-59.5 190.5 -59.5 292.5zM250 729c0 -103.333 25.333 -198.666 76 -285.999s119.667 -156.333 207 -207s182.666 -76 285.999 -76
c77.333 0 151.166 15 221.499 45s131 70.333 182 121s91.5 111.167 121.5 181.5s45 144.166 45 221.499s-15 151.166 -45 221.499s-70.5 130.833 -121.5 181.5s-111.667 91 -182 121s-144.166 45 -221.499 45c-103.333 0 -198.666 -25.333 -285.999 -76
s-156.333 -119.667 -207 -207s-76 -182.666 -76 -285.999zM516 406l-0.00195312 631.998c0 26.667 6.66699 47.667 20 63s38 23 74 23h232c44.667 0 84.167 -3.66699 118.5 -11s66.166 -19.666 95.499 -36.999s51.833 -42 67.5 -74s23.5 -71 23.5 -117
c0 -72 -17.667 -126.833 -53 -164.5s-86 -58.167 -152 -61.5l145 -237c8.66699 -14 13 -28.333 13 -43c0 -48 -32 -72 -96 -72c-8 0 -15.667 0.833008 -23 2.5s-13.5 3.5 -18.5 5.5s-10.5 5.66699 -16.5 11s-10.333 9.33301 -13 12s-6.66699 8 -12 16
s-8.66602 13.167 -9.99902 15.5s-4.66602 8.5 -9.99902 18.5s-8.66602 16 -9.99902 18l-129 241h-62v-241c0 -66 -30.667 -99 -92 -99c-34.667 0 -58.667 7.83301 -72 23.5s-20 40.834 -20 75.501zM699.998 794.998l154 -0.000976562c37.333 0 64.833 6.33301 82.5 19
s26.5 36.334 26.5 71.001s-9 58.667 -27 72s-45.333 20 -82 20h-154v-182z" />
    <glyph glyph-name="guillemotright" unicode="&#xbb;" horiz-adv-x="1024" 
d="M76 246c0 27.333 7.33203 53.332 21.999 77.999l162 251l-162 240c-14.667 22 -22 45.333 -22 70c0 36.667 11.333 67.334 34 92.001s52.334 37 89.001 37c44 0 78 -17 102 -51l211 -326c12 -17.333 18 -42 18 -74c0 -28.667 -16.333 -66.667 -49 -114l-198 -281
c-20 -23.333 -49.333 -35 -88 -35c-35.333 0 -64 11.167 -86 33.5s-33 48.833 -33 79.5zM493.999 245.999c0 27.333 7.33301 53.332 22 77.999l162 251l-162 240c-14.667 22 -22 45.333 -22 70c0 36.667 11.333 67.334 34 92.001s52 37 88 37c44.667 0 79 -17 103 -51
l211 -326c12 -17.333 18 -42 18 -74c0 -28.667 -16.333 -66.667 -49 -114l-199 -281c-20 -23.333 -49.333 -35 -88 -35c-35.333 0 -63.833 11.167 -85.5 33.5s-32.5 48.833 -32.5 79.5z" />
    <glyph glyph-name="afii10023" unicode="&#x401;" horiz-adv-x="948" 
d="M92 154l0.00195312 1126c0 53.333 13.5 96.333 40.5 129s66.833 49 119.5 49h508c46 0 81.667 -13.833 107 -41.5s38 -60.834 38 -99.501c0 -38 -12.833 -71 -38.5 -99s-61.167 -42 -106.5 -42h-361v-299h336c47.333 0 84.166 -14 110.499 -42s39.5 -61.333 39.5 -100
c0 -38 -13.333 -71 -40 -99s-63.334 -42 -110.001 -42h-336v-311h379c46 0 81.833 -14 107.5 -42s38.5 -61.333 38.5 -100c0 -38 -13 -71 -39 -99s-61.667 -42 -107 -42h-528c-45.333 -0 -83 14.333 -113 43s-45 65.667 -45 111zM102.002 1714
c0 41.333 14.3311 76.3311 42.998 104.998s63.667 43 105 43c40.667 0 75.334 -14.333 104.001 -43s43 -63.667 43 -105s-14.167 -76.166 -42.5 -104.499s-63.166 -42.5 -104.499 -42.5s-76.333 14.333 -105 43s-43 63.334 -43 104.001zM553 1714
c0 41.333 14.3311 76.335 42.998 105.002s63.334 43 104.001 43c41.333 0 76.333 -14.333 105 -43s43 -63.667 43 -105c0 -40.667 -14.333 -75.334 -43 -104.001s-63.667 -43 -105 -43s-76.166 14.167 -104.499 42.5s-42.5 63.166 -42.5 104.499z" />
    <glyph glyph-name="afii10051" unicode="&#x402;" horiz-adv-x="1341" 
d="M-25 1317c0 38 12.8311 71 38.498 99s59.5 42 101.5 42h753c42 0 75.833 -14 101.5 -42s38.5 -61 38.5 -99c0 -38.667 -11.833 -71.834 -35.5 -99.501s-58.5 -41.5 -104.5 -41.5h-223v-222h127c163.333 0 295.666 -44.167 396.999 -132.5s152 -207.833 152 -358.5
c0 -193.333 -32.167 -361.666 -96.5 -504.999s-174.166 -273.333 -329.499 -390c-16 -12.667 -35.667 -19 -59 -19c-40 0 -76.333 12.5 -109 37.5s-49 57.833 -49 98.5c0 25.333 11.667 54.666 35 87.999c20 29.333 53.167 74.5 99.5 135.5s83.5 113.5 111.5 157.5
c20.667 32 36.834 61.167 48.501 87.5s20 54.5 25 84.5s8 55 9 75s1.5 51 1.5 93c0 177.333 -85.333 266 -256 266h-107v-525c0 -50 -14.167 -89 -42.5 -117s-65.166 -42 -110.499 -42s-82.333 14 -111 42s-43 67 -43 117v1029h-223c-46 0 -80.833 13.833 -104.5 41.5
s-35.5 60.834 -35.5 99.501z" />
    <glyph glyph-name="afii10052" unicode="&#x403;" horiz-adv-x="909" 
d="M92 147l-0.000976562 1151c0 44 14.5 81.667 43.5 113s67.833 47 116.5 47h524c42.667 0 76.167 -13.833 100.5 -41.5s36.5 -60.834 36.5 -99.501c0 -38 -12 -71 -36 -99s-57.667 -42 -101 -42h-377v-1029c0 -50 -14.167 -89 -42.5 -117s-65.166 -42 -110.499 -42
s-82.333 14 -111 42s-43 67 -43 117zM228.999 1706c0 15.333 5.33301 30.668 16 46.001s24.667 27.333 42 36l16 8l242 98c36 14 62 21 78 21c29.333 0 55 -13.833 77 -41.5s33 -56.167 33 -85.5c0 -58 -28 -98.333 -84 -121l-229 -90l-31 -13
c-13.333 -5.33301 -27.333 -8 -42 -8h-9c-29.333 0 -54.833 15.667 -76.5 47s-32.5 65.666 -32.5 102.999z" />
    <glyph glyph-name="afii10053" unicode="&#x404;" horiz-adv-x="1251" 
d="M51 729c0 105.333 17.3359 204.335 52.0029 297.002s82.5 172.667 143.5 240s135.5 120.333 223.5 159s183.333 58 286 58c42.667 0 87.167 -3.83301 133.5 -11.5s93.5 -19.5 141.5 -35.5s87.5 -40 118.5 -72s46.5 -69 46.5 -111c0 -38 -11.833 -70.333 -35.5 -97
s-54.167 -40 -91.5 -40c-22 0 -47.333 6 -76 18s-63 24 -103 36s-84.667 18 -134 18c-96.667 0 -176.334 -28.5 -239.001 -85.5s-105.334 -132.167 -128.001 -225.5h420c47.333 0 84 -14 110 -42s39 -61.333 39 -100c0 -38 -13.167 -71 -39.5 -99s-62.833 -42 -109.5 -42
h-426c21.333 -96.667 64.166 -174.834 128.499 -234.501s145.833 -89.5 244.5 -89.5c49.333 0 95 7.16699 137 21.5s78.333 28.666 109 42.999s57 21.5 79 21.5c41.333 0 74.333 -15.833 99 -47.5s37 -62.167 37 -91.5c0 -37.333 -11.333 -70.833 -34 -100.5
s-50.667 -53 -84 -70s-71.833 -31.167 -115.5 -42.5s-84 -19 -121 -23s-72.5 -6 -106.5 -6c-136 0 -258 33.333 -366 100s-191.5 157.167 -250.5 271.5s-88.5 241.833 -88.5 382.5z" />
    <glyph glyph-name="afii10054" unicode="&#x405;" horiz-adv-x="1099" 
d="M39 205c0 41.333 12.5 75.833 37.5 103.5s58.167 41.5 99.5 41.5c28.667 0 81.334 -13.333 158.001 -40s138.667 -40 186 -40c65.333 0 116.5 16.333 153.5 49s55.5 75 55.5 127c0 25.333 -7.83301 47.666 -23.5 66.999s-36.667 35.333 -63 48
s-56.666 24.334 -90.999 35.001l-108 32c-37.667 10.667 -75.334 22.5 -113.001 35.5s-73.667 29.5 -108 49.5s-64.666 43 -90.999 69s-47.333 59.167 -63 99.5s-23.5 85.833 -23.5 136.5c0 92.667 23.5 174.834 70.5 246.501s108.833 126 185.5 163s160.667 55.5 252 55.5
c26 0 54.833 -1.83301 86.5 -5.5s66.5 -10.5 104.5 -20.5s72.167 -22.333 102.5 -37s55.833 -34.334 76.5 -59.001s31 -52.334 31 -83.001c0 -41.333 -12.667 -77 -38 -107s-58.333 -45 -99 -45c-24.667 0 -65.167 10.333 -121.5 31s-106.5 31 -150.5 31
c-46.667 0 -86.334 -11.833 -119.001 -35.5s-49 -56.167 -49 -97.5c0 -22 7.83301 -41.5 23.5 -58.5s36.667 -31.167 63 -42.5s56.666 -22 90.999 -32l108 -32.5c37.667 -11.667 75.334 -24.667 113.001 -39s73.667 -32.833 108 -55.5s64.666 -48.834 90.999 -78.501
s47.333 -67.167 63 -112.5s23.5 -96.333 23.5 -153c0 -94.667 -24.167 -178.667 -72.5 -252s-112 -129 -191 -167s-165.833 -57 -260.5 -57c-29.333 0 -60 1.33301 -92 4s-67.667 6.83398 -107 12.501s-76 14.334 -110 26.001s-65.5 25.667 -94.5 42s-52 37 -69 62
s-25.5 52.833 -25.5 83.5z" />
    <glyph glyph-name="afii10055" unicode="&#x406;" horiz-adv-x="491" 
d="M92 147v1164c0 50 14.333 89 43 117s65.667 42 111 42s82.166 -14 110.499 -42s42.5 -67 42.5 -117v-1164c0 -50 -14.167 -89 -42.5 -117s-65.166 -42 -110.499 -42s-82.333 14 -111 42s-43 67 -43 117z" />
    <glyph glyph-name="afii10056" unicode="&#x407;" horiz-adv-x="491" 
d="M-127 1714c0 41.333 14.3311 76.335 42.998 105.002s63.334 43 104.001 43c41.333 0 76.333 -14.333 105 -43s43 -63.667 43 -105c0 -40.667 -14.333 -75.334 -43 -104.001s-63.667 -43 -105 -43s-76.166 14.167 -104.499 42.5s-42.5 63.166 -42.5 104.499z
M91.998 147.002v1164c0 50 14.333 89 43 117s65.667 42 111 42s82.166 -14 110.499 -42s42.5 -67 42.5 -117v-1164c0 -50 -14.167 -89 -42.5 -117s-65.166 -42 -110.499 -42s-82.333 14 -111 42s-43 67 -43 117zM323.998 1714c0 41.333 14.333 76.333 43 105
s63.334 43 104.001 43s75.334 -14.333 104.001 -43s43 -63.667 43 -105s-14.333 -76.166 -43 -104.499s-63.334 -42.5 -104.001 -42.5s-75.334 14.167 -104.001 42.5s-43 63.166 -43 104.499z" />
    <glyph glyph-name="afii10057" unicode="&#x408;" horiz-adv-x="833" 
d="M-29 209c0 30 11.167 58.334 33.5 85.001s49.5 40 81.5 40c26.667 0 66.5 -12.667 119.5 -38s95.167 -38 126.5 -38c22 0 40.667 4.16699 56 12.5s26.666 17.666 33.999 27.999s13 24.833 17 43.5s6.16699 33.167 6.5 43.5s0.5 25.166 0.5 44.499v881
c0 50 14.333 89 43 117s65.667 42 111 42s82.333 -14 111 -42s43 -67 43 -117v-901c0 -66 -8.16699 -125 -24.5 -177s-37.833 -93.833 -64.5 -125.5s-58.167 -57.667 -94.5 -78s-72.5 -34.5 -108.5 -42.5s-74 -12 -114 -12c-30 0 -61.167 2.33301 -93.5 7
s-65.666 12.834 -99.999 24.501s-64.833 26 -91.5 43s-48.667 39.333 -66 67s-26 58.5 -26 92.5z" />
    <glyph glyph-name="afii10058" unicode="&#x409;" horiz-adv-x="2097" 
d="M25 129c0 34.667 8.66699 62.3301 26 82.9971s46.666 40.667 87.999 60c52.667 23.333 97.667 68.666 135 135.999s56 154 56 260v630c0 49.333 14.333 88.333 43 117s65.334 43 110.001 43h713c45.333 0 82.333 -14.167 111 -42.5s43 -67.5 43 -117.5v-397h211
c75.333 0 143.833 -9 205.5 -27s115.5 -44.833 161.5 -80.5s81.667 -82.167 107 -139.5s38 -123.666 38 -198.999c0 -142 -43.333 -253.333 -130 -334s-202 -121 -346 -121h-391c-49.333 0 -89 12.333 -119 37s-45 61.334 -45 110.001v1041h-405v-459
c0 -126.667 -18.667 -247.667 -56 -363s-95 -206.666 -173 -273.999c-82 -69.333 -163.333 -104 -244 -104c-46 0 -80.667 13.833 -104 41.5s-35 60.834 -35 99.501zM1350 269.996l211 -0.000976562c56 0 102 17.333 138 52s54 80.334 54 137.001c0 50 -19 91.167 -57 123.5
s-91.333 48.5 -160 48.5h-186v-361z" />
    <glyph glyph-name="afii10059" unicode="&#x40a;" horiz-adv-x="2097" 
d="M92 147v1164c0 50 14.333 89 43 117s65.667 42 111 42s82.166 -14 110.499 -42s42.5 -67 42.5 -117v-434h643v434c0 50 14.333 89 43 117s65.667 42 111 42s82.333 -14 111 -42s43 -67 43 -117v-410h211c75.333 0 143.833 -9 205.5 -27s115.5 -44.833 161.5 -80.5
s81.667 -82.167 107 -139.5s38 -123.666 38 -198.999c0 -142 -43.333 -253.333 -130 -334s-202 -121 -346 -121h-391c-49.333 0 -89 12.333 -119 37s-45 61.334 -45 110.001v447h-643v-447c0 -50 -14.167 -89 -42.5 -117s-65.166 -42 -110.499 -42s-82.333 14 -111 42
s-43 67 -43 117zM1350 269.998l211 -0.000976562c56 0 102 17.333 138 52s54 80.334 54 137.001c0 50 -19 91.167 -57 123.5s-91.333 48.5 -160 48.5h-186v-361z" />
    <glyph glyph-name="afii10060" unicode="&#x40b;" horiz-adv-x="1366" 
d="M-25 1317c0 38 12.8301 71 38.4971 99s59.5 42 101.5 42h753c42 0 75.833 -14 101.5 -42s38.5 -61 38.5 -99c0 -38.667 -11.833 -71.834 -35.5 -99.501s-58.5 -41.5 -104.5 -41.5h-223v-222h127c164.667 0 297.334 -43 398.001 -129s151 -206.667 151 -362v-316
c0 -50 -14.333 -89 -43 -117s-65.667 -42 -111 -42s-82.166 14 -110.499 42s-42.5 67 -42.5 117v299c0 70 -23.833 125.167 -71.5 165.5s-111.167 60.5 -190.5 60.5h-107v-525c0 -50 -14.167 -89 -42.5 -117s-65.166 -42 -110.499 -42s-82.333 14 -111 42s-43 67 -43 117
v1029h-223c-46 0 -80.833 13.833 -104.5 41.5s-35.5 60.834 -35.5 99.501z" />
    <glyph glyph-name="afii10061" unicode="&#x40c;" horiz-adv-x="1251" 
d="M92 135l-0.00292969 1184c0 42.667 14.333 78.5 43 107.5s65.667 43.5 111 43.5c44.667 0 81.334 -13.667 110.001 -41s43 -64 43 -110v-442l504 536c34.667 38 74.334 57 119.001 57c40.667 0 76.167 -13.833 106.5 -41.5s45.5 -62.834 45.5 -105.501
c0 -25.333 -7.66699 -49.833 -23 -73.5s-41.333 -53.834 -78 -90.501l-387 -381l473 -493c28.667 -29.333 50.167 -55.833 64.5 -79.5s21.5 -49.167 21.5 -76.5c0 -45.333 -15.333 -80.166 -46 -104.499s-68.667 -36.5 -114 -36.5c-27.333 0 -52 7.33301 -74 22
s-49 39.334 -81 74.001l-531 573v-522c0 -40.667 -14.167 -75.334 -42.5 -104.001s-65.166 -43 -110.499 -43c-44.667 0 -81.5 13.5 -110.5 40.5s-43.5 62.5 -43.5 106.5zM392.997 1706c0 15.333 5.33398 30.668 16.001 46.001s24.667 27.333 42 36l16 8l242 98
c36 14 61.667 21 77 21c29.333 0 55.166 -13.833 77.499 -41.5s33.5 -56.167 33.5 -85.5c0 -58 -28 -98.333 -84 -121l-229 -90l-31 -13c-13.333 -5.33301 -27.333 -8 -42 -8h-9c-29.333 0 -54.833 15.667 -76.5 47s-32.5 65.666 -32.5 102.999z" />
    <glyph glyph-name="afii10062" unicode="&#x40e;" horiz-adv-x="1097" 
d="M-16 1323c0 41.333 16.667 76.165 50 104.498s71 42.5 113 42.5c58.667 0 102.667 -30 132 -90l270 -551l252 551c14 30 33 52.5 57 67.5s50 22.5 78 22.5c41.333 0 78.333 -14.167 111 -42.5s49 -63.166 49 -104.499c0 -18 -5.66699 -41.333 -17 -70l-538 -1175
c-14 -29.333 -32.667 -51.666 -56 -66.999s-48.333 -23 -75 -23c-42 0 -79.833 14 -113.5 42s-50.5 63 -50.5 105c0 20 5.33301 43.333 16 70l119 260l-381 786c-10.667 22 -16 46 -16 72zM201 1759c0 32.667 7.49902 61.332 22.499 85.999s38.167 37 69.5 37
c26 0 47 -4.83301 63 -14.5s28.333 -21.334 37 -35.001s17.667 -27.167 27 -40.5s24 -24.833 44 -34.5s45.667 -14.5 77 -14.5c32.667 0 59.667 4.83301 81 14.5s37.166 21.334 47.499 35.001l29.5 40.5c9.33301 13.333 22.833 24.833 40.5 34.5s40.167 14.5 67.5 14.5
c25.333 0 47 -13.333 65 -40s27 -54.334 27 -83.001c0 -46.667 -18.5 -86.667 -55.5 -120s-81.833 -57.166 -134.5 -71.499s-108.667 -21.5 -168 -21.5c-39.333 0 -78.166 4 -116.499 12s-74.666 20 -108.999 36s-62 38.333 -83 67s-31.5 61.334 -31.5 98.001z" />
    <glyph glyph-name="afii10145" unicode="&#x40f;" horiz-adv-x="1441" 
d="M92 160v1151c0 50 14.333 89 43 117s65.667 42 111 42s82.166 -14 110.499 -42s42.5 -67 42.5 -117v-1041h643v1041c0 50 14.333 89 43 117s65.667 42 111 42s82.333 -14 111 -42s43 -67 43 -117v-1151c0 -49.333 -14.5 -88.333 -43.5 -117s-65.833 -43 -110.5 -43h-328
v-229c0 -50 -14.167 -89.167 -42.5 -117.5s-65.166 -42.5 -110.499 -42.5s-82.333 14.167 -111 42.5s-43 67.5 -43 117.5v229h-315c-44.667 -0 -81.5 14.333 -110.5 43s-43.5 67.667 -43.5 117z" />
    <glyph glyph-name="afii10017" unicode="&#x410;" horiz-adv-x="1290" 
d="M4 131c0 22 4.66699 44.665 14 67.998l412 1114c18.667 49.333 47.334 90 86.001 122s83 48 133 48c52.667 0 97.667 -15.5 135 -46.5s65.333 -72.167 84 -123.5l402 -1114c10.667 -29.333 16 -54.666 16 -75.999c0 -39.333 -13.833 -71.666 -41.5 -96.999
s-60.834 -38 -99.501 -38c-76.667 0 -126.667 35.333 -150 106l-61 193h-569l-62 -191c-22.667 -72 -71.667 -108 -147 -108c-41.333 0 -77 13.667 -107 41s-45 61.333 -45 102zM453 568.998h389l-191 594h-4z" />
    <glyph glyph-name="afii10018" unicode="&#x411;" 
d="M92 156v1149c0 48 15 85.5 45 112.5s69 40.5 117 40.5h610c46.667 0 82.667 -13.833 108 -41.5s38 -60.834 38 -99.501c0 -38 -13 -71 -39 -99s-61.667 -42 -107 -42h-465v-295h242c76 0 144.667 -8.5 206 -25.5s115 -42.833 161 -77.5s81.667 -80.334 107 -137.001
s38 -122.334 38 -197.001c0 -141.333 -43 -250.666 -129 -327.999s-201.333 -116 -346 -116h-422c-48 0 -87.333 14.167 -118 42.5s-46 66.166 -46 113.499zM399 270.003h242c57.333 0 103.833 15.833 139.5 47.5s53.5 75.5 53.5 131.5c0 49.333 -18.833 88.5 -56.5 117.5
s-91.5 43.5 -161.5 43.5h-217v-340z" />
    <glyph glyph-name="afii10019" unicode="&#x412;" 
d="M92 156v1149c0 48 15 85.5 45 112.5s69 40.5 117 40.5h393c108.667 0 200 -33.333 274 -100s111 -153.334 111 -260.001c0 -142 -63.333 -242.333 -190 -301v-4c88 -12.667 161.833 -52 221.5 -118s89.5 -143 89.5 -231c0 -141.333 -43 -250.666 -129 -327.999
s-201.333 -116 -346 -116h-422c-48 0 -87.333 14.167 -118 42.5s-46 66.166 -46 113.499zM399 270.001h242c57.333 0 103.833 15.833 139.5 47.5s53.5 75.5 53.5 131.5c0 49.333 -18.833 88.5 -56.5 117.5s-91.5 43.5 -161.5 43.5h-217v-340zM399 881.001h160
c50.667 0 91 14.167 121 42.5s45 67.833 45 118.5c0 46 -15.833 81.833 -47.5 107.5s-71.167 38.5 -118.5 38.5h-160v-307z" />
    <glyph glyph-name="afii10020" unicode="&#x413;" horiz-adv-x="909" 
d="M92 147l-0.000976562 1151c0 44 14.5 81.667 43.5 113s67.833 47 116.5 47h524c42.667 0 76.167 -13.833 100.5 -41.5s36.5 -60.834 36.5 -99.501c0 -38 -12 -71 -36 -99s-57.667 -42 -101 -42h-377v-1029c0 -50 -14.167 -89 -42.5 -117s-65.166 -42 -110.499 -42
s-82.333 14 -111 42s-43 67 -43 117z" />
    <glyph glyph-name="afii10021" unicode="&#x414;" horiz-adv-x="1503" 
d="M10 111c0 49.333 14.667 88.165 44 116.498s66 42.5 110 42.5c19.333 0 40.666 40 63.999 120s42.666 175.833 57.999 287.5s23 210.834 23 297.501v323c0 49.333 14.5 88.333 43.5 117s65.833 43 110.5 43h692c44.667 0 81.5 -14.333 110.5 -43s43.5 -67.667 43.5 -117
v-1028h30c44.667 0 81.5 -14.167 110.5 -42.5s43.5 -67.166 43.5 -116.499v-283c0 -50 -14.333 -89.167 -43 -117.5s-65.667 -42.5 -111 -42.5s-82.166 14.167 -110.499 42.5s-42.5 67.5 -42.5 117.5v172h-869v-172c0 -50 -14.167 -89.167 -42.5 -117.5
s-65.166 -42.5 -110.499 -42.5s-82.333 14.167 -111 42.5s-43 67.5 -43 117.5v283zM498 269.999h503v918h-385v-193c0 -124 -11.5 -258 -34.5 -402s-50.833 -251.667 -83.5 -323z" />
    <glyph glyph-name="afii10022" unicode="&#x415;" horiz-adv-x="948" 
d="M92 154l0.00195312 1126c0 53.333 13.5 96.333 40.5 129s66.833 49 119.5 49h508c46 0 81.667 -13.833 107 -41.5s38 -60.834 38 -99.501c0 -38 -12.833 -71 -38.5 -99s-61.167 -42 -106.5 -42h-361v-299h336c47.333 0 84.166 -14 110.499 -42s39.5 -61.333 39.5 -100
c0 -38 -13.333 -71 -40 -99s-63.334 -42 -110.001 -42h-336v-311h379c46 0 81.833 -14 107.5 -42s38.5 -61.333 38.5 -100c0 -38 -13 -71 -39 -99s-61.667 -42 -107 -42h-528c-45.333 -0 -83 14.333 -113 43s-45 65.667 -45 111z" />
    <glyph glyph-name="afii10024" unicode="&#x416;" horiz-adv-x="2007" 
d="M4 129c0 27.333 7.16309 52.834 21.4961 76.501s35.833 50.167 64.5 79.5l473 493l-387 381c-36 36 -61.667 66 -77 90s-23 48.667 -23 74c0 42.667 15 77.834 45 105.501s65.333 41.5 106 41.5c44.667 0 84.334 -19 119.001 -57l504 -536v442
c0 42.667 14.333 78.5 43 107.5s65.667 43.5 111 43.5c44.667 0 81.334 -13.667 110.001 -41s43 -64 43 -110v-442l504 536c34.667 38 74.334 57 119.001 57c40.667 0 76 -13.833 106 -41.5s45 -62.834 45 -105.501c0 -25.333 -7.66699 -50 -23 -74s-41 -54 -77 -90
l-387 -381l473 -493c28.667 -29.333 50.167 -55.833 64.5 -79.5s21.5 -49.167 21.5 -76.5c0 -45.333 -15.333 -80.166 -46 -104.499s-68.667 -36.5 -114 -36.5c-27.333 0 -52 7.33301 -74 22s-49 39.334 -81 74.001l-531 573v-522c0 -40.667 -14.167 -75.334 -42.5 -104.001
s-65.166 -43 -110.499 -43c-44.667 0 -81.5 13.5 -110.5 40.5s-43.5 62.5 -43.5 106.5v522l-531 -573c-32 -34.667 -59 -59.334 -81 -74.001s-46.667 -22 -74 -22c-45.333 0 -83.333 12.167 -114 36.5s-46 59.166 -46 104.499z" />
    <glyph glyph-name="afii10025" unicode="&#x417;" horiz-adv-x="1099" 
d="M25 217c0 41.333 12.501 75.835 37.501 103.502s58.167 41.5 99.5 41.5c20.667 0 43.5 -5.33301 68.5 -16s48.5 -22.667 70.5 -36s51.5 -25.333 88.5 -36s76.5 -16 118.5 -16c53.333 0 98.666 18.333 135.999 55s56 82 56 136c0 21.333 -2.16699 40.666 -6.5 57.999
s-9.66602 31.833 -15.999 43.5s-15.5 22 -27.5 31s-22.667 16.167 -32 21.5s-22.333 10.166 -39 14.499s-30 7.33301 -40 9s-24.333 3.83398 -43 6.50098c-25.333 3.33301 -46.333 7.16602 -63 11.499s-33.5 11.166 -50.5 20.499s-29.667 22.333 -38 39
s-12.5 37.334 -12.5 62.001c0 19.333 3 36.333 9 51s12.167 26.167 18.5 34.5s17.5 16.333 33.5 24s28 12.834 36 15.501s23 6.66699 45 12s36 8.66602 42 9.99902c39.333 10.667 70.333 27.167 93 49.5s34 55.833 34 100.5c0 40 -13.167 72.833 -39.5 98.5
s-62.166 38.5 -107.499 38.5c-40.667 0 -80 -7.16699 -118 -21.5s-72.167 -28.666 -102.5 -42.999s-56.5 -21.5 -78.5 -21.5c-40.667 0 -73.834 15 -99.501 45s-38.5 65.667 -38.5 107c0 38 15.833 71.833 47.5 101.5s72 52.5 121 68.5s98 27.833 147 35.5
s95.5 11.5 139.5 11.5c141.333 0 249.333 -35.167 324 -105.5s112 -160.166 112 -269.499c0 -68.667 -14.833 -131.167 -44.5 -187.5s-74.834 -98.166 -135.501 -125.499c78 -20 141.167 -65.333 189.5 -136s72.5 -147.667 72.5 -231c0 -61.333 -12.333 -119.5 -37 -174.5
s-59 -103.167 -103 -144.5s-98.5 -74 -163.5 -98s-135.833 -36 -212.5 -36c-35.333 0 -72.833 2.16699 -112.5 6.5s-82.5 12.166 -128.5 23.499s-87 25.666 -123 42.999s-66.167 40.666 -90.5 69.999s-36.5 62.333 -36.5 99z" />
    <glyph glyph-name="afii10026" unicode="&#x418;" horiz-adv-x="1441" 
d="M92 147l0.000976562 1164c0 50 14.333 89 43 117s65.667 42 111 42s82.166 -14 110.499 -42s42.5 -67 42.5 -117v-774h4l664 866c16.667 21.333 37 37.833 61 49.5s46.667 17.5 68 17.5c45.333 0 82.333 -14 111 -42s43 -67 43 -117v-1164c0 -50 -14.333 -89 -43 -117
s-65.667 -42 -111 -42s-82.333 14 -111 42s-43 67 -43 117v764h-4l-663 -856c-16.667 -21.333 -37 -37.833 -61 -49.5s-46.667 -17.5 -68 -17.5c-45.333 0 -82.333 14 -111 42s-43 67 -43 117z" />
    <glyph glyph-name="afii10027" unicode="&#x419;" horiz-adv-x="1441" 
d="M92 147l0.000976562 1164c0 50 14.333 89 43 117s65.667 42 111 42s82.166 -14 110.499 -42s42.5 -67 42.5 -117v-774h4l664 866c16.667 21.333 37 37.833 61 49.5s46.667 17.5 68 17.5c45.333 0 82.333 -14 111 -42s43 -67 43 -117v-1164c0 -50 -14.333 -89 -43 -117
s-65.667 -42 -111 -42s-82.333 14 -111 42s-43 67 -43 117v764h-4l-663 -856c-16.667 -21.333 -37 -37.833 -61 -49.5s-46.667 -17.5 -68 -17.5c-45.333 0 -82.333 14 -111 42s-43 67 -43 117zM385.001 1759c0 32.667 7.49902 61.332 22.499 85.999s38.167 37 69.5 37
c26 0 47 -4.83301 63 -14.5s28.333 -21.334 37 -35.001s17.667 -27.167 27 -40.5s24 -24.833 44 -34.5s45.667 -14.5 77 -14.5c32.667 0 59.667 4.83301 81 14.5s37.166 21.334 47.499 35.001l29.5 40.5c9.33301 13.333 22.833 24.833 40.5 34.5s40.167 14.5 67.5 14.5
c25.333 0 47 -13.333 65 -40s27 -54.334 27 -83.001c0 -46.667 -18.5 -86.667 -55.5 -120s-81.833 -57.166 -134.5 -71.499s-108.667 -21.5 -168 -21.5c-39.333 0 -78.166 4 -116.499 12s-74.666 20 -108.999 36s-62 38.333 -83 67s-31.5 61.334 -31.5 98.001z" />
    <glyph glyph-name="afii10028" unicode="&#x41a;" horiz-adv-x="1251" 
d="M92 135l-0.00292969 1184c0 42.667 14.333 78.5 43 107.5s65.667 43.5 111 43.5c44.667 0 81.334 -13.667 110.001 -41s43 -64 43 -110v-442l504 536c34.667 38 74.334 57 119.001 57c40.667 0 76.167 -13.833 106.5 -41.5s45.5 -62.834 45.5 -105.501
c0 -25.333 -7.66699 -49.833 -23 -73.5s-41.333 -53.834 -78 -90.501l-387 -381l473 -493c28.667 -29.333 50.167 -55.833 64.5 -79.5s21.5 -49.167 21.5 -76.5c0 -45.333 -15.333 -80.166 -46 -104.499s-68.667 -36.5 -114 -36.5c-27.333 0 -52 7.33301 -74 22
s-49 39.334 -81 74.001l-531 573v-522c0 -40.667 -14.167 -75.334 -42.5 -104.001s-65.166 -43 -110.499 -43c-44.667 0 -81.5 13.5 -110.5 40.5s-43.5 62.5 -43.5 106.5z" />
    <glyph glyph-name="afii10029" unicode="&#x41b;" horiz-adv-x="1441" 
d="M25 129c0 34.667 8.66699 62.332 26 82.999s46.666 40.667 87.999 60c52.667 23.333 97.667 68.666 135 135.999s56 154 56 260v630c0 49.333 14.333 88.333 43 117s65.334 43 110.001 43h713c44.667 0 81.5 -14.333 110.5 -43s43.5 -67.667 43.5 -117v-1151
c0 -50 -14.333 -89 -43 -117s-65.667 -42 -111 -42s-82.333 14 -111 42s-43 67 -43 117v1041h-405v-459c0 -126.667 -18.667 -247.667 -56 -363s-95 -206.666 -173 -273.999c-82 -69.333 -163.333 -104 -244 -104c-46 0 -80.667 13.833 -104 41.5s-35 60.834 -35 99.501z
" />
    <glyph glyph-name="afii10030" unicode="&#x41c;" horiz-adv-x="1781" 
d="M49 135c0 15.333 0.666016 27 1.99902 35l191 1143c6.66699 40 28.834 76.167 66.501 108.5s82.167 48.5 133.5 48.5c48.667 0 92 -14.667 130 -44s63 -63.666 75 -102.999l242 -811h4l242 811c12 39.333 36.833 73.666 74.5 102.999s80.834 44 129.501 44
c51.333 0 96 -16.167 134 -48.5s60.333 -68.5 67 -108.5l191 -1143c1.33301 -8 2 -19.667 2 -35c0 -44 -14.167 -79.5 -42.5 -106.5s-63.5 -40.5 -105.5 -40.5c-50.667 0 -88.167 11.5 -112.5 34.5s-40.166 59.167 -47.499 108.5l-120 834h-5l-245 -859
c-22.667 -78.667 -77.334 -118 -164.001 -118s-141.334 39.333 -164.001 118l-246 859h-4l-121 -834c-7.33301 -49.333 -23 -85.5 -47 -108.5s-61.333 -34.5 -112 -34.5c-42 0 -77.167 13.5 -105.5 40.5s-42.5 62.5 -42.5 106.5z" />
    <glyph glyph-name="afii10031" unicode="&#x41d;" horiz-adv-x="1441" 
d="M92 147v1164c0 50 14.333 89 43 117s65.667 42 111 42s82.166 -14 110.499 -42s42.5 -67 42.5 -117v-434h643v434c0 50 14.333 89 43 117s65.667 42 111 42s82.333 -14 111 -42s43 -67 43 -117v-1164c0 -50 -14.333 -89 -43 -117s-65.667 -42 -111 -42
s-82.333 14 -111 42s-43 67 -43 117v447h-643v-447c0 -50 -14.167 -89 -42.5 -117s-65.166 -42 -110.499 -42s-82.333 14 -111 42s-43 67 -43 117z" />
    <glyph glyph-name="afii10032" unicode="&#x41e;" horiz-adv-x="1478" 
d="M35 729c0 141.333 29.3311 269.167 87.998 383.5s141.834 204.666 249.501 270.999s229.834 99.5 366.501 99.5c134.667 0 256 -33.833 364 -101.5s191.833 -158.834 251.5 -273.501s89.5 -241 89.5 -379c0 -105.333 -17.167 -204.166 -51.5 -296.499
s-82 -172.166 -143 -239.499s-135.667 -120.5 -224 -159.5s-183.833 -58.5 -286.5 -58.5c-136 0 -257.833 33.333 -365.5 100s-191 157.167 -250 271.5s-88.5 241.833 -88.5 382.5zM353.998 729.001c0 -86 13.6689 -163.833 41.002 -233.5s70.666 -126.667 129.999 -171
s130.666 -66.5 213.999 -66.5s154.666 22.167 213.999 66.5s102.666 101.333 129.999 171s41 147.5 41 233.5c0 62.667 -8.16699 122 -24.5 178s-40.166 106 -71.499 150s-71.833 78.833 -121.5 104.5s-105.5 38.5 -167.5 38.5s-117.833 -12.833 -167.5 -38.5
s-90.167 -60.5 -121.5 -104.5s-55.166 -94 -71.499 -150s-24.5 -115.333 -24.5 -178z" />
    <glyph glyph-name="afii10033" unicode="&#x41f;" horiz-adv-x="1441" 
d="M92 147l-0.000976562 1151c0 49.333 14.5 88.333 43.5 117s65.833 43 110.5 43h950c44.667 0 81.5 -14.333 110.5 -43s43.5 -67.667 43.5 -117v-1151c0 -50 -14.333 -89 -43 -117s-65.667 -42 -111 -42s-82.333 14 -111 42s-43 67 -43 117v1041h-643v-1041
c0 -50 -14.167 -89 -42.5 -117s-65.166 -42 -110.499 -42s-82.333 14 -111 42s-43 67 -43 117z" />
    <glyph glyph-name="afii10034" unicode="&#x420;" horiz-adv-x="1138" 
d="M92 147l-0.00195312 1151c0 48.667 14.167 87.5 42.5 116.5s67.5 43.5 117.5 43.5h362c152 0 277.5 -45.167 376.5 -135.5s148.5 -208.166 148.5 -353.499c0 -72.667 -13.5 -139.834 -40.5 -201.501s-63.667 -113 -110 -154s-100.666 -73 -162.999 -96
s-128.5 -34.5 -198.5 -34.5h-228v-336c0 -50 -14.167 -89 -42.5 -117s-65.166 -42 -110.499 -42s-82.333 14 -111 42s-43 67 -43 117zM398.998 754h209c63.333 0 114.333 20.5 153 61.5s58 92.833 58 155.5s-19.333 114.5 -58 155.5s-89.667 61.5 -153 61.5h-209v-434z" />
    <glyph glyph-name="afii10035" unicode="&#x421;" horiz-adv-x="1251" 
d="M35 729c0 141.333 29.332 269.17 87.999 383.503s141.834 204.666 249.501 270.999s229.834 99.5 366.501 99.5c42.667 0 87.167 -3.83301 133.5 -11.5s93.666 -19.5 141.999 -35.5s88 -40 119 -72s46.5 -69 46.5 -111c0 -38 -11.833 -70.333 -35.5 -97
s-54.167 -40 -91.5 -40c-22 0 -47.333 6 -76 18s-63.167 24 -103.5 36s-85.166 18 -134.499 18c-62 0 -117.667 -12.5 -167 -37.5s-89.666 -58.833 -120.999 -101.5s-55.333 -91.834 -72 -147.501s-25 -115.167 -25 -178.5c0 -62 8.33301 -120 25 -174
s40.834 -101.833 72.501 -143.5s72.167 -74.667 121.5 -99s104.666 -36.5 165.999 -36.5c49.333 0 95.166 7.16699 137.499 21.5s78.833 28.666 109.5 42.999s57 21.5 79 21.5c41.333 0 74.166 -15.833 98.499 -47.5s36.5 -62.167 36.5 -91.5
c0 -37.333 -11.333 -70.833 -34 -100.5s-50.667 -53 -84 -70s-71.833 -31.167 -115.5 -42.5s-84 -19 -121 -23s-72.5 -6 -106.5 -6c-136 0 -257.833 33.333 -365.5 100s-191 157.167 -250 271.5s-88.5 241.833 -88.5 382.5z" />
    <glyph glyph-name="afii10036" unicode="&#x422;" horiz-adv-x="983" 
d="M-25 1317c0 38 12.832 71 38.499 99s59.5 42 101.5 42h753c42 0 75.833 -14 101.5 -42s38.5 -61 38.5 -99c0 -38.667 -11.833 -71.834 -35.5 -99.501s-58.5 -41.5 -104.5 -41.5h-223v-1029c0 -50 -14.167 -89 -42.5 -117s-65.166 -42 -110.499 -42s-82.333 14 -111 42
s-43 67 -43 117v1029h-223c-46 0 -80.833 13.833 -104.5 41.5s-35.5 60.834 -35.5 99.501z" />
    <glyph glyph-name="afii10037" unicode="&#x423;" horiz-adv-x="1097" 
d="M-16 1323c0 41.333 16.667 76.165 50 104.498s71 42.5 113 42.5c58.667 0 102.667 -30 132 -90l270 -551l252 551c14 30 33 52.5 57 67.5s50 22.5 78 22.5c41.333 0 78.333 -14.167 111 -42.5s49 -63.166 49 -104.499c0 -18 -5.66699 -41.333 -17 -70l-538 -1175
c-14 -29.333 -32.667 -51.666 -56 -66.999s-48.333 -23 -75 -23c-42 0 -79.833 14 -113.5 42s-50.5 63 -50.5 105c0 20 5.33301 43.333 16 70l119 260l-381 786c-10.667 22 -16 46 -16 72z" />
    <glyph glyph-name="afii10038" unicode="&#x424;" horiz-adv-x="1710" 
d="M31 735c0 77.333 13.002 150.833 39.002 220.5s61.667 130.167 107 181.5s100.833 92.166 166.5 122.499s136.167 45.5 211.5 45.5c34 0 82.333 -5.66699 145 -17v23c0 50 14.333 89 43 117s65.667 42 111 42s82.333 -14 111 -42s43 -67 43 -117v-23
c62 11.333 110.333 17 145 17c75.333 0 145.833 -15.167 211.5 -45.5s121.167 -71.166 166.5 -122.499s81 -111.833 107 -181.5s39 -143.167 39 -220.5c0 -102.667 -22.333 -197.334 -67 -284.001s-107.334 -155.5 -188.001 -206.5s-170.334 -76.5 -269.001 -76.5
c-47.333 0 -95.666 6.66699 -144.999 20v-41c0 -50 -14.333 -89 -43 -117s-65.667 -42 -111 -42s-82.333 14 -111 42s-43 67 -43 117v41c-49.333 -13.333 -97.666 -20 -144.999 -20c-98.667 0 -188.334 25.5 -269.001 76.5s-143.334 119.833 -188.001 206.5
s-67 181.334 -67 284.001zM350.002 735c0 -84.667 27.5 -153.167 82.5 -205.5s121.167 -78.5 198.5 -78.5c18.667 0 44.667 5.33301 78 16v541c-31.333 9.33301 -57.333 14 -78 14c-76.667 0 -142.667 -27 -198 -81s-83 -122.667 -83 -206zM999.002 467
c33.333 -10.667 59.333 -16 78 -16c77.333 0 143.5 26.167 198.5 78.5s82.5 120.833 82.5 205.5c0 83.333 -27.667 152 -83 206s-121.333 81 -198 81c-20.667 0 -46.667 -4.66699 -78 -14v-541z" />
    <glyph glyph-name="afii10039" unicode="&#x425;" horiz-adv-x="1253" 
d="M8 131c0 36.667 11.667 71.667 35 105l406 544l-332 451c-22 30 -33 60 -33 90c0 44 14.833 79.833 44.5 107.5s66.834 41.5 111.501 41.5c24.667 0 49.167 -7.16699 73.5 -21.5s44.166 -32.166 59.499 -53.499l254 -361l254 361
c15.333 21.333 35.166 39.166 59.499 53.499s48.833 21.5 73.5 21.5c44.667 0 81.667 -13.667 111 -41s44 -63.333 44 -108c0 -31.333 -10.667 -61.333 -32 -90l-332 -451l405 -544c23.333 -33.333 35 -68.333 35 -105c0 -42.667 -14.5 -77.167 -43.5 -103.5
s-66.167 -39.5 -111.5 -39.5c-52.667 0 -95 22.333 -127 67l-336 467l-336 -467c-32 -44.667 -74.333 -67 -127 -67c-45.333 0 -82.666 13.167 -111.999 39.5s-44 60.833 -44 103.5z" />
    <glyph glyph-name="afii10040" unicode="&#x426;" horiz-adv-x="1544" 
d="M92 160l-0.000976562 1151c0 50 14.333 89 43 117s65.667 42 111 42s82.166 -14 110.499 -42s42.5 -67 42.5 -117v-1041h643v1041c0 50 14.333 89 43 117s65.667 42 111 42s82.333 -14 111 -42s43 -67 43 -117v-1041h51c44.667 0 81.334 -14.167 110.001 -42.5
s43 -67.166 43 -116.499v-283c0 -50 -14.167 -89.167 -42.5 -117.5s-65.166 -42.5 -110.499 -42.5s-82.333 14.167 -111 42.5s-43 67.5 -43 117.5v172h-1001c-44.667 -0 -81.5 14.333 -110.5 43s-43.5 67.667 -43.5 117z" />
    <glyph glyph-name="afii10041" unicode="&#x427;" horiz-adv-x="1290" 
d="M72 995l0.000976562 316c0 50 14.167 89 42.5 117s65.166 42 110.499 42s82.333 -14 111 -42s43 -67 43 -117v-299c0 -68.667 26.833 -123.5 80.5 -164.5s121.167 -61.5 202.5 -61.5h229v525c0 50 14.167 89 42.5 117s65.166 42 110.499 42s82.333 -14 111 -42
s43 -67 43 -117v-1164c0 -50 -14.333 -89 -43 -117s-65.667 -42 -111 -42s-82.166 14 -110.499 42s-42.5 67 -42.5 117v357h-250c-106.667 0 -203.167 20.333 -289.5 61s-154.5 98.5 -204.5 173.5s-75 160.5 -75 256.5z" />
    <glyph glyph-name="afii10042" unicode="&#x428;" horiz-adv-x="2088" 
d="M92 160l0.00390625 1151c0 50 14.333 89 43 117s65.667 42 111 42s82.166 -14 110.499 -42s42.5 -67 42.5 -117v-1041h500v1041c0 50 14.333 89 43 117s65.667 42 111 42s82.166 -14 110.499 -42s42.5 -67 42.5 -117v-1041h500v1041c0 50 14.333 89 43 117
s65.667 42 111 42s82.166 -14 110.499 -42s42.5 -67 42.5 -117v-1151c0 -49.333 -14.333 -88.333 -43 -117s-65.334 -43 -110.001 -43h-1614c-44.667 -0 -81.5 14.333 -110.5 43s-43.5 67.667 -43.5 117z" />
    <glyph glyph-name="afii10043" unicode="&#x429;" horiz-adv-x="2191" 
d="M92 160l0.00195312 1151c0 50 14.333 89 43 117s65.667 42 111 42s82.166 -14 110.499 -42s42.5 -67 42.5 -117v-1041h500v1041c0 50 14.333 89 43 117s65.667 42 111 42s82.166 -14 110.499 -42s42.5 -67 42.5 -117v-1041h500v1041c0 50 14.333 89 43 117
s65.667 42 111 42s82.166 -14 110.499 -42s42.5 -67 42.5 -117v-1041h51c44.667 0 81.5 -14.167 110.5 -42.5s43.5 -67.166 43.5 -116.499v-283c0 -50 -14.333 -89.167 -43 -117.5s-65.667 -42.5 -111 -42.5s-82.166 14.167 -110.499 42.5s-42.5 67.5 -42.5 117.5v172h-1665
c-44.667 -0 -81.5 14.333 -110.5 43s-43.5 67.667 -43.5 117z" />
    <glyph glyph-name="afii10044" unicode="&#x42a;" horiz-adv-x="1484" 
d="M-25 1317c0 38 12.833 70.999 38.5 98.999s59.5 42 101.5 42h458c45.333 0 82.333 -14.167 111 -42.5s43 -67.5 43 -117.5v-397h201c75.333 0 143.833 -9 205.5 -27s115.5 -44.833 161.5 -80.5s81.667 -82.167 107 -139.5s38 -123.666 38 -198.999
c0 -142.667 -43.167 -254.167 -129.5 -334.5s-201.5 -120.5 -345.5 -120.5h-381c-48 0 -87.333 14.167 -118 42.5s-46 66.166 -46 113.499v1020h-305c-46 0 -80.833 13.833 -104.5 41.5s-35.5 60.834 -35.5 99.501zM727 269.999l201 -0.000976562c56 0 102 17.333 138 52
s54 80.334 54 137.001c0 50 -19 91.167 -57 123.5s-91.333 48.5 -160 48.5h-176v-361z" />
    <glyph glyph-name="afii10045" unicode="&#x42b;" horiz-adv-x="1689" 
d="M92 156l0.000976562 1155c0 50 14.333 89 43 117s65.667 42 111 42s82.166 -14 110.499 -42s42.5 -67 42.5 -117v-410h211c75.333 0 143.833 -9 205.5 -27s115.5 -44.833 161.5 -80.5s81.667 -82.167 107 -139.5s38 -123.666 38 -198.999
c0 -142.667 -43.167 -254.167 -129.5 -334.5s-201.5 -120.5 -345.5 -120.5h-391c-48 0 -87.333 14.167 -118 42.5s-46 66.166 -46 113.499zM399.001 270l211 -0.000976562c56 0 102.167 17.333 138.5 52s54.5 80.334 54.5 137.001c0 50 -19 91.167 -57 123.5
s-91.333 48.5 -160 48.5h-187v-361zM1290 146.999v1164c0 50 14.333 89 43 117s65.667 42 111 42s82.166 -14 110.499 -42s42.5 -67 42.5 -117v-1164c0 -50 -14.167 -89 -42.5 -117s-65.166 -42 -110.499 -42s-82.333 14 -111 42s-43 67 -43 117z" />
    <glyph glyph-name="afii10046" unicode="&#x42c;" horiz-adv-x="1138" 
d="M92 156l0.000976562 1155c0 50 14.333 89 43 117s65.667 42 111 42s82.166 -14 110.499 -42s42.5 -67 42.5 -117v-410h211c75.333 0 143.833 -9 205.5 -27s115.5 -44.833 161.5 -80.5s81.667 -82.167 107 -139.5s38 -123.666 38 -198.999
c0 -142.667 -43.167 -254.167 -129.5 -334.5s-201.5 -120.5 -345.5 -120.5h-391c-48 0 -87.333 14.167 -118 42.5s-46 66.166 -46 113.499zM399.001 270l211 -0.000976562c56 0 102.167 17.333 138.5 52s54.5 80.334 54.5 137.001c0 50 -19 91.167 -57 123.5
s-91.333 48.5 -160 48.5h-187v-361z" />
    <glyph glyph-name="afii10047" unicode="&#x42d;" horiz-adv-x="1251" 
d="M57 217c0 29.333 12.3379 59.8311 37.0049 91.498s57.667 47.5 99 47.5c22 0 48.333 -7.16699 79 -21.5s67 -28.666 109 -42.999s87.667 -21.5 137 -21.5c98.667 0 180.167 29.833 244.5 89.5s107.166 137.834 128.499 234.501h-426c-46.667 0 -83.334 14 -110.001 42
s-40 61 -40 99c0 38.667 13.167 72 39.5 100s63.166 42 110.499 42h420c-22.667 93.333 -65.334 168.5 -128.001 225.5s-142.334 85.5 -239.001 85.5c-49.333 0 -94 -6 -134 -18s-74.333 -24 -103 -36s-54 -18 -76 -18c-37.333 0 -67.833 13.333 -91.5 40s-35.5 59 -35.5 97
c0 42 15.5 79 46.5 111s70.5 56 118.5 72s95.167 27.833 141.5 35.5s90.833 11.5 133.5 11.5c102.667 0 198 -19.333 286 -58s162.5 -91.667 223.5 -159s108.833 -147.333 143.5 -240s52 -191.667 52 -297c0 -140.667 -29.5 -268.167 -88.5 -382.5
s-142.5 -204.833 -250.5 -271.5s-230 -100 -366 -100c-34 0 -69.5 2 -106.5 6s-77.333 11.667 -121 23s-82.167 25.5 -115.5 42.5s-61.333 40.333 -84 70s-34 63.167 -34 100.5z" />
    <glyph glyph-name="afii10048" unicode="&#x42e;" horiz-adv-x="2048" 
d="M92 147l-0.000976562 1164c0 50 14.333 89 43 117s65.667 42 111 42s82.166 -14 110.499 -42s42.5 -67 42.5 -117v-434h203c28.667 178.667 105.667 324.334 231 437.001s279 169 461 169c134.667 0 256 -33.833 364 -101.5s191.833 -158.834 251.5 -273.501
s89.5 -241 89.5 -379c0 -105.333 -17.167 -204.166 -51.5 -296.499s-82 -172.166 -143 -239.499s-135.667 -120.5 -224 -159.5s-183.833 -58.5 -286.5 -58.5c-91.333 0 -177 15.5 -257 46.5s-149.667 74 -209 129s-108.666 120.5 -147.999 196.5s-66 158.333 -80 247h-201
v-447c0 -50 -14.167 -89 -42.5 -117s-65.166 -42 -110.499 -42s-82.333 14 -111 42s-43 67 -43 117zM908.999 728.998c0 -86 13.6689 -163.833 41.002 -233.5s70.666 -126.667 129.999 -171s130.666 -66.5 213.999 -66.5s154.666 22.167 213.999 66.5
s102.666 101.333 129.999 171s41 147.5 41 233.5c0 62.667 -8.16699 122 -24.5 178s-40.166 106 -71.499 150s-71.833 78.833 -121.5 104.5s-105.5 38.5 -167.5 38.5s-117.833 -12.833 -167.5 -38.5s-90.167 -60.5 -121.5 -104.5s-55.166 -94 -71.499 -150
s-24.5 -115.333 -24.5 -178z" />
    <glyph glyph-name="afii10049" unicode="&#x42f;" horiz-adv-x="1138" 
d="M39 145c0 31.333 13.665 61.667 40.998 91l348 372c-111.333 17.333 -202.333 59.333 -273 126s-106 153.667 -106 261c0 156.667 44.333 273 133 349s214.334 114 377.001 114h361c50 0 88.667 -14.167 116 -42.5s41 -67.5 41 -117.5v-1151
c0 -50 -14.167 -89 -42.5 -117s-65.166 -42 -110.499 -42s-82.333 14 -111 42s-43 67 -43 117v445h-4l-455 -551c-30 -35.333 -69.333 -53 -118 -53c-44 0 -80.667 15.833 -110 47.5s-44 68.167 -44 109.5zM368.998 995.001c0 -56.667 17.333 -101.167 52 -133.5
s80.667 -48.5 138 -48.5h211v363h-211c-58 0 -104.167 -15.833 -138.5 -47.5s-51.5 -76.167 -51.5 -133.5z" />
    <glyph glyph-name="afii10065" unicode="&#x430;" horiz-adv-x="1087" 
d="M47 328c0 255.333 224.002 383 672.002 383v80c0 51.333 -43 77 -129 77c-38.667 0 -73.667 -5.16699 -105 -15.5s-55 -21.833 -71 -34.5s-33.333 -24.167 -52 -34.5s-36.334 -15.5 -53.001 -15.5c-42.667 0 -74.834 12.5 -96.501 37.5s-32.5 54.167 -32.5 87.5
c0 38 22.167 74.333 66.5 109s98 62 161 82s123.833 30 182.5 30c136 0 240.667 -28.333 314 -85s110 -138.334 110 -245.001v-639c0 -44 -13.5 -81.167 -40.5 -111.5s-61.5 -45.5 -103.5 -45.5c-36 0 -65.5 7.33301 -88.5 22s-39.833 43.334 -50.5 86.001
c-24 -38 -62.667 -67.667 -116 -89s-106.666 -32 -159.999 -32c-122.667 0 -221.334 30.667 -296.001 92s-112 148.333 -112 261zM330.002 328c0 -25.333 9.00098 -46.332 27.001 -62.999s39.667 -28.167 65 -34.5s54 -9.5 86 -9.5c148.667 0 223 73.667 223 221v47
c-108.667 0 -174.334 -1 -197.001 -3c-106 -8.66699 -170.333 -41.334 -193 -98.001c-7.33301 -18 -11 -38 -11 -60z" />
    <glyph glyph-name="afii10066" unicode="&#x431;" horiz-adv-x="1138" 
d="M41 678c0 110 15.667 219.998 47 329.998s71 188.333 119 235c21.333 20.667 39.333 36.834 54 48.501s37.167 26.334 67.5 44.001s62.666 31.834 96.999 42.501s79.5 21.334 135.5 32.001s119.667 18.667 191 24c15.333 1.33301 37.833 9.83301 67.5 25.5
s52.834 23.5 69.501 23.5c37.333 0 69.166 -12.833 95.499 -38.5s39.5 -54.5 39.5 -86.5c0 -43.333 -19.833 -82.833 -59.5 -118.5s-94.167 -55.5 -163.5 -59.5c-179.333 -8.66699 -313.333 -36 -402 -82c-24 -12.667 -47.167 -34.667 -69.5 -66s-34.5 -60 -36.5 -86l6 -6
c26 33.333 66.833 63.166 122.5 89.499s111.834 39.5 168.501 39.5c94 0 180.333 -25.833 259 -77.5s139.834 -119.334 183.501 -203.001s65.5 -173.167 65.5 -268.5c0 -98.667 -21.667 -189.167 -65 -271.5s-105.833 -148.5 -187.5 -198.5s-173.834 -75 -276.501 -75
c-124.667 0 -228.5 32.667 -311.5 98s-142.833 153 -179.5 263c-24.667 73.333 -37 187.333 -37 342zM336 529.998c0 -34.667 4.83105 -68.4971 14.498 -101.497s23.667 -63.333 42 -91s42.666 -49.834 72.999 -66.501s64.833 -25 103.5 -25
c50.667 0 94.334 14.667 131.001 44s63 64.833 79 106.5s24 86.167 24 133.5c0 34.667 -4.66699 68.667 -14 102s-23.166 64.166 -41.499 92.499s-43 51.166 -74 68.499s-65.833 26 -104.5 26c-51.333 0 -95.166 -15 -131.499 -45s-62.333 -66.167 -78 -108.5
s-23.5 -87.5 -23.5 -135.5z" />
    <glyph glyph-name="afii10067" unicode="&#x432;" horiz-adv-x="1067" 
d="M84 137v816.999c0 38 14 70.167 42 96.5s61 39.5 99 39.5h396c81.333 0 149.333 -25 204 -75s82 -115.333 82 -196c0 -105.333 -47 -179.666 -141 -222.999v-4c66 -9.33301 121.333 -38.5 166 -87.5s67 -106.5 67 -172.5c0 -105.333 -32.333 -187 -97 -245
s-151 -87 -259 -87h-418c-38 -0 -71 13.333 -99 40s-42 59 -42 97zM375 202.999h180c42 0 76.333 11.667 103 35s40 56 40 98c0 36.667 -13.833 66 -41.5 88s-67.5 33 -119.5 33h-162v-254zM375 656.999h119c38 0 67.833 10.667 89.5 32s32.5 51 32.5 89
c0 34.667 -11.5 61.5 -34.5 80.5s-52.167 28.5 -87.5 28.5h-119v-230z" />
    <glyph glyph-name="afii10068" unicode="&#x433;" horiz-adv-x="839" 
d="M74 152l-0.00195312 809c0 36 12.333 66.5 37 91.5s55.334 37.5 92.001 37.5h495c41.333 0 75.333 -10.5 102 -31.5s40 -53.5 40 -97.5c0 -43.333 -13.333 -75.833 -40 -97.5s-60.667 -32.5 -102 -32.5h-329v-679c0 -48.667 -13.833 -88.167 -41.5 -118.5
s-63.167 -45.5 -106.5 -45.5s-78.666 15.167 -105.999 45.5s-41 69.833 -41 118.5z" />
    <glyph glyph-name="afii10069" unicode="&#x434;" horiz-adv-x="1224" 
d="M8 94c0 48.667 13.832 88.167 41.499 118.5s63.167 45.5 106.5 45.5h16c49.333 173.333 74 396 74 668c0 52 13.5 92.333 40.5 121s62.5 43 106.5 43h525c43.333 0 78.666 -15.167 105.999 -45.5s41 -69.833 41 -118.5v-668h16c43.333 0 78.833 -15.167 106.5 -45.5
s41.5 -69.833 41.5 -118.5v-241c0 -48.667 -13.833 -88.167 -41.5 -118.5s-63.167 -45.5 -106.5 -45.5s-78.666 15.167 -105.999 45.5s-41 69.833 -41 118.5v147h-631v-147c0 -48.667 -13.667 -88.167 -41 -118.5s-62.666 -45.5 -105.999 -45.5s-78.833 15.167 -106.5 45.5
s-41.5 69.833 -41.5 118.5v241zM458.999 242l327 -0.000976562v610h-251c-6.66699 -243.333 -32 -446.666 -76 -609.999z" />
    <glyph glyph-name="afii10070" unicode="&#x435;" horiz-adv-x="1099" 
d="M20 543c0 100 22.165 193.332 66.498 279.999s107.333 156.834 189 210.501s172.834 80.5 273.501 80.5c76.667 0 148.834 -16.333 216.501 -49s124 -75 169 -127s80.333 -109.5 106 -172.5s38.5 -125.5 38.5 -187.5c0 -44.667 -10.333 -77.834 -31 -99.501
s-53.334 -32.5 -98.001 -32.5h-628c9.33301 -69.333 39.833 -122.166 91.5 -158.499s113.834 -54.5 186.501 -54.5c34 0 69 6.16699 105 18.5s66 26 90 41s49 28.667 75 41s47.333 18.5 64 18.5c31.333 0 59.333 -13.167 84 -39.5s37 -55.5 37 -87.5
c0 -40.667 -24.833 -80.667 -74.5 -120s-112 -70.833 -187 -94.5s-148.5 -35.5 -220.5 -35.5c-164 0 -297.167 53.5 -399.5 160.5s-153.5 242.833 -153.5 407.5zM314.998 642.999h468.999c-8 66.667 -32.5 120.834 -73.5 162.501s-94.833 62.5 -161.5 62.5
c-64 0 -117.167 -21.333 -159.5 -64s-67.166 -96.334 -74.499 -161.001z" />
    <glyph glyph-name="afii10072" unicode="&#x436;" horiz-adv-x="1593" 
d="M6 127c0 40.667 12.335 73.334 37.002 98.001l358 346l-274 281c-38 40 -57 79 -57 117c0 34.667 11.833 65.5 35.5 92.5s53.5 40.5 89.5 40.5c21.333 0 44.5 -5.66699 69.5 -17s46.167 -27 63.5 -47l323 -370v270c0 48.667 13.833 88.167 41.5 118.5
s63.167 45.5 106.5 45.5s78.666 -15.167 105.999 -45.5s41 -69.833 41 -118.5v-270l324 370c17.333 20 38.5 35.667 63.5 47s48.167 17 69.5 17c36 0 65.833 -13.5 89.5 -40.5s35.5 -57.833 35.5 -92.5c0 -37.333 -19.333 -76.333 -58 -117l-274 -281l358 -346
c24.667 -24.667 37 -57.334 37 -98.001c0 -39.333 -13.5 -72.333 -40.5 -99s-59.833 -40 -98.5 -40c-24 0 -46.333 7.5 -67 22.5s-45.334 37.5 -74.001 67.5l-361 383h-4v-309c0 -48.667 -13.667 -88.167 -41 -118.5s-62.666 -45.5 -105.999 -45.5
s-78.833 15.167 -106.5 45.5s-41.5 69.833 -41.5 118.5v309h-4l-360 -383c-18.667 -19.333 -34 -34.5 -46 -45.5s-26.833 -21.167 -44.5 -30.5s-34.834 -14 -51.501 -14c-39.333 0 -72.333 13.333 -99 40s-40 59.667 -40 99z" />
    <glyph glyph-name="afii10073" unicode="&#x437;" horiz-adv-x="907" 
d="M41 201c0 27.333 11.8369 55.998 35.5039 85.998s54.167 45 91.5 45c25.333 0 49.166 -5.16699 71.499 -15.5s40.833 -21.666 55.5 -33.999s34.667 -23.666 60 -33.999s53.666 -15.5 84.999 -15.5c39.333 0 70.666 8.5 93.999 25.5s35 41.5 35 73.5
c0 37.333 -9 65.666 -27 84.999s-40 31.333 -66 36l-78 13.5c-26 4.33301 -48 14.5 -66 30.5s-27 40.667 -27 74c0 30 7.66699 53.167 23 69.5s33.833 27.166 55.5 32.499l64.5 16c21.333 5.33301 39.666 15.5 54.999 30.5s23 36.5 23 64.5c0 19.333 -7 36.166 -21 50.499
s-37 21.5 -69 21.5c-27.333 0 -56.666 -7.16699 -87.999 -21.5s-60 -28.666 -86 -42.999s-46.333 -21.5 -61 -21.5c-34 0 -62.667 13.167 -86 39.5s-35 56.833 -35 91.5c0 45.333 22.167 84.833 66.5 118.5s94.666 57.834 150.999 72.501s110.833 22 163.5 22
c109.333 0 193.333 -28 252 -84s88 -123 88 -201c0 -50 -11.333 -96.167 -34 -138.5s-55.667 -74.5 -99 -96.5c56.667 -18 102.167 -53.167 136.5 -105.5s51.5 -109.5 51.5 -171.5c0 -97.333 -35.167 -178.666 -105.5 -243.999s-166.833 -98 -289.5 -98
c-70 0 -137 9.33301 -201 28s-116.5 45.667 -157.5 81s-61.5 74.333 -61.5 117z" />
    <glyph glyph-name="afii10074" unicode="&#x438;" horiz-adv-x="1138" 
d="M84 152l-0.000976562 786c0 48.667 13.667 88.167 41 118.5s62.666 45.5 105.999 45.5s78.833 -15.167 106.5 -45.5s41.5 -69.833 41.5 -118.5v-426h4l377 500c46.667 60 95.667 90 147 90c43.333 0 78.833 -15.167 106.5 -45.5s41.5 -69.833 41.5 -118.5v-786
c0 -48.667 -13.833 -88.167 -41.5 -118.5s-63.167 -45.5 -106.5 -45.5s-78.666 15.167 -105.999 45.5s-41 69.833 -41 118.5v434h-4l-404 -531c-34 -44.667 -74.333 -67 -121 -67c-43.333 0 -78.666 15.167 -105.999 45.5s-41 69.833 -41 118.5z" />
    <glyph glyph-name="afii10075" unicode="&#x439;" horiz-adv-x="1138" 
d="M84 152l-0.000976562 786c0 48.667 13.667 88.167 41 118.5s62.666 45.5 105.999 45.5s78.833 -15.167 106.5 -45.5s41.5 -69.833 41.5 -118.5v-426h4l377 500c46.667 60 95.667 90 147 90c43.333 0 78.833 -15.167 106.5 -45.5s41.5 -69.833 41.5 -118.5v-786
c0 -48.667 -13.833 -88.167 -41.5 -118.5s-63.167 -45.5 -106.5 -45.5s-78.666 15.167 -105.999 45.5s-41 69.833 -41 118.5v434h-4l-404 -531c-34 -44.667 -74.333 -67 -121 -67c-43.333 0 -78.666 15.167 -105.999 45.5s-41 69.833 -41 118.5zM267.999 1360
c0 32.667 7.50195 61.333 22.502 86s38.167 37 69.5 37c23.333 0 43.166 -4.83301 59.499 -14.5s29.333 -21.334 39 -35.001l29 -41c9.66699 -13.667 22.667 -25.334 39 -35.001s36.166 -14.5 59.499 -14.5c20 0 37.5 4.83301 52.5 14.5s27.333 21.334 37 35.001l30 41
c10.333 13.667 24.333 25.334 42 35.001s38.834 14.5 63.501 14.5c25.333 0 47 -13.333 65 -40s27 -54.334 27 -83.001c0 -46 -18.333 -85.833 -55 -119.5s-78.334 -57.667 -125.001 -72s-92.334 -21.5 -137.001 -21.5c-33.333 0 -67.666 4 -102.999 12s-69.5 20 -102.5 36
s-60 38.333 -81 67s-31.5 61.334 -31.5 98.001z" />
    <glyph glyph-name="afii10076" unicode="&#x43a;" horiz-adv-x="1024" 
d="M84 152l0.00292969 786.001c0 48.667 13.667 88.167 41 118.5s62.666 45.5 105.999 45.5s78.833 -15.167 106.5 -45.5s41.5 -69.833 41.5 -118.5v-270l323 370c17.333 20 38.666 35.667 63.999 47s48.666 17 69.999 17c36 0 65.833 -13.5 89.5 -40.5
s35.5 -57.833 35.5 -92.5c0 -37.333 -19.333 -76.333 -58 -117l-274 -281l358 -346c24.667 -24.667 37 -57.334 37 -98.001c0 -39.333 -13.333 -72.333 -40 -99s-59.667 -40 -99 -40c-16.667 0 -33.834 4.66699 -51.501 14s-32.5 19.5 -44.5 30.5s-27.333 26.167 -46 45.5
l-360 383h-4v-309c0 -48.667 -13.833 -88.167 -41.5 -118.5s-63.167 -45.5 -106.5 -45.5s-78.666 15.167 -105.999 45.5s-41 69.833 -41 118.5z" />
    <glyph glyph-name="afii10077" unicode="&#x43b;" horiz-adv-x="1138" 
d="M4 119c0 27.333 7.99902 52.167 23.999 74.5s38 37.833 66 46.5c80.667 24.667 121 108.667 121 252v434c0 48.667 13.667 88.167 41 118.5s62.666 45.5 105.999 45.5h545c43.333 0 78.833 -15.167 106.5 -45.5s41.5 -69.833 41.5 -118.5v-774
c0 -48.667 -13.833 -88.167 -41.5 -118.5s-63.167 -45.5 -106.5 -45.5s-78.666 15.167 -105.999 45.5s-41 69.833 -41 118.5v679h-250v-305c0 -173.333 -34.5 -306.333 -103.5 -399s-160.167 -139 -273.5 -139c-39.333 0 -70.666 13 -93.999 39s-35 56.667 -35 92z" />
    <glyph glyph-name="afii10078" unicode="&#x43c;" horiz-adv-x="1478" 
d="M47 129c0 12.667 0.667969 22.334 2.00098 29.001l148 815c5.33301 32 25.5 61.5 60.5 88.5s76.167 40.5 123.5 40.5c44 0 83.167 -12.333 117.5 -37s56.5 -52.667 66.5 -84l170 -539h4l168 539c10 31.333 32.333 59.333 67 84s74 37 118 37c48 0 89.667 -13.5 125 -40.5
s55.666 -56.5 60.999 -88.5l147 -815c1.33301 -6.66699 2 -16.334 2 -29.001c0 -39.333 -13 -72.666 -39 -99.999s-59.333 -41 -100 -41c-47.333 0 -83.333 12 -108 36s-39.667 55.667 -45 95l-76 538h-4l-166 -565c-8 -28 -24 -52.333 -48 -73s-59.333 -31 -106 -31
c-80.667 0 -131.667 34.667 -153 104l-164 565h-4l-74 -538c-5.33301 -39.333 -20.5 -71 -45.5 -95s-61.167 -36 -108.5 -36c-39.333 0 -72.333 13.667 -99 41s-40 60.666 -40 99.999z" />
    <glyph glyph-name="afii10079" unicode="&#x43d;" horiz-adv-x="1138" 
d="M84 152v786c0 48.667 13.667 88.167 41 118.5s62.666 45.5 105.999 45.5s78.833 -15.167 106.5 -45.5s41.5 -69.833 41.5 -118.5v-242h381v242c0 48.667 13.667 88.167 41 118.5s62.666 45.5 105.999 45.5s78.833 -15.167 106.5 -45.5s41.5 -69.833 41.5 -118.5v-786
c0 -48.667 -13.833 -88.167 -41.5 -118.5s-63.167 -45.5 -106.5 -45.5s-78.666 15.167 -105.999 45.5s-41 69.833 -41 118.5v286h-381v-286c0 -48.667 -13.833 -88.167 -41.5 -118.5s-63.167 -45.5 -106.5 -45.5s-78.666 15.167 -105.999 45.5s-41 69.833 -41 118.5z" />
    <glyph glyph-name="afii10080" unicode="&#x43e;" horiz-adv-x="1138" 
d="M41 543c0 74 13.167 145.669 39.5 215.002s62.166 130.166 107.499 182.499s101.166 94.333 167.499 126s137.5 47.5 213.5 47.5c100.667 0 191.834 -26.833 273.501 -80.5s144.667 -123.834 189 -210.501s66.5 -180 66.5 -280c0 -76.667 -12.833 -149.5 -38.5 -218.5
s-61.167 -129.333 -106.5 -181s-101.333 -92.667 -168 -123s-138.667 -45.5 -216 -45.5c-102.667 0 -194.667 26 -276 78s-143.666 121 -186.999 207s-65 180.333 -65 283zM336 543.002c0 -49.333 7.99902 -95.833 23.999 -139.5s42.167 -80.834 78.5 -111.501
s79.833 -46 130.5 -46s94.334 15.333 131.001 46s63 67.834 79 111.501s24 90.167 24 139.5c0 50 -7.83301 97 -23.5 141s-41.834 81.667 -78.501 113s-80.667 47 -132 47s-95.166 -15.667 -131.499 -47s-62.333 -69 -78 -113s-23.5 -91 -23.5 -141z" />
    <glyph glyph-name="afii10081" unicode="&#x43f;" horiz-adv-x="1138" 
d="M84 152l-0.000976562 774c0 48.667 13.667 88.167 41 118.5s62.666 45.5 105.999 45.5h676c43.333 0 78.833 -15.167 106.5 -45.5s41.5 -69.833 41.5 -118.5v-774c0 -48.667 -13.833 -88.167 -41.5 -118.5s-63.167 -45.5 -106.5 -45.5s-78.666 15.167 -105.999 45.5
s-41 69.833 -41 118.5v679h-381v-679c0 -48.667 -13.833 -88.167 -41.5 -118.5s-63.167 -45.5 -106.5 -45.5s-78.666 15.167 -105.999 45.5s-41 69.833 -41 118.5z" />
    <glyph glyph-name="afii10082" unicode="&#x440;" 
d="M84 -283l0.000976562 1221c0 48.667 13.667 88.167 41 118.5s62.666 45.5 105.999 45.5c80 0 129.333 -41 148 -123c26.667 43.333 65.5 76.666 116.5 99.999s105.5 35 163.5 35c76 0 145 -16.833 207 -50.5s112.167 -78.5 150.5 -134.5s67.666 -118.167 87.999 -186.5
s30.5 -139.166 30.5 -212.499c0 -70 -11.667 -138.167 -35 -204.5s-55.5 -125.5 -96.5 -177.5s-92.333 -93.833 -154 -125.5s-128.5 -47.5 -200.5 -47.5c-101.333 0 -191.333 34.333 -270 103v-361c0 -48.667 -13.833 -88 -41.5 -118s-63.167 -45 -106.5 -45
s-78.666 15 -105.999 45s-41 69.333 -41 118zM379.001 553c0 -50.667 7.66699 -98.501 23 -143.501s41 -83.5 77 -115.5s79.667 -48 131 -48c48.667 0 91 15.5 127 46.5s62.167 68.5 78.5 112.5s24.5 90 24.5 138c0 48.667 -8.16699 95.334 -24.5 140.001
s-42.5 82.667 -78.5 114s-78.333 47 -127 47c-38 0 -72.167 -8.33301 -102.5 -25s-54.5 -39 -72.5 -67s-31.833 -59 -41.5 -93s-14.5 -69.333 -14.5 -106z" />
    <glyph glyph-name="afii10083" unicode="&#x441;" horiz-adv-x="948" 
d="M41 543c0 74 13.1631 145.666 39.4961 214.999s62.166 130.166 107.499 182.499s101.166 94.333 167.499 126s137.5 47.5 213.5 47.5c33.333 0 69 -3.16699 107 -9.5s76.833 -16.166 116.5 -29.499s72.5 -32.833 98.5 -58.5s39 -55.167 39 -88.5
c0 -34 -10.667 -66.167 -32 -96.5s-48.333 -45.5 -81 -45.5c-23.333 0 -59.666 9.66699 -108.999 29s-90.666 29 -123.999 29c-53.333 0 -99.333 -14.833 -138 -44.5s-66.667 -66.667 -84 -111s-26 -92.833 -26 -145.5c0 -50 9.33301 -97.167 28 -141.5
s47.334 -81.333 86.001 -111s83.334 -44.5 134.001 -44.5c28 0 69.333 10.167 124 30.5s86.334 30.5 95.001 30.5c34.667 0 64.5 -12.667 89.5 -38s37.5 -55.666 37.5 -90.999s-13.5 -67 -40.5 -95s-60.667 -49.333 -101 -64s-79.5 -25.667 -117.5 -33s-72 -11 -102 -11
c-102.667 0 -194.667 26 -276 78s-143.666 121 -186.999 207s-65 180.333 -65 283z" />
    <glyph glyph-name="afii10084" unicode="&#x442;" horiz-adv-x="978" 
d="M0 961c0 36.667 12.3311 67.333 36.998 92s55.334 37 92.001 37h709c41.333 0 75.166 -10.5 101.499 -31.5s39.5 -53.5 39.5 -97.5c0 -43.333 -13.167 -75.833 -39.5 -97.5s-60.166 -32.5 -101.499 -32.5h-207v-679c0 -48.667 -13.833 -88.167 -41.5 -118.5
s-63.167 -45.5 -106.5 -45.5s-78.666 15.167 -105.999 45.5s-41 69.833 -41 118.5v679h-207c-40 0 -71.5 11.667 -94.5 35s-34.5 55 -34.5 95z" />
    <glyph glyph-name="afii10085" unicode="&#x443;" horiz-adv-x="985" 
d="M-4 975c0 35.333 15 65.332 45 89.999s61.333 37 94 37c72 0 121.333 -35 148 -105l202 -555l217 555c26.667 70 76 105 148 105c32.667 0 64 -12.333 94 -37s45 -54.667 45 -90c0 -29.333 -4.66699 -54.666 -14 -75.999l-494 -1229c-32 -77.333 -78.333 -116 -139 -116
c-47.333 0 -84.833 12.667 -112.5 38s-41.5 55 -41.5 89c0 23.333 6.33301 52 19 86l129 319l-326 813c-9.33301 26.667 -14 52 -14 76z" />
    <glyph glyph-name="afii10086" unicode="&#x444;" horiz-adv-x="1736" 
d="M39 530c0 58.667 5.33203 115.668 15.999 171.001s27.667 108.166 51 158.499s51.833 94.166 85.5 131.499s75 67.166 124 89.499s102.833 33.5 161.5 33.5c46.667 0 92.334 -9.33301 137.001 -28s79.667 -45.334 105 -80.001v313c0 48.667 13.667 88.167 41 118.5
s62.666 45.5 105.999 45.5s78.833 -15.167 106.5 -45.5s41.5 -69.833 41.5 -118.5v-313c25.333 34.667 60.166 61.334 104.499 80.001s89.833 28 136.5 28c58.667 0 112.5 -11.167 161.5 -33.5s90.333 -52.166 124 -89.499s62.334 -81.166 86.001 -131.499
s40.834 -103.166 51.501 -158.499s16 -112.333 16 -171c0 -70.667 -10 -138.834 -30 -204.501s-48.333 -124.667 -85 -177s-83.834 -94.333 -141.501 -126s-121.167 -47.5 -190.5 -47.5c-88 0 -165.667 29.333 -233 88v-346c0 -48.667 -13.833 -88 -41.5 -118
s-63.167 -45 -106.5 -45s-78.666 15 -105.999 45s-41 69.333 -41 118v346c-67.333 -58.667 -145.333 -88 -234 -88c-68.667 0 -131.5 15.833 -188.5 47.5s-104 73.5 -141 125.5s-65.667 111 -86 177s-30.5 134.333 -30.5 205zM333.999 543.001c0 -48 7.16699 -94 21.5 -138
s37.833 -81.5 70.5 -112.5s71.667 -46.5 117 -46.5c40 0 75.167 12.5 105.5 37.5s53.833 58.167 70.5 99.5v332c-35.333 86 -94 129 -176 129c-45.333 0 -84.333 -15.833 -117 -47.5s-56.167 -69.5 -70.5 -113.5s-21.5 -90.667 -21.5 -140zM1014 383.001
c36 -91.333 94.667 -137.001 176 -137.001c45.333 0 84.333 15.5 117 46.5s56.167 68.5 70.5 112.5s21.5 90 21.5 138c0 48.667 -7.5 95.334 -22.5 140.001s-38.833 82.667 -71.5 114s-71 47 -115 47c-82 0 -140.667 -43 -176 -129v-332z" />
    <glyph glyph-name="afii10087" unicode="&#x445;" horiz-adv-x="1024" 
d="M0 131c0 36.667 13.6689 70 41.002 100l299 340l-250 281c-30 34.667 -45 70 -45 106c0 38 15.667 71.5 47 100.5s66.333 43.5 105 43.5c39.333 0 75.333 -19.333 108 -58l207 -258l207 258c32.667 38.667 68.667 58 108 58c38.667 0 73.667 -14.5 105 -43.5
s47 -62.5 47 -100.5c0 -36 -15 -71.333 -45 -106l-250 -281l299 -340c27.333 -30 41 -63.333 41 -100c0 -42.667 -13.333 -77.167 -40 -103.5s-61.667 -39.5 -105 -39.5c-30 0 -53.333 5.16699 -70 15.5s-34.334 26.833 -53.001 49.5l-244 299l-244 -299
c-18.667 -22.667 -36.334 -39.167 -53.001 -49.5s-40 -15.5 -70 -15.5c-43.333 0 -78.333 13.167 -105 39.5s-40 60.833 -40 103.5z" />
    <glyph glyph-name="afii10088" unicode="&#x446;" horiz-adv-x="1214" 
d="M84 164v774c0 48.667 13.667 88.167 41 118.5s62.666 45.5 105.999 45.5s78.833 -15.167 106.5 -45.5s41.5 -69.833 41.5 -118.5v-680h381v680c0 48.667 13.667 88.167 41 118.5s62.666 45.5 105.999 45.5s78.833 -15.167 106.5 -45.5s41.5 -69.833 41.5 -118.5v-680h16
c43.333 0 78.833 -15.167 106.5 -45.5s41.5 -69.833 41.5 -118.5v-241c0 -48.667 -13.833 -88.167 -41.5 -118.5s-63.167 -45.5 -106.5 -45.5s-78.666 15.167 -105.999 45.5s-41 69.833 -41 118.5v147h-693c-43.333 0 -78.666 15.167 -105.999 45.5s-41 69.833 -41 118.5z
" />
    <glyph glyph-name="afii10089" unicode="&#x447;" horiz-adv-x="1067" 
d="M76 745v193c0 48.667 13.667 88.167 41 118.5s62.666 45.5 105.999 45.5s78.833 -15.167 106.5 -45.5s41.5 -69.833 41.5 -118.5v-180c0 -40 15.5 -70.5 46.5 -91.5s72.167 -31.5 123.5 -31.5h149v303c0 48.667 13.833 88.167 41.5 118.5s63.167 45.5 106.5 45.5
s78.666 -15.167 105.999 -45.5s41 -69.833 41 -118.5v-786c0 -48.667 -13.667 -88.167 -41 -118.5s-62.666 -45.5 -105.999 -45.5s-78.833 15.167 -106.5 45.5s-41.5 69.833 -41.5 118.5v225h-188c-121.333 0 -222.666 34.333 -303.999 103s-122 157 -122 265z" />
    <glyph glyph-name="afii10090" unicode="&#x448;" horiz-adv-x="1638" 
d="M84 164l0.00195312 774c0 48.667 13.667 88.167 41 118.5s62.666 45.5 105.999 45.5s78.833 -15.167 106.5 -45.5s41.5 -69.833 41.5 -118.5v-680h299v680c0 48.667 13.667 88.167 41 118.5s62.666 45.5 105.999 45.5s78.833 -15.167 106.5 -45.5
s41.5 -69.833 41.5 -118.5v-680h299v680c0 48.667 13.667 88.167 41 118.5s62.666 45.5 105.999 45.5s78.833 -15.167 106.5 -45.5s41.5 -69.833 41.5 -118.5v-774c0 -48.667 -13.833 -88.167 -41.5 -118.5s-63.167 -45.5 -106.5 -45.5h-1188
c-43.333 0 -78.666 15.167 -105.999 45.5s-41 69.833 -41 118.5z" />
    <glyph glyph-name="afii10091" unicode="&#x449;" horiz-adv-x="1730" 
d="M84 164l0.000976562 774c0 48.667 13.667 88.167 41 118.5s62.666 45.5 105.999 45.5s78.833 -15.167 106.5 -45.5s41.5 -69.833 41.5 -118.5v-680h299v680c0 48.667 13.667 88.167 41 118.5s62.666 45.5 105.999 45.5s78.833 -15.167 106.5 -45.5
s41.5 -69.833 41.5 -118.5v-680h299v680c0 48.667 13.667 88.167 41 118.5s62.666 45.5 105.999 45.5s78.833 -15.167 106.5 -45.5s41.5 -69.833 41.5 -118.5v-680h16c43.333 0 78.833 -15.167 106.5 -45.5s41.5 -69.833 41.5 -118.5v-241
c0 -48.667 -13.833 -88.167 -41.5 -118.5s-63.167 -45.5 -106.5 -45.5s-78.666 15.167 -105.999 45.5s-41 69.833 -41 118.5v147h-1205c-43.333 0 -78.666 15.167 -105.999 45.5s-41 69.833 -41 118.5z" />
    <glyph glyph-name="afii10092" unicode="&#x44a;" horiz-adv-x="1275" 
d="M0 961c0 36.667 12.3311 67.333 36.998 92s55.334 37 92.001 37h354c43.333 0 78.833 -15.167 106.5 -45.5s41.5 -69.833 41.5 -118.5v-230h209c120 0 215.833 -29 287.5 -87s107.5 -144.333 107.5 -259c0 -108.667 -33.667 -194.167 -101 -256.5s-156 -93.5 -266 -93.5
h-385c-43.333 0 -78.666 15.167 -105.999 45.5s-41 69.833 -41 118.5v667h-207c-40 0 -71.5 11.667 -94.5 35s-34.5 55 -34.5 95zM630.998 243.999l194 -0.000976562c34.667 0 62.5 10 83.5 30s31.5 46.667 31.5 80c0 28.667 -11 52.334 -33 71.001s-53.333 28 -94 28h-182
v-209z" />
    <glyph glyph-name="afii10093" unicode="&#x44b;" horiz-adv-x="1499" 
d="M84 164v774c0 48.667 13.667 88.167 41 118.5s62.666 45.5 105.999 45.5s78.833 -15.167 106.5 -45.5s41.5 -69.833 41.5 -118.5v-242h209c120 0 215.833 -29 287.5 -87s107.5 -144.333 107.5 -259c0 -108.667 -33.667 -194.167 -101 -256.5s-156 -93.5 -266 -93.5h-385
c-43.333 0 -78.666 15.167 -105.999 45.5s-41 69.833 -41 118.5zM379 244l194 -0.000976562c34.667 0 62.5 10 83.5 30s31.5 46.667 31.5 80c0 28.667 -11 52.334 -33 71.001s-53.333 28 -94 28h-182v-209zM1128 151.999v786c0 48.667 13.833 88.167 41.5 118.5
s63.167 45.5 106.5 45.5s78.666 -15.167 105.999 -45.5s41 -69.833 41 -118.5v-786c0 -48.667 -13.667 -88.167 -41 -118.5s-62.666 -45.5 -105.999 -45.5s-78.833 15.167 -106.5 45.5s-41.5 69.833 -41.5 118.5z" />
    <glyph glyph-name="afii10094" unicode="&#x44c;" horiz-adv-x="1024" 
d="M84 164v774c0 48.667 13.667 88.167 41 118.5s62.666 45.5 105.999 45.5s78.833 -15.167 106.5 -45.5s41.5 -69.833 41.5 -118.5v-242h209c120 0 215.833 -29 287.5 -87s107.5 -144.333 107.5 -259c0 -108.667 -33.667 -194.167 -101 -256.5s-156 -93.5 -266 -93.5h-385
c-43.333 0 -78.666 15.167 -105.999 45.5s-41 69.833 -41 118.5zM379 244l194 -0.000976562c34.667 0 62.5 10 83.5 30s31.5 46.667 31.5 80c0 28.667 -11 52.334 -33 71.001s-53.333 28 -94 28h-182v-209z" />
    <glyph glyph-name="afii10095" unicode="&#x44d;" horiz-adv-x="948" 
d="M27 178c0 35.333 12.5 65.668 37.5 91.001s54.833 38 89.5 38c8.66699 0 40.334 -10.167 95.001 -30.5s96 -30.5 124 -30.5c59.333 0 109.5 19.333 150.5 58s69.167 87.667 84.5 147h-227c-36.667 0 -67 9.66699 -91 29s-36 48.333 -36 87
c0 39.333 11.833 68.666 35.5 87.999s54.167 29 91.5 29h215c-19.333 48.667 -47.833 87.5 -85.5 116.5s-83.5 43.5 -137.5 43.5c-32.667 0 -74.167 -9.66699 -124.5 -29s-86.833 -29 -109.5 -29c-32.667 0 -59.5 15.167 -80.5 45.5s-31.5 62.5 -31.5 96.5
c0 33.333 13 62.833 39 88.5s58.667 45.167 98 58.5s78 23.166 116 29.499s73.667 9.5 107 9.5c76 0 147.167 -15.833 213.5 -47.5s122.166 -73.667 167.499 -126s81.166 -113.166 107.499 -182.499s39.5 -141 39.5 -215c0 -102.667 -21.667 -197 -65 -283
s-105.666 -155 -186.999 -207s-173.333 -78 -276 -78c-30 0 -64 3.66699 -102 11s-77 18.333 -117 33s-73.5 36 -100.5 64s-40.5 59.667 -40.5 95z" />
    <glyph glyph-name="afii10096" unicode="&#x44e;" horiz-adv-x="1593" 
d="M84 152l0.00195312 785.999c0 48.667 13.667 88.167 41 118.5s62.666 45.5 105.999 45.5s78.833 -15.167 106.5 -45.5s41.5 -69.833 41.5 -118.5v-242h127c31.333 120.667 93.166 220.5 185.499 299.5s200.5 118.5 324.5 118.5c76 0 147.167 -15.833 213.5 -47.5
s122.166 -73.667 167.499 -126s81.166 -113.166 107.499 -182.499s39.5 -141 39.5 -215c0 -102.667 -21.667 -197 -65 -283s-105.666 -155 -186.999 -207s-173.333 -78 -276 -78c-136.667 0 -252 43.667 -346 131s-152 198 -174 332h-117v-286
c0 -48.667 -13.833 -88.167 -41.5 -118.5s-63.167 -45.5 -106.5 -45.5s-78.666 15.167 -105.999 45.5s-41 69.833 -41 118.5zM782.002 542.999c0 -49.333 7.99902 -95.833 23.999 -139.5s42.333 -80.834 79 -111.501s80.334 -46 131.001 -46s94.167 15.333 130.5 46
s62.5 67.834 78.5 111.501s24 90.167 24 139.5c0 50 -7.83301 97 -23.5 141s-41.667 81.667 -78 113s-80.166 47 -131.499 47s-95.333 -15.667 -132 -47s-62.834 -69 -78.501 -113s-23.5 -91 -23.5 -141z" />
    <glyph glyph-name="afii10097" unicode="&#x44f;" horiz-adv-x="983" 
d="M45 129c0 30 12.334 57.333 37.001 82l233 250c-73.333 18.667 -132.5 51.834 -177.5 99.501s-67.5 108.5 -67.5 182.5c0 116.667 33.167 203.667 99.5 261s160.166 86 281.499 86h305c43.333 0 78.666 -15.167 105.999 -45.5s41 -69.833 41 -118.5v-774
c0 -48.667 -13.667 -88.167 -41 -118.5s-62.666 -45.5 -105.999 -45.5s-78.833 15.167 -106.5 45.5s-41.5 69.833 -41.5 118.5v262h-4l-313 -379c-26 -31.333 -61.667 -47 -107 -47c-40 0 -73.167 14.167 -99.5 42.5s-39.5 61.166 -39.5 98.499zM365.001 743
c0 -42 13.167 -75 39.5 -99s60.833 -36 103.5 -36h100v271h-100c-43.333 0 -78 -11.833 -104 -35.5s-39 -57.167 -39 -100.5z" />
    <glyph glyph-name="afii10071" unicode="&#x451;" horiz-adv-x="1099" 
d="M20 543c0 100 22.165 193.332 66.498 279.999s107.333 156.834 189 210.501s172.834 80.5 273.501 80.5c76.667 0 148.834 -16.333 216.501 -49s124 -75 169 -127s80.333 -109.5 106 -172.5s38.5 -125.5 38.5 -187.5c0 -44.667 -10.333 -77.834 -31 -99.501
s-53.334 -32.5 -98.001 -32.5h-628c9.33301 -69.333 39.833 -122.166 91.5 -158.499s113.834 -54.5 186.501 -54.5c34 0 69 6.16699 105 18.5s66 26 90 41s49 28.667 75 41s47.333 18.5 64 18.5c31.333 0 59.333 -13.167 84 -39.5s37 -55.5 37 -87.5
c0 -40.667 -24.833 -80.667 -74.5 -120s-112 -70.833 -187 -94.5s-148.5 -35.5 -220.5 -35.5c-164 0 -297.167 53.5 -399.5 160.5s-153.5 242.833 -153.5 407.5zM177.998 1335c0 40.667 14.3311 75.5 42.998 104.5s63.667 43.5 105 43.5
c40.667 0 75.334 -14.333 104.001 -43s43 -63.667 43 -105c0 -40.667 -14.167 -75.334 -42.5 -104.001s-63.166 -43 -104.499 -43s-76.333 14.333 -105 43s-43 63.334 -43 104.001zM314.996 642.999h468.999c-8 66.667 -32.5 120.834 -73.5 162.501
s-94.833 62.5 -161.5 62.5c-64 0 -117.167 -21.333 -159.5 -64s-67.166 -96.334 -74.499 -161.001zM628.995 1335c0 41.333 14.3311 76.333 42.998 105s63.334 43 104.001 43c41.333 0 76.333 -14.5 105 -43.5s43 -63.833 43 -104.5s-14.333 -75.334 -43 -104.001
s-63.667 -43 -105 -43s-76.166 14.333 -104.499 43s-42.5 63.334 -42.5 104.001z" />
    <glyph glyph-name="afii10099" unicode="&#x452;" horiz-adv-x="1148" 
d="M-41 1174c0 33.333 11 61.002 33 83.002s49.333 33 82 33h51v123c0 48.667 13.667 88.167 41 118.5s62.666 45.5 105.999 45.5s78.833 -15.167 106.5 -45.5s41.5 -69.833 41.5 -118.5v-123h354c37.333 0 67.833 -9.5 91.5 -28.5s35.5 -48.167 35.5 -87.5
c0 -38.667 -12 -67.834 -36 -87.501s-54.333 -29.5 -91 -29.5h-354v-250h4c28 35.333 66.667 61.166 116 77.499s100 24.5 152 24.5c79.333 0 148.666 -14.5 207.999 -43.5s106.833 -75.667 142.5 -140s53.5 -143.833 53.5 -238.5c0 -82 -7.33301 -160.667 -22 -236
s-32.667 -140.5 -54 -195.5s-49 -110.167 -83 -165.5s-65.5 -101 -94.5 -137s-63.5 -76 -103.5 -120c-13.333 -18 -31.666 -35 -54.999 -51c-15.333 -12 -34.333 -18 -57 -18c-31.333 0 -62.833 12.167 -94.5 36.5s-47.5 52.5 -47.5 84.5c0 17.333 11.667 44.666 35 81.999
c74 104.667 132.667 193.334 176 266.001c70 116 105 238.667 105 368c0 98 -17.167 166.333 -51.5 205s-81.5 58 -141.5 58c-58.667 0 -104.667 -19 -138 -57s-50 -86.667 -50 -146v-309c0 -48.667 -13.833 -88.167 -41.5 -118.5s-63.167 -45.5 -106.5 -45.5
s-78.666 15.167 -105.999 45.5s-41 69.833 -41 118.5v905h-51c-36 0 -64.167 10.5 -84.5 31.5s-30.5 49.5 -30.5 85.5z" />
    <glyph glyph-name="afii10100" unicode="&#x453;" horiz-adv-x="839" 
d="M74 152l-0.00195312 809c0 36 12.333 66.5 37 91.5s55.334 37.5 92.001 37.5h495c41.333 0 75.333 -10.5 102 -31.5s40 -53.5 40 -97.5c0 -43.333 -13.333 -75.833 -40 -97.5s-60.667 -32.5 -102 -32.5h-329v-679c0 -48.667 -13.833 -88.167 -41.5 -118.5
s-63.167 -45.5 -106.5 -45.5s-78.666 15.167 -105.999 45.5s-41 69.833 -41 118.5zM179.998 1374c0 15.333 5.33301 30.665 16 45.998s24.667 27.333 42 36l16 8l242 99c34.667 13.333 60.334 20 77.001 20c29.333 0 55.166 -13.833 77.499 -41.5s33.5 -56.167 33.5 -85.5
c0 -58 -28 -98.333 -84 -121l-229 -90c-6 -2.66699 -12.167 -5.16699 -18.5 -7.5s-10.666 -4.16602 -12.999 -5.49902s-5.5 -2.5 -9.5 -3.5s-6.16699 -1.66699 -6.5 -2s-2.33301 -0.666016 -6 -0.999023s-5.83398 -0.5 -6.50098 -0.5h-9h-13
c-29.333 0 -54.833 15.5 -76.5 46.5s-32.5 65.167 -32.5 102.5z" />
    <glyph glyph-name="afii10101" unicode="&#x454;" horiz-adv-x="948" 
d="M35 543c0 74 13.167 145.665 39.5 214.998s62.166 130.166 107.499 182.499s101.166 94.333 167.499 126s137.5 47.5 213.5 47.5c33.333 0 69 -3.16699 107 -9.5s76.833 -16.166 116.5 -29.499s72.5 -32.833 98.5 -58.5s39 -55.167 39 -88.5
c0 -34 -10.667 -66.167 -32 -96.5s-48.333 -45.5 -81 -45.5c-23.333 0 -59.666 9.66699 -108.999 29s-90.666 29 -123.999 29c-54 0 -100 -14.5 -138 -43.5s-66.667 -67.833 -86 -116.5h215c37.333 0 67.833 -9.66699 91.5 -29s35.5 -48.666 35.5 -87.999
c0 -38.667 -12 -67.667 -36 -87s-54.333 -29 -91 -29h-227c15.333 -59.333 43.666 -108.333 84.999 -147s91.666 -58 150.999 -58c28 0 69.333 10.167 124 30.5s86.334 30.5 95.001 30.5c34.667 0 64.5 -12.667 89.5 -38s37.5 -55.666 37.5 -90.999s-13.5 -67 -40.5 -95
s-60.667 -49.333 -101 -64s-79.5 -25.667 -117.5 -33s-72 -11 -102 -11c-102.667 0 -194.667 26 -276 78s-143.666 121 -186.999 207s-65 180.333 -65 283z" />
    <glyph glyph-name="afii10102" unicode="&#x455;" horiz-adv-x="872" 
d="M20 203c0 27.333 11.8311 55.998 35.498 85.998s54.167 45 91.5 45c25.333 0 51 -5.33301 77 -16s48.333 -22.167 67 -34.5s42.5 -23.833 71.5 -34.5s59.167 -16 90.5 -16c43.333 0 73.5 6.83301 90.5 20.5s25.5 34.834 25.5 63.501c0 18 -9.33301 34.5 -28 49.5
s-43.167 28.5 -73.5 40.5l-100 38c-36.333 13.333 -72.666 29.166 -108.999 47.499s-69.666 39.333 -99.999 63s-54.833 53.834 -73.5 90.501s-28 78 -28 124c0 102 37.333 184.833 112 248.5s170.667 95.5 288 95.5c38 0 77.667 -4.5 119 -13.5s81 -21.833 119 -38.5
s69.167 -39 93.5 -67s36.5 -59.333 36.5 -94s-11.5 -65.167 -34.5 -91.5s-51.5 -39.5 -85.5 -39.5c-14.667 0 -37.5 7.16699 -68.5 21.5s-64.667 28.666 -101 42.999s-68.166 21.5 -95.499 21.5c-28.667 0 -52.5 -7 -71.5 -21s-28.5 -34.333 -28.5 -61
c0 -18 9.33301 -34.667 28 -50s43.167 -29 73.5 -41l100 -38c36.333 -13.333 72.666 -29.166 108.999 -47.499s69.666 -39.166 99.999 -62.499s54.833 -53.333 73.5 -90s28 -77.667 28 -123c0 -100 -38.667 -182.833 -116 -248.5s-178.666 -98.5 -303.999 -98.5
c-57.333 0 -117.333 9.5 -180 28.5s-117 46.5 -163 82.5s-69 75 -69 117z" />
    <glyph glyph-name="afii10103" unicode="&#x456;" horiz-adv-x="454" 
d="M61 1382c0 42 16.667 79.501 50 112.501s72 49.5 116 49.5s82.667 -16.333 116 -49s50 -70.334 50 -113.001c0 -46 -16.167 -85.833 -48.5 -119.5s-71.5 -50.5 -117.5 -50.5c-44 0 -82.667 17 -116 51s-50 73.667 -50 119zM80 152.001v786
c0 48.667 13.667 88.167 41 118.5s62.666 45.5 105.999 45.5s78.833 -15.167 106.5 -45.5s41.5 -69.833 41.5 -118.5v-786c0 -48.667 -13.833 -88.167 -41.5 -118.5s-63.167 -45.5 -106.5 -45.5s-78.666 15.167 -105.999 45.5s-41 69.833 -41 118.5z" />
    <glyph glyph-name="afii10104" unicode="&#x457;" horiz-adv-x="454" 
d="M-145 1382c0 41.333 14.3311 76.335 42.998 105.002s63.334 43 104.001 43c41.333 0 76.333 -14.333 105 -43s43 -63.667 43 -105c0 -40.667 -14.333 -75.334 -43 -104.001s-63.667 -43 -105 -43s-76.166 14.167 -104.499 42.5s-42.5 63.166 -42.5 104.499z
M79.998 152.002v786c0 48.667 13.667 88.167 41 118.5s62.666 45.5 105.999 45.5s78.833 -15.167 106.5 -45.5s41.5 -69.833 41.5 -118.5v-786c0 -48.667 -13.833 -88.167 -41.5 -118.5s-63.167 -45.5 -106.5 -45.5s-78.666 15.167 -105.999 45.5s-41 69.833 -41 118.5z
M304.998 1382c0 41.333 14.5 76.3311 43.5 104.998s63.833 43 104.5 43s75.334 -14.333 104.001 -43s43 -63.667 43 -105s-14.333 -76.166 -43 -104.499s-63.334 -42.5 -104.001 -42.5c-41.333 0 -76.333 14.333 -105 43s-43 63.334 -43 104.001z" />
    <glyph glyph-name="afii10105" unicode="&#x458;" horiz-adv-x="454" 
d="M61 1382c0 42 16.667 79.501 50 112.501s72 49.5 116 49.5s82.667 -16.333 116 -49s50 -70.334 50 -113.001c0 -46 -16.167 -85.833 -48.5 -119.5s-71.5 -50.5 -117.5 -50.5c-44 0 -82.667 17 -116 51s-50 73.667 -50 119zM80 -282.999v1221
c0 48.667 13.667 88.167 41 118.5s62.666 45.5 105.999 45.5s78.833 -15.167 106.5 -45.5s41.5 -69.833 41.5 -118.5v-1221c0 -48.667 -13.833 -88 -41.5 -118s-63.167 -45 -106.5 -45s-78.666 15 -105.999 45s-41 69.333 -41 118z" />
    <glyph glyph-name="afii10106" unicode="&#x459;" horiz-adv-x="1699" 
d="M4 119c0 27.333 7.99902 52.167 23.999 74.5s38 37.833 66 46.5c80.667 24.667 121 108.667 121 252v434c0 48.667 13.667 88.167 41 118.5s62.666 45.5 105.999 45.5h545c43.333 0 78.833 -15.167 106.5 -45.5s41.5 -69.833 41.5 -118.5v-230h209
c120 0 215.833 -29 287.5 -87s107.5 -144.333 107.5 -259c0 -108.667 -33.667 -194.167 -101 -256.5s-156 -93.5 -266 -93.5h-385c-43.333 0 -78.666 15.167 -105.999 45.5s-41 69.833 -41 118.5v667h-250v-305c0 -173.333 -34.5 -306.333 -103.5 -399
s-160.167 -139 -273.5 -139c-39.333 0 -70.666 13 -93.999 39s-35 56.667 -35 92zM1055 244.001l194 -0.000976562c34.667 0 62.5 10 83.5 30s31.5 46.667 31.5 80c0 28.667 -11 52.334 -33 71.001s-53.333 28 -94 28h-182v-209z" />
    <glyph glyph-name="afii10107" unicode="&#x45a;" horiz-adv-x="1699" 
d="M84 152v786c0 48.667 13.667 88.167 41 118.5s62.666 45.5 105.999 45.5s78.833 -15.167 106.5 -45.5s41.5 -69.833 41.5 -118.5v-242h381v242c0 48.667 13.667 88.167 41 118.5s62.666 45.5 105.999 45.5s78.833 -15.167 106.5 -45.5s41.5 -69.833 41.5 -118.5v-242h209
c120 0 215.833 -29 287.5 -87s107.5 -144.333 107.5 -259c0 -108.667 -33.667 -194.167 -101 -256.5s-156 -93.5 -266 -93.5h-385c-43.333 0 -78.666 15.167 -105.999 45.5s-41 69.833 -41 118.5v274h-381v-286c0 -48.667 -13.833 -88.167 -41.5 -118.5
s-63.167 -45.5 -106.5 -45.5s-78.666 15.167 -105.999 45.5s-41 69.833 -41 118.5zM1055 244l194 -0.000976562c34.667 0 62.5 10 83.5 30s31.5 46.667 31.5 80c0 28.667 -11 52.334 -33 71.001s-53.333 28 -94 28h-182v-209z" />
    <glyph glyph-name="afii10108" unicode="&#x45b;" horiz-adv-x="1179" 
d="M-41 1174c0 33.333 10.999 61.002 32.999 83.002s49.333 33 82 33h51v123c0 48.667 13.667 88.167 41 118.5s62.666 45.5 105.999 45.5s78.833 -15.167 106.5 -45.5s41.5 -69.833 41.5 -118.5v-123h354c37.333 0 67.833 -9.5 91.5 -28.5s35.5 -48.167 35.5 -87.5
c0 -38.667 -12 -67.834 -36 -87.501s-54.333 -29.5 -91 -29.5h-354v-250h4c28 35.333 66.667 61.166 116 77.499s100 24.5 152 24.5c118.667 0 215.667 -35.667 291 -107s113 -168 113 -290v-360c0 -48.667 -13.833 -88.167 -41.5 -118.5s-63.167 -45.5 -106.5 -45.5
s-78.666 15.167 -105.999 45.5s-41 69.833 -41 118.5v309c0 65.333 -18.167 115.5 -54.5 150.5s-82.5 52.5 -138.5 52.5c-58.667 0 -104.667 -19 -138 -57s-50 -86.667 -50 -146v-309c0 -48.667 -13.833 -88.167 -41.5 -118.5s-63.167 -45.5 -106.5 -45.5
s-78.666 15.167 -105.999 45.5s-41 69.833 -41 118.5v905h-51c-36 0 -64.167 10.5 -84.5 31.5s-30.5 49.5 -30.5 85.5z" />
    <glyph glyph-name="afii10109" unicode="&#x45c;" horiz-adv-x="1024" 
d="M84 152l0.00292969 786.001c0 48.667 13.667 88.167 41 118.5s62.666 45.5 105.999 45.5s78.833 -15.167 106.5 -45.5s41.5 -69.833 41.5 -118.5v-270l323 370c17.333 20 38.666 35.667 63.999 47s48.666 17 69.999 17c36 0 65.833 -13.5 89.5 -40.5
s35.5 -57.833 35.5 -92.5c0 -37.333 -19.333 -76.333 -58 -117l-274 -281l358 -346c24.667 -24.667 37 -57.334 37 -98.001c0 -39.333 -13.333 -72.333 -40 -99s-59.667 -40 -99 -40c-16.667 0 -33.834 4.66699 -51.501 14s-32.5 19.5 -44.5 30.5s-27.333 26.167 -46 45.5
l-360 383h-4v-309c0 -48.667 -13.833 -88.167 -41.5 -118.5s-63.167 -45.5 -106.5 -45.5s-78.666 15.167 -105.999 45.5s-41 69.833 -41 118.5zM283.003 1374c0 15.333 5.16699 30.665 15.5 45.998s24.166 27.333 41.499 36l16 8l242 99c34.667 13.333 60.667 20 78 20
c29.333 0 55 -13.833 77 -41.5s33 -56.167 33 -85.5c0 -58 -28 -98.333 -84 -121l-229 -90c-6 -2.66699 -12.167 -5.16699 -18.5 -7.5s-10.666 -4.16602 -12.999 -5.49902s-5.5 -2.5 -9.5 -3.5s-6.16699 -1.66699 -6.5 -2s-2.33301 -0.666016 -6 -0.999023
s-5.83398 -0.5 -6.50098 -0.5h-9h-13c-29.333 0 -54.666 15.5 -75.999 46.5s-32 65.167 -32 102.5z" />
    <glyph glyph-name="afii10110" unicode="&#x45e;" horiz-adv-x="985" 
d="M-4 975c0 35.333 15 65.332 45 89.999s61.333 37 94 37c72 0 121.333 -35 148 -105l202 -555l217 555c26.667 70 76 105 148 105c32.667 0 64 -12.333 94 -37s45 -54.667 45 -90c0 -29.333 -4.66699 -54.666 -14 -75.999l-494 -1229c-32 -77.333 -78.333 -116 -139 -116
c-47.333 0 -84.833 12.667 -112.5 38s-41.5 55 -41.5 89c0 23.333 6.33301 52 19 86l129 319l-326 813c-9.33301 26.667 -14 52 -14 76zM182 1360c0 32.667 7.50195 61.333 22.502 86s38.167 37 69.5 37c23.333 0 43.166 -4.83301 59.499 -14.5s29.333 -21.334 39 -35.001
l29 -41c9.66699 -13.667 22.667 -25.334 39 -35.001s36.166 -14.5 59.499 -14.5c20 0 37.5 4.83301 52.5 14.5s27.333 21.334 37 35.001l30 41c10.333 13.667 24.333 25.334 42 35.001s38.834 14.5 63.501 14.5c25.333 0 47 -13.333 65 -40s27 -54.334 27 -83.001
c0 -46 -18.333 -85.833 -55 -119.5s-78.334 -57.667 -125.001 -72s-92.334 -21.5 -137.001 -21.5c-33.333 0 -67.666 4 -102.999 12s-69.5 20 -102.5 36s-60 38.333 -81 67s-31.5 61.334 -31.5 98.001z" />
    <glyph glyph-name="afii10193" unicode="&#x45f;" horiz-adv-x="1138" 
d="M84 164v774c0 48.667 13.667 88.167 41 118.5s62.666 45.5 105.999 45.5s78.833 -15.167 106.5 -45.5s41.5 -69.833 41.5 -118.5v-680h381v680c0 48.667 13.667 88.167 41 118.5s62.666 45.5 105.999 45.5s78.833 -15.167 106.5 -45.5s41.5 -69.833 41.5 -118.5v-774
c0 -48.667 -13.833 -88.167 -41.5 -118.5s-63.167 -45.5 -106.5 -45.5h-188v-233c0 -48.667 -13.833 -88.167 -41.5 -118.5s-63.167 -45.5 -106.5 -45.5s-78.666 15.167 -105.999 45.5s-41 69.833 -41 118.5v233h-193c-43.333 0 -78.666 15.167 -105.999 45.5
s-41 69.833 -41 118.5z" />
    <glyph glyph-name="afii10050" unicode="&#x490;" horiz-adv-x="909" 
d="M92 147v1151c0 44 14.5 81.667 43.5 113s67.833 47 116.5 47h366v101c0 48.667 13.833 88 41.5 118s63.167 45 106.5 45s78.666 -15 105.999 -45s41 -69.333 41 -118v-242c0 -38 -12 -71 -36 -99s-57.667 -42 -101 -42h-377v-1029c0 -50 -14.167 -89 -42.5 -117
s-65.166 -42 -110.499 -42s-82.333 14 -111 42s-43 67 -43 117z" />
    <glyph glyph-name="afii10098" unicode="&#x491;" horiz-adv-x="839" 
d="M74 152l-0.000976562 809c0 36 12.333 66.5 37 91.5s55.334 37.5 92.001 37.5h342v112c0 48.667 13.667 88.167 41 118.5s62.666 45.5 105.999 45.5s78.833 -15.167 106.5 -45.5s41.5 -69.833 41.5 -118.5v-241c0 -43.333 -13.333 -75.833 -40 -97.5
s-60.667 -32.5 -102 -32.5h-329v-679c0 -48.667 -13.833 -88.167 -41.5 -118.5s-63.167 -45.5 -106.5 -45.5s-78.666 15.167 -105.999 45.5s-41 69.833 -41 118.5z" />
    <glyph glyph-name="uni2000" unicode="&#x2000;" horiz-adv-x="957" 
 />
    <glyph glyph-name="uni2001" unicode="&#x2001;" horiz-adv-x="1915" 
 />
    <glyph glyph-name="uni2002" unicode="&#x2002;" horiz-adv-x="957" 
 />
    <glyph glyph-name="uni2003" unicode="&#x2003;" horiz-adv-x="1915" 
 />
    <glyph glyph-name="uni2004" unicode="&#x2004;" horiz-adv-x="638" 
 />
    <glyph glyph-name="uni2005" unicode="&#x2005;" horiz-adv-x="478" 
 />
    <glyph glyph-name="uni2006" unicode="&#x2006;" horiz-adv-x="319" 
 />
    <glyph glyph-name="uni2007" unicode="&#x2007;" horiz-adv-x="319" 
 />
    <glyph glyph-name="uni2008" unicode="&#x2008;" horiz-adv-x="239" 
 />
    <glyph glyph-name="uni2009" unicode="&#x2009;" horiz-adv-x="383" 
 />
    <glyph glyph-name="uni200A" unicode="&#x200a;" horiz-adv-x="106" 
 />
    <glyph glyph-name="uni2010" unicode="&#x2010;" horiz-adv-x="796" 
d="M63 592c0 38.667 10.333 70.167 31 94.5s49.334 36.5 86.001 36.5h436c36.667 0 65.334 -12.167 86.001 -36.5s31 -55.833 31 -94.5c0 -36.667 -10.333 -67 -31 -91s-49.334 -36 -86.001 -36h-436c-36.667 0 -65.334 12 -86.001 36s-31 54.333 -31 91z" />
    <glyph glyph-name="uni2011" unicode="&#x2011;" horiz-adv-x="796" 
d="M63 592c0 38.667 10.333 70.167 31 94.5s49.334 36.5 86.001 36.5h436c36.667 0 65.334 -12.167 86.001 -36.5s31 -55.833 31 -94.5c0 -36.667 -10.333 -67 -31 -91s-49.334 -36 -86.001 -36h-436c-36.667 0 -65.334 12 -86.001 36s-31 54.333 -31 91z" />
    <glyph glyph-name="figuredash" unicode="&#x2012;" horiz-adv-x="796" 
d="M63 592c0 38.667 10.333 70.167 31 94.5s49.334 36.5 86.001 36.5h436c36.667 0 65.334 -12.167 86.001 -36.5s31 -55.833 31 -94.5c0 -36.667 -10.333 -67 -31 -91s-49.334 -36 -86.001 -36h-436c-36.667 0 -65.334 12 -86.001 36s-31 54.333 -31 91z" />
    <glyph glyph-name="endash" unicode="&#x2013;" horiz-adv-x="1024" 
d="M0 594c0 37.333 11 67.166 33 89.499s52 33.5 90 33.5h778c38 0 68 -11.167 90 -33.5s33 -52.166 33 -89.499s-11 -67.166 -33 -89.499s-52 -33.5 -90 -33.5h-778c-38 0 -68 11.167 -90 33.5s-33 52.166 -33 89.499z" />
    <glyph glyph-name="emdash" unicode="&#x2014;" horiz-adv-x="2048" 
d="M-123 594c0 37.333 11 67.166 33 89.499s52 33.5 90 33.5h2048c38 0 68 -11.167 90 -33.5s33 -52.166 33 -89.499s-11 -67.166 -33 -89.499s-52 -33.5 -90 -33.5h-2048c-38 0 -68 11.167 -90 33.5s-33 52.166 -33 89.499z" />
    <glyph glyph-name="quoteleft" unicode="&#x2018;" horiz-adv-x="491" 
d="M18 1024c0 22.667 8.33398 50 25.001 82l170 307c12.667 21.333 31 38.333 55 51s45.333 19 64 19c37.333 0 70.166 -13.333 98.499 -40s42.5 -58.334 42.5 -95.001c0 -22.667 -9 -50 -27 -82l-172 -308c-12.667 -22 -30.5 -39 -53.5 -51s-43.833 -18 -62.5 -18
c-37.333 0 -70 13.333 -98 40s-42 58.334 -42 95.001z" />
    <glyph glyph-name="quoteright" unicode="&#x2019;" horiz-adv-x="491" 
d="M18 1024c0 22.667 8.33398 50 25.001 82l170 307c12.667 21.333 31 38.333 55 51s45.333 19 64 19c37.333 0 70.166 -13.333 98.499 -40s42.5 -58.334 42.5 -95.001c0 -22.667 -9 -50 -27 -82l-172 -308c-12.667 -22 -30.5 -39 -53.5 -51s-43.833 -18 -62.5 -18
c-37.333 0 -70 13.333 -98 40s-42 58.334 -42 95.001z" />
    <glyph glyph-name="quotesinglbase" unicode="&#x201a;" horiz-adv-x="491" 
d="M18 -139c0 22.667 8.33203 50 24.999 82l170 307c12.667 21.333 30.834 38.166 54.501 50.499s45.167 18.5 64.5 18.5c37.333 0 70.166 -13.333 98.499 -40s42.5 -58.334 42.5 -95.001c0 -6.66699 -1 -14.167 -3 -22.5s-3.66699 -14.333 -5 -18
s-4.66602 -11.167 -9.99902 -22.5s-8.33301 -17.666 -9 -18.999l-172 -307c-12.667 -22 -30.5 -39 -53.5 -51s-43.833 -18 -62.5 -18c-37.333 0 -70 13.333 -98 40s-42 58.334 -42 95.001z" />
    <glyph glyph-name="quotedblleft" unicode="&#x201c;" horiz-adv-x="909" 
d="M18 1024c0 22.667 8.33398 50 25.001 82l170 307c12.667 21.333 31 38.333 55 51s45.333 19 64 19c37.333 0 70.166 -13.333 98.499 -40s42.5 -58.334 42.5 -95.001c0 -22.667 -9 -50 -27 -82l-172 -308c-12.667 -22 -30.5 -39 -53.5 -51s-43.833 -18 -62.5 -18
c-37.333 0 -70 13.333 -98 40s-42 58.334 -42 95.001zM436.001 1024c0 22.667 8.33398 49.999 25.001 81.999l170 307c12.667 21.333 31 38.333 55 51s45.333 19 64 19c37.333 0 70.166 -13.333 98.499 -40s42.5 -58.334 42.5 -95.001c0 -22.667 -9 -50 -27 -82l-172 -308
c-12.667 -21.333 -30.667 -38.166 -54 -50.499s-44.333 -18.5 -63 -18.5c-37.333 0 -69.833 13.333 -97.5 40s-41.5 58.334 -41.5 95.001z" />
    <glyph glyph-name="quotedblright" unicode="&#x201d;" horiz-adv-x="909" 
d="M18 1024c0 22.667 8.33398 50 25.001 82l170 307c12.667 21.333 31 38.333 55 51s45.333 19 64 19c37.333 0 70.166 -13.333 98.499 -40s42.5 -58.334 42.5 -95.001c0 -22.667 -9 -50 -27 -82l-172 -308c-12.667 -22 -30.5 -39 -53.5 -51s-43.833 -18 -62.5 -18
c-37.333 0 -70 13.333 -98 40s-42 58.334 -42 95.001zM436.001 1024c0 22.667 8.33398 49.999 25.001 81.999l170 307c12.667 21.333 31 38.333 55 51s45.333 19 64 19c37.333 0 70.166 -13.333 98.499 -40s42.5 -58.334 42.5 -95.001c0 -22.667 -9 -50 -27 -82l-172 -308
c-12.667 -21.333 -30.667 -38.166 -54 -50.499s-44.333 -18.5 -63 -18.5c-37.333 0 -69.833 13.333 -97.5 40s-41.5 58.334 -41.5 95.001z" />
    <glyph glyph-name="quotedblbase" unicode="&#x201e;" horiz-adv-x="909" 
d="M18 -139c0 22.667 8.33301 50.001 25 82.001l170 307c12.667 21.333 30.834 38.166 54.501 50.499s45.167 18.5 64.5 18.5c37.333 0 70.166 -13.333 98.499 -40s42.5 -58.334 42.5 -95.001c0 -22.667 -9 -50 -27 -82l-172 -307c-12.667 -22 -30.5 -39 -53.5 -51
s-43.833 -18 -62.5 -18c-37.333 0 -70 13.333 -98 40s-42 58.334 -42 95.001zM436 -138.999c0 22.667 8.33301 50 25 82l170 307c12.667 21.333 30.834 38.166 54.501 50.499s45.167 18.5 64.5 18.5c37.333 0 70.166 -13.333 98.499 -40s42.5 -58.334 42.5 -95.001
c0 -22.667 -9 -50 -27 -82l-172 -307c-12.667 -21.333 -30.667 -38.166 -54 -50.499s-44.333 -18.5 -63 -18.5c-37.333 0 -69.833 13.333 -97.5 40s-41.5 58.334 -41.5 95.001z" />
    <glyph glyph-name="ellipsis" unicode="&#x2026;" horiz-adv-x="2048" 
d="M182 135c0 44 15.667 81.667 47 113s69 47 113 47s81.667 -15.667 113 -47s47 -69 47 -113s-15.667 -81.667 -47 -113s-69 -47 -113 -47s-81.667 15.667 -113 47s-47 69 -47 113zM864 135c0 44 15.667 81.667 47 113s69 47 113 47s81.667 -15.667 113 -47s47 -69 47 -113
s-15.667 -81.667 -47 -113s-69 -47 -113 -47s-81.667 15.667 -113 47s-47 69 -47 113zM1546 135c0 44 15.667 81.667 47 113s69 47 113 47s81.667 -15.667 113 -47s47 -69 47 -113s-15.667 -81.667 -47 -113s-69 -47 -113 -47s-81.667 15.667 -113 47s-47 69 -47 113z" />
    <glyph glyph-name="uni202F" unicode="&#x202f;" horiz-adv-x="383" 
 />
    <glyph glyph-name="guilsinglleft" unicode="&#x2039;" horiz-adv-x="606" 
d="M76 584c0 28.667 16.333 66.668 49 114.001l199 281c20 23.333 49.333 35 88 35c35.333 0 63.833 -11.167 85.5 -33.5s32.5 -48.833 32.5 -79.5c0 -27.333 -7.33301 -53.333 -22 -78l-162 -248l162 -243c14.667 -22 22 -45.333 22 -70
c0 -36.667 -11.333 -67.334 -34 -92.001s-52 -37 -88 -37c-44.667 0 -79 17 -103 51l-211 326c-12 17.333 -18 42 -18 74z" />
    <glyph glyph-name="guilsinglright" unicode="&#x203a;" horiz-adv-x="606" 
d="M76 246c0 31.333 7.33203 57.332 21.999 77.999l162 247l-162 244c-14.667 22 -22 45.333 -22 70c0 36.667 11.333 67.334 34 92.001s52.334 37 89.001 37c44 0 78 -17 102 -51l211 -326c12 -17.333 18 -42 18 -74c0 -28.667 -16.333 -66.667 -49 -114l-198 -281
c-20 -23.333 -49.333 -35 -88 -35c-35.333 0 -64 11.167 -86 33.5s-33 48.833 -33 79.5z" />
    <glyph glyph-name="uni205F" unicode="&#x205f;" horiz-adv-x="478" 
 />
    <glyph glyph-name="Euro" unicode="&#x20ac;" 
d="M37 553l41.001 100.001h90c-1.33301 13.333 -2 36.666 -2 69.999c0 28.667 0.666992 49 2 61h-131l41 101h98c21.333 197.333 75 346.333 161 447s214.667 151 386 151c162 0 277.333 -35.667 346 -107l14 -207h-51c-22 136.667 -101.667 205 -239 205
c-96 0 -167.333 -41.333 -214 -124s-76.667 -204.334 -90 -365.001h484l-41 -101h-445c-1.33301 -13.333 -2 -35 -2 -65v-66h394l-41 -100h-349c9.33301 -151.333 40.166 -267.333 92.499 -348s123.5 -121 213.5 -121c61.333 0 113.5 16.667 156.5 50
s69.833 84.333 80.5 153h51l-14 -199c-33.333 -35.333 -76.5 -62.666 -129.5 -81.999s-125.167 -29 -216.5 -29c-166 0 -293 48.5 -381 145.5s-141.333 240.5 -160 430.5h-145z" />
    <glyph glyph-name="trademark" unicode="&#x2122;" horiz-adv-x="2048" 
d="M86 1366c0 29.333 8.5 52 25.5 68s39.167 24 66.5 24h570c27.333 0 49.5 -8 66.5 -24s25.5 -38.667 25.5 -68s-8.5 -52 -25.5 -68s-39.167 -24 -66.5 -24h-162v-537c0 -37.333 -11 -67.166 -33 -89.499s-52 -33.5 -90 -33.5s-68 11.167 -90 33.5s-33 52.166 -33 89.499
v537h-162c-27.333 0 -49.5 8 -66.5 24s-25.5 38.667 -25.5 68zM958 737l-0.00390625 606.001c0 38.667 13.833 69.5 41.5 92.5s72.167 34.5 133.5 34.5c45.333 0 81.833 -7.83301 109.5 -23.5s51.834 -50.167 72.501 -103.5l145 -372l146 372
c20.667 53.333 44.834 87.833 72.501 103.5s64.167 23.5 109.5 23.5c116 0 174 -42.333 174 -127v-606c0 -40 -8.16699 -70.5 -24.5 -91.5s-45.166 -31.5 -86.499 -31.5s-70 10.333 -86 31s-24 51.334 -24 92.001v426h-4l-148 -426
c-6.66699 -18 -11.834 -31.5 -15.501 -40.5s-9.16699 -19.833 -16.5 -32.5s-15 -21.834 -23 -27.501s-18.333 -10.834 -31 -15.501s-27 -7 -43 -7c-20 0 -37.167 2.66699 -51.5 8s-26.333 14.5 -36 27.5s-17 25.333 -22 37s-11.5 28.5 -19.5 50.5l-147 426h-4v-426
c0 -40 -8.16699 -70.5 -24.5 -91.5s-45.166 -31.5 -86.499 -31.5s-70.166 10.5 -86.499 31.5s-24.5 51.5 -24.5 91.5z" />
    <glyph glyph-name="uni25FC" unicode="&#x25fc;" horiz-adv-x="1105" 
d="M0 0v1106h1106v-1106h-1106z" />
    <glyph glyph-name="glyph1" horiz-adv-x="0" 
 />
    <glyph glyph-name="glyph2" horiz-adv-x="682" 
 />
    </font>
</defs>
</svg>
